<?xml version="1.0" encoding="UTF-8" standalone="no"?>
<svg xmlns:rdf="http://www.w3.org/1999/02/22-rdf-syntax-ns#" xmlns="http://www.w3.org/2000/svg" height="2.3mm" width="2.8mm" version="1.1" xmlns:cc="http://creativecommons.org/ns#" xmlns:dc="http://purl.org/dc/elements/1.1/" viewBox="0 0 10 7.9999997">
<g>
<path style="fill:#bbb" d="m4.1 7.7c0.1-0.5 0.7-0.3 0.7-0.1 0.1 0.1-0.5 0.2-0.7 0.1zm-0.69-0.05c-0.085-0.18 0.66-0.055 0.21 0.024-0.07 0.0053-0.15 0.0077-0.21-0.024zm0.8-0.5c-1.3-0.6-2-1.5-1.4-2.5-0.2-0.2 0.5-0.3 0.1-0.4-0.1 0.3-0.2 0.1-0.3 0-0.4 0-0.4 0.4-0.3 0.8 0 0.4-0.1 0.7 0 1.1-0.5-0.2-1.5-0.8-1.5-0.9-0.42 0.1-0.73-0.3-0.51-0.7 0.24-0.2 0.6 0.2 0.81 0.2 0.2-0.1 0.6 0 0.2 0.1-0.49 0.6 0.4 0.1 0.6-0.1-0.1 0-0.4 0-0.2-0.1 0.5-0.6 0.5-1.4 0.5-2-0.1-1.2 1-1.5 1.7-1.9 0.9 0.23 1.5 0.7 2.2-0.08 1.8 1.5 2.2 4.1 1.2 5.6 0.2 0.2-0.5 0.7-0.4 0.4-0.2 0.1-0.4-0.1-0.6-0.2-0.3 0 0.4 0.2-0.1 0.2-0.3 0-0.6 0.2-0.9 0.3 0.2 0.3 0.2 0.2-1.1 0.2zm0.9-0.6c-0.31-0.13-0.074 0.19 0.048 0.034zm0.7-0.3c-0.097-0.16-0.1 0.21 0 0zm-2.5-0.1c-0.29-0.35-0.21 0.24 0 0zm1.4-0.08c0.18 0.0013 0.3-0.25 0.051-0.12-0.3 0-0.7 0.3-0.5-0.1-0.1-0.3-1 0-0.4 0.1 0.2 0.2 0.5 0.2 0.8 0.1zm-1.6-0.6c0.2-0.1-0.3-0.1-0.2-0.4-0.4-0.4-0.2 0.6 0.2 0.4zm1.2-0.2c0.2 0-0.3-0.1-0.4-0.1 0.1-0.1 0.2-0.2 0-0.2-0.3-0.1-0.5 0.1-0.4 0.3 0.25 0.052 0.48 0.033 0.72 0.016zm-0.4-1c-0.3-0.2-0.1 0.1 0 0.1-0.1 0.2-0.3 0.4 0 0.5 0.1-0.1 0.1-0.4 0-0.5zm-0.3 0.5c-0.29-0.039 0.14 0.23 0 0zm-0.2-0.4c-0.22-0.28 0.023 0.26 0 0zm-1.1 2.2c-0.3-0.3 0.3 0 0 0zm-2-1.2c0.062-0.22 0.35 0.095 0.041 0.03zm2.2-0.5c0.13-0.17 0.12 0.17 0 0zm-1.7-0.6c0.03-0.2 0.47-0.3 0.17 0 0 0-0.14 0.1-0.17 0zm0.27-1.8c-0.22-0.2-0.21-0.7 0-0.3 0.1 0.1 0.2 0.6 0 0.3zm-0.13-0.7c0.17 0.14-0.17 0.16 0 0zm5.1-1.5c0.11-0.31 0.26-0.14 0 0z"/>
<path style="fill:#a55" d="m6 6c-0.2 0-0.5 0-0.3-0.1-0.1-0.5-0.6-0.7-0.9-1-0.3-0.1-0.4-0.5-0.2-0.7 0.1-0.4 0.1-0.7 0.1-1.1-0.2-0.7 0.2-0.7 0.4-0.9 0-0.2 0.8-0.4 0.8-0.7 0.15 0.13 0.32 0.24 0.47 0.36 0.016-0.1-0.0016-0.41 0.078-0.41 0.33 0.33 1.1 0.083 1.4 0.049 0.21 0.082-0.21 0.22 0.024 0.33 0.2 0.1 0.2 0.3-0.1 0.3-0.1 0.2 0.3 0.3 0.5 0.1 0.3-0.4 1 1.1 1.3 1.6-0.2 0-0.4-0.2-0.4 0-0.8 0.4-0.1 0.9-0.3 1.4 0.2 0.5-0.4 0.6-0.3 0.4 0.3-0.7-0.8 0.4-0.6 0.4-0.1 0.3-0.5-0.1-0.5 0.2-0.6 0.4-1.1-0.2-1.5-0.2zm2.7-1.3c-0.1 0-0.4-0.3-0.3 0 0 0.7 0.4 0.1 0.3 0zm-1.1 1.5c0.13-0.091 0.052 0.15 0 0zm-2.7-0.7c-0.1-0.3 0.4-0.1 0.2 0-0.1 0.1-0.2 0-0.2 0zm4.2-0.8c-0.0019-0.16 0.28-0.028 0.064 0.041-0.032 0.0035-0.043-0.027-0.064-0.041zm-0.7-2.8c0.12-0.23 0.099 0.22 0 0zm0.4 0c-0.1-0.2-0.6-0.1-0.3-0.4 0.2-0.24 0.29 0.19 0.47 0.28 0.067 0.079-0.12 0.15-0.15 0.061zm-3.3-0.4c0.12-0.14 0.13 0.15 0 0zm0.7-0.3c0.095-0.14 0.11 0.14 0 0z"/>
<path d="m6.7 5.9c-0.1-0.5-0.9-0.2-1.1-0.6-0.1-0.2-0.5-0.4-0.4-0.5 0-0.2 0-0.3-0.2-0.3-0.1-0.1-0.3-0.2-0.2-0.3 0.083-0.052 0.13-0.047 0.23 0.025 0.32 0.23-0.05-0.37-0.087-0.4-0.1 0 0-0.2 0.1-0.2 0.2 0 0.3-0.2 0.2-0.4 0-0.2 0-0.2 0.1-0.2 0.2-0.1 0.2-0.3 0.4-0.5 0-0.1 0-0.6 0.1-0.6 0.2 0.1 0.3 0.1 0.5 0.2 0.1 0.1 0.2 0.1 0.2-0.1 0.1-0.2 0.7-0.2 1-0.1 0.2 0 0.2 0.5 0.4 0.5 0.3 0.1 0.8-0.1 0.7 0.1-0.6 1.2-0.8 1.1-0.7 2.6 0 0.2-1 0.2-0.7 0.3 0.2 0.1-0.5 0.6 0 0.5 0.3 0-0.1 0.3-0.2 0.3s-0.3-0.1-0.3-0.3zm-2-1.4c0.062 0 0.16 0.19 0.12 0.23-0.1 0.1-0.2-0.2-0.1-0.2zm0.2-1.2c0-0.1-0.1-0.5 0-0.5s0.2 0.2 0.2 0.3-0.1 0.4-0.2 0.2z" style="fill:#911"/>
<path style="fill:#e00" d="m7.3 2.5c-0.2 0-0.4 0-0.6 0.1-0.1 0.2 0.1 0.8-0.2 0.7-0.2 0-0.3-0.3-0.5-0.4-0.2 0-0.1 0.2-0.1 0.3 0 0.2 0.2 0.4 0.1 0.6s0 1.1 0.2 1.1c0.3 0.3 0.2 0.8 0.7 0.8 0.3 0 0.6-0.2 0.9-0.2 0.2 0 0.4 0.1 0.5-0.1 0.1-0.3-0.1-1 0.1-1.1s0.3-0.2 0.2-0.4c0.1-0.2 0.3 0.1 0.5-0.1 0.1-0.1 0.2-0.3 0-0.4-0.1-0.1-0.1-0.3 0-0.4 0.1-0.2-0.3-0.6-0.5-0.6-0.5-0.3-0.9 0.2-1.3 0.1zm1.2-0.0016c0.1 0.2-0.4 0.2-0.2 0.1 0.1-0.1 0.1-0.1 0.2-0.1zm0.052 0.071c0.069 0.12-0.14 0.085 0 0z"/>
</g>
</svg>
