<?xml version="1.0" encoding="UTF-8" standalone="no"?>
<!-- Created with Inkscape (http://www.inkscape.org/) -->

<svg
   xmlns:dc="http://purl.org/dc/elements/1.1/"
   xmlns:cc="http://creativecommons.org/ns#"
   xmlns:rdf="http://www.w3.org/1999/02/22-rdf-syntax-ns#"
   xmlns:svg="http://www.w3.org/2000/svg"
   xmlns="http://www.w3.org/2000/svg"
   version="1.1"
   width="10.689206"
   height="20.344202"
   id="svg4268">
  <defs
     id="defs4270">
    <filter
       x="-0.57364696"
       y="-0.26230726"
       width="2.147294"
       height="1.5246145"
       color-interpolation-filters="sRGB"
       id="filter4256">
      <feGaussianBlur
         id="feGaussianBlur4258"
         stdDeviation="1.0327863" />
    </filter>
    <filter
       x="-0.48548034"
       y="-0.28606248"
       width="1.9709607"
       height="1.572125"
       color-interpolation-filters="sRGB"
       id="filter4264">
      <feGaussianBlur
         id="feGaussianBlur4266"
         stdDeviation="0.98671511" />
    </filter>
    <filter
       x="-0.40155271"
       y="-0.1836151"
       width="1.8031054"
       height="1.3672302"
       color-interpolation-filters="sRGB"
       id="filter4225">
      <feGaussianBlur
         id="feGaussianBlur4227"
         stdDeviation="0.99184754" />
    </filter>
  </defs>
  <metadata
     id="metadata4273">
    <rdf:RDF>
      <cc:Work
         rdf:about="">
        <dc:format>image/svg+xml</dc:format>
        <dc:type
           rdf:resource="http://purl.org/dc/dcmitype/StillImage" />
        <dc:title></dc:title>
      </cc:Work>
    </rdf:RDF>
  </metadata>
  <g
     transform="translate(-19636.417,-27316.115)"
     id="layer1">
    <path
       d="m 19643.461,27321.128 c -2.272,0.757 -4.953,1.715 -4.638,2.788 0.316,1.074 4.275,10.163 4.275,10.163 -0.101,-3.219 1.58,-9.038 1.626,-10.931 0.06,-2.321 -1.263,-2.02 -1.263,-2.02 z"
       id="path3101-8-2"
       style="fill:#000000;stroke:none;filter:url(#filter4225)" />
    <path
       d="m 19643.461,27316.128 c -2.272,0.757 -4.953,1.715 -4.638,2.788 0.316,1.074 4.275,10.163 4.275,10.163 -0.101,-3.219 1.58,-9.038 1.626,-10.931 0.06,-2.321 -1.263,-2.02 -1.263,-2.02 z"
       id="path3101-8"
       style="fill:#000000;stroke:none" />
    <path
       d="m 19643.461,27318.128 c -2.272,0.757 -4.953,1.715 -4.638,2.788 0.316,1.074 4.275,10.163 4.275,10.163 -0.101,-3.219 1.58,-9.038 1.626,-10.931 0.06,-2.321 -1.263,-2.02 -1.263,-2.02 z"
       id="path3101"
       style="fill:#ffffff;stroke:none" />
    <path
       d="m 19643.461,27317.128 c -2.272,0.757 -4.953,1.715 -4.638,2.788 0.316,1.074 4.275,10.163 4.275,10.163 -0.101,-3.219 1.58,-9.038 1.626,-10.931 0.06,-2.321 -1.263,-2.02 -1.263,-2.02 z"
       id="path3101-8-5"
       style="fill:#dbdbdb;fill-opacity:1;stroke:none" />
  </g>
</svg>
