<?xml version="1.0" encoding="UTF-8" standalone="no"?>
<svg xmlns:rdf="http://www.w3.org/1999/02/22-rdf-syntax-ns#" xmlns="http://www.w3.org/2000/svg" height="1" width="4.5e2" version="1.1" xmlns:cc="http://creativecommons.org/ns#" xmlns:dc="http://purl.org/dc/elements/1.1/" viewBox="0 0 451.084 0.99609375">
<g transform="translate(-1.2e2 -6.6e2)">
<path style="fill:#fff;fill-opacity:.17" d="m1.2e2 0c0.004 0.42 0.035 0.75 0.096 1h1.2c0.18-0.18 0.38-0.4 0.61-0.69v-0.31zm4.1 0c-0.002 0.025-0.004 0.034-0.006 0.061-0.023 0.3-0.16 0.62-0.38 0.94h0.79v-1zm6.2 0c0.38 0.14 0.81 0.23 1.2 0.23 0.76 0 1.7 0.3 2 0.67 0.032 0.035 0.051 0.065 0.07 0.096h68c0.14-0.048 0.3-0.08 0.48-0.08s0.31 0.031 0.42 0.08h36c0.042-0.056 0.072-0.11 0.072-0.17 0-0.37-0.45-0.48-1-0.25 0 0.2-10-0.07-10-0.58zm1.1e2 0c0.37 0.33 0.6 0.69 0.67 1h1.4c-0.005-0.028-0.023-0.052-0.023-0.08 0-0.37 0.45-0.67 1-0.67s1 0.3 1 0.67c0 0.028-0.018 0.053-0.023 0.08h49v-1zm1e2 0c0.049 0.014 0.1 0.015 0.15 0zm9.4 0c-0.45 0.31-0.82 0.68-0.98 1h0.75v-0.19-0.75-0.06zm18 0c0.39 0.12 0.72 0.27 0.88 0.44 0.35 0.38 1.1 0.51 1.6 0.29 0.27-0.11 0.91 0.00022 1.7 0.26h3.5c20-0.11 50-0.37 80-0.99z" transform="translate(1.2e2 6.6e2)"/>
<path style="fill:#fff;fill-opacity:.17" d="m0 0c0.93 0.32 11 1 60 1h20c0-0.3 0-0.63-1-1zm81 0c0.095 0.3 0.18 0.63 0.26 1h18c0.16-0.29 0.36-0.48 0.6-0.48 0.5 0 0.7 0.21 0.56 0.48h2c0.028-0.006 0.053-0.014 0.082-0.02 1.6-0.28 1.6-0.32 0.043-0.39v-0.59h-12c0 0.097 0 0.18-1 0.25v-0.25zm22 0c0.078 0.069 0.15 0.14 0.24 0.21 0.21 0.16 0.26 0.44 0.21 0.79h13c10-0.21 10-0.58 10-1h-5.3c-0.027 0.039-0.049 0.08-0.08 0.12v-0.12zm13 0c0.13 0.14 0.27 0.27 0.41 0.37 0.44 0.3 0.67 0.5 0.68 0.62h50c0.15-0.43 0.38-0.72 0.63-0.73 0.054 0 0.11 0.0061 0.16 0.029 0.26 0.11 0.43 0.38 0.51 0.7h5.9c0.18-0.068 0.39-0.14 0.69-0.21 10-0.14 10-0.45 10-0.78h-6.2c-0.15 0.49-0.39 0.47-0.84 0h-13c-0.006 0.004-0.01 0.0079-0.016 0.012v-0.012zm62 0c-0.06 0.063-0.084 0.096-0.15 0.16-0.32 0.33-0.69 0.61-1.1 0.83h15c0.051-0.16 0.12-0.26 0.21-0.26 0.079 0.008 0.17 0.1 0.28 0.26h2.4c10-0.56 20-0.87 20-0.99zm18 0c0.09 0.013 0.17 0.023 0.27 0.041 10 0.14 10 0.12 10-0.041zm3.3 0c0.1 0.29 0.61 0.51 1.2 0.52 0.7 0.006 0.71 0.17 0.12 0.48h2.2c10-0.34 10-0.7 10-1zm5.3 0c-0.2 1.1-0.06 1.1 0.61 0.18 0.056-0.081 0.081-0.11 0.13-0.18zm1.6 0c0.005 0.071 0.01 0.1 0.016 0.18 0.026 0.41 0.068 0.68 0.15 0.81h0.4c0.14-0.094 0.31-0.25 0.54-0.48 10-0.24 10-0.41 10-0.51zm2.4 0c0.22 0.12 0.46 0.36 0.78 0.73 0.083 0.095 0.18 0.18 0.29 0.27h24c-0.25-0.1-0.47-0.23-0.6-0.38-0.28-0.31 0.14-0.56 0.94-0.56s1.5 0.25 1.5 0.56c0 0.15-0.1 0.28-0.26 0.38h1.6c-0.2-0.12-0.33-0.3-0.33-0.49 0-0.2 0.14-0.38 0.36-0.5zm29 0c0.21 0.12 0.36 0.3 0.36 0.5s-0.13 0.37-0.33 0.49h20c10-0.42 10-0.79 10-0.99h-16c0.093 0.027 0.19 0.055 0.25 0.096 0.33 0.22-0.26 0.38-1.3 0.35-1.2-0.032-1.4-0.19-0.6-0.4v-0.05zm29 0c-0.26 0.13-0.44 0.27-0.44 0.4 0 0.33 0.57 0.46 1.3 0.28 0.44-0.11 0.78 0.0029 1 0.32h8c0.12-0.34 0.21-0.55 0.32-0.53 0.092 0.018 0.21 0.23 0.34 0.53h7.1c-0.011-0.079-0.025-0.16-0.025-0.24v-0.76zm19 0c0.025 0.11 0.043 0.23 0.043 0.37 0 0.23-0.028 0.44-0.066 0.63h39c10-0.19 10-0.05 20-1z" transform="translate(1.2e2 6.6e2)"/>
<path style="fill:#fff;fill-opacity:.17" d="m3.3e2 0c-0.23 0.23-0.7 0.61-1.2 0.97-0.014 0.009-0.021 0.012-0.035 0.021h2.6c0.012-0.14 0.008-0.23 0.027-0.39 10-0.22 10-0.42 10-0.6zm2.4 0c0.015 0.053 0.034 0.11 0.066 0.16 0.13 0.23 0.15 0.53 0.094 0.83h3c-0.034-0.063-0.065-0.096-0.1-0.22 10-0.28 10-0.54 10-0.77zm3.5 0c-0.004 0.45-0.025 0.82-0.072 1h20c10-0.25 10-0.45 10-1z" transform="translate(1.2e2 6.6e2)"/>
</g>
<g style="display:none" transform="translate(.00001 -.48)">
<path style="fill:#a64747;fill-opacity:.54;fill-rule:evenodd" d="m-1.9e2 -5.5e2v9.2e2h1.9e3v-9.2e2h-1.9e3zm1.9e2 5.5e2h1.5e3v1.5h-1.5e3v-1.5z"/>
</g>
</svg>
