<?xml version="1.0" encoding="UTF-8" standalone="no"?>
<svg xmlns:rdf="http://www.w3.org/1999/02/22-rdf-syntax-ns#" xmlns="http://www.w3.org/2000/svg" height="1" width="1e3" version="1.1" xmlns:cc="http://creativecommons.org/ns#" xmlns:dc="http://purl.org/dc/elements/1.1/" viewBox="0 0 1000.0001 1">
<metadata>
<rdf:RDF>
<cc:Work rdf:about="">
<dc:format>image/svg+xml</dc:format>
<dc:type rdf:resource="http://purl.org/dc/dcmitype/StillImage"/>
<dc:title/>
</cc:Work>
</rdf:RDF>
</metadata>
<g transform="translate(-120 -660)">
<path style="fill-opacity:0.23;fill:#822828" d="m227.5-0.003906-97.2 0.003906c0.38 0.14 0.8092 0.2305 1.199 0.2305 0.76 0 1.7 0.2999 2 0.6699 0.032 0.035 0.0513 0.0647 0.0703 0.0957h104.9c-2.111-1.479-8.023-0.04809-10.93-1zm-126.6 0.003906c0.004 0.42 19.18 0.75 19.24 1h1.201c0.18-0.18 0.3794-0.3995 0.6094-0.6895v-0.3105zm23.24 0c-0.002 0.025-0.004 0.03355-0.006 0.06055-0.023 0.3-0.1589 0.6214-0.3789 0.9414h0.7891v-1zm116.2 0c0.37 0.33 0.5999 0.69 0.6699 1h1.398c-0.005-0.028-0.0215-0.05208-0.0215-0.08008 0-0.37 0.45-0.6699 1-0.6699s1 0.2999 1 0.6699c0 0.028-0.0184 0.05308-0.0234 0.08008h69.3l-20.4-1zm100 0c0.049 0.014 0.0984 0.015 0.1484 0zm14.21 0c0.39 0.12 9.117 0.2695 9.277 0.4395 0.9908 0.04854 5.895 0.511 6.395 0.291 0.27-0.11 0.9112-0.00001434 1.701 0.2598h3.5c-0.1-0.2927 24.9-0.6514 24.9-0.9903zm77.19 0c0.18 0.36 0.1604 0.73-0.0176 1h20 79.9c0.092-0.013 0.1908-0.02148 0.3008-0.02148 0.1 0 0.1891 0.01448 0.2891 0.02148h45.99c-0.101-0.3223 5.841-0.658 5.805-1h-44.92c-0.6 0.36-1.4 0.34-2 0h-85.35c0.0388 0.2446 0.0135 0.493-0.0449 0.7285-0.0183-0.1308-0.0449-0.2381-0.0449-0.4277 0-0.11 0.009-0.2008 0.0156-0.3008zm153 0c-0.0359 0.3421 0.2924 0.6778 0.1907 1h67.32c0.11-0.058 0.1591-0.09516 0.2891-0.1602 0.33-0.17 0.5806-0.3305 0.8106-0.4805l0.3711 0.25c0.2 0.13 0.3691 0.2606 0.5391 0.3906h82c-1.3-0.6873-6.7-0.8686-9.3-0.9999h-6.695c0.02 0.028 0.0209 0.05208 0.0469 0.08008 0.34 0.37 0.1406 0.6699-0.4394 0.6699-0.79 0-1.101-0.26-0.9609-0.75h-60c-0.073 0.88-0.3996 0.7602-1.6 0.2402 0.16-0.072 0.2999-0.1602 0.4199-0.2402h-27c-0.14 0.11-0.4997 0.1992-0.9297 0.1992-0.26 0-0.4999-0.07722-0.6699-0.1992zm157 0c0.51 0.22 0.7305 0.5601 0.4805 0.8301-0.056 0.061-0.1195 0.1199-0.1895 0.1699h4.9c0.16-0.21 0.4602-0.4191 0.9102-0.6191 0.15-0.063 0.3391-0.09661 0.5391-0.09961 0.62-0.009 1.4 0.2304 2.1 0.6504 0.033 0.022 0.0471 0.0415 0.0781 0.0625l38.24-0.001953c10-0.26 10-0.6083 10-0.9883h-36c0.005 0.028 0.0254 0.05498 0.0254 0.08398 0 0.37-0.45 0.6699-1 0.6699s-1-0.2999-1-0.6699v-0.08008zm110 0c-2.7 0.15-4.398 0.63-6.398 1h25c-0.022-0.08-0.0352-0.1698-0.0352-0.2598 0-0.37 0.4796-0.6699 1.1-0.6699 0.58 0 0.7795 0.2999 0.4395 0.6699-0.085 0.093-0.1793 0.1798-0.2793 0.2598h100c-5-0.01-9.4-0.6489-14.2-1zm121.7 0-1.594 1h14.42c0.3301-0.3316 1.568-0.6134 1.666-1h-11.32c-0.87 0.55-1.099 0.55-1.199 0zm16 0c0.35 0.35 0.6391 0.7 0.7891 1h9.789l-10.28-1z" transform="translate(120,660)"/>
<path style="fill-opacity:0.23;fill:#822828" d="m13.47-0.02148-13.47 0.02148c1.424 0.3015 9.622 1 12.24 1h4.377zm809.8 0.01367c0.6688 0.2501 2.918 0.6585 2.918 0.998 0 0.004-0.002 0.006766-0.002 0.009766h10c0.16-0.11 0.341-0.2012 0.541-0.2012 0.21 0 0.3497 0.07617 0.4297 0.2012h7.066c0.85-0.1-6.127-0.55-6.537-1h-3.299c-0.17 0.051-0.3309 0.1097-0.4609 0.1797-0.78 0.43-0.8304 0.3801-0.1504-0.1699zm-573.2 0.003904-12.4 0.003906c0.5152 0.4822 0.2563 0.5438 0.0312 0.9902h20c3.179-0.4351 7.045-0.2638 9.83-0.3105 0.44-0.11 0.78 0.003213 1 0.3203h8c0.12-0.34 0.2103-0.5493 0.3203-0.5293 0.092 0.018 0.2098 0.2293 0.3398 0.5293h1.1c-0.0472-0.3256 5.975-0.6601 5.975-1h-32.56c0.093 0.027 0.19 0.0547 0.25 0.0957 0.33 0.22-0.2608 0.3796-1.301 0.3496-1.2-0.032-1.4-0.1884-0.5996-0.3984zm-232.3 0.003906c-1.79 0.2943-1.25 0.6484-0.8 1h10.4c-0.7 0-4.443-0.42-4.643-1zm8.646 0c0.4521 0.3261 0.8424 0.6447 1.25 0.9902h27.96c0.82-0.2407 19.92-0.5108 25.88-0.8066 0.9 0.2497 2.99 0.5207 3.05 0.8164h14.5c0.16-0.29 0.3596-0.4805 0.5996-0.4805 0.5 0 0.7005 0.2105 0.5605 0.4805h2c-0.7868-0.213-2.021-0.6244 0.125-1h-11.95c0 0.097 0 0.18-1 0.25v-0.25h-5.914zm76.69 0c0.078 0.069 0.1502 0.1409 0.2402 0.2109 0.21 0.16 0.2609 0.4391 0.2109 0.7891l35.64-0.005859c1.262-0.2743 1.746-0.6352 2.281-0.9902-12.8-0.001053-24.7-0.004227-38.4-0.0039zm182.6 0c0.0918 0.3353 2.754 0.6798 2.727 1h29.14l1.149-1zm36.56 0c-0.7331 0.3481-1.533 0.6961-0.9502 1.044l3.4-0.044c10-0.19 10-0.05 20-1zm23.44 0c-0.22 0.49 10.07 0.96 11.36 1h70.55c0-0.3333-4.979-0.6667-4.979-1h-2.801c-4.1 0.7443-8.1 0.8721-12.3 0zm83.7 0c0.1 0.29 0.1788 0.63 0.2188 1h1.301v-1zm1.9 0 0.1484 1h34.65c-0.1739-0.6035 0.155-0.6549 0.3496-1zm36.2 0c-0.12 0.4 0.2099 0.76 0.9199 1h53c10-0.12 12.19-0.9245 24.42-1h-55.42c-0.27 0.044-0.5807 0.06936-0.9707 0.06836v-0.06836h-1c0.031 0.015 0.0677 0.03778 0.0977 0.05078-0.21-0.009-0.4202-0.0182-0.6602-0.0332l0.1-0.01758zm170 0c1.3 0.55 4.1 0.79 7 1h50l-17.26-1zm130 0c1 0.41 1.9 0.82 4.6 1h33.74c-2.7-0.5361-6.1-0.8599-7-0.9941 20.4-0.01213-29.2-0.0059-31.3-0.0059zm33.78 0c0.041 0.26 4.902 0.62 5.332 1h14l-4.623-1zm-657.8 0.003906c0.601 0.3107 1.843 0.6007 0 0.9902h5.094l-1.969-0.9902c-1.041-0.00008099-2.088 0.00009047-3.125 0zm5.562 0c2.168 0.2386 4.712 0.3595 5.625 0.9902l12.47-0.003906c0.15-0.43 0.3809-0.7205 0.6309-0.7305 0.054 0 0.1102 0.006397 0.1602 0.0293 0.26 0.11 0.4298 0.3792 0.5098 0.6992h5.9c0.18-0.068 0.3895-0.139 0.6895-0.209 0.9426-0.0132 1.406-0.03469 2.18-0.05078-0.1336 0.09159-0.2662 0.1845-0.4102 0.2617h15c0.051-0.16 0.1209-0.2598 0.2109-0.2598 0.079 0.008 0.1693 0.09977 0.2793 0.2598h2.4c0.8-0.2884-1.3-0.3582 2.4-0.9823-15.6-0.002055-32-0.002744-48.1-0.003894zm50.1 0.003906c-0.2176 1.23 1.175 0.6957 1.939 0.6562 0 0.08-0.1 0.1903-0.4 0.336h33.05c-0.25-0.1-0.4696-0.2309-0.5996-0.3809-0.28-0.31 0.1395-0.5586 0.9395-0.5586 0.7999 0 1.5 0.2486 1.5 0.5586 0 0.15-0.0998 0.2809-0.2598 0.3809h1.6c-0.2-0.12-0.3301-0.3002-0.3301-0.4902 0-0.2 0.1413-0.38 0.3613-0.5-12.5-0.004803-25.5-0.000241-37.8-0.001988z" transform="translate(120,660)"/>
<path style="fill-opacity:0.23;fill:#822828" d="m743.4-0.003906-8.7 0.003906c0.8397 0.6848 7.625 0.7551 8.526 0.9902h8.427c-0.004-0.384-8.114-0.714-8.229-0.9941zm-532.5 0.003906c0.52 0.44 15.13 0.8 15.22 1h4.5 3.4c0-0.048-0.1-0.0671-0.1-0.1191l-11.9-0.8809zm159.1 0c-0.23 0.23-0.6992 0.6107-1.199 0.9707-0.014 0.009-0.0212 0.01053-0.0352 0.01953h2.6c0.012-0.14 0.008-0.2287 0.0274-0.3887v-0.5996zm2.4 0c0.015 0.053 0.0344 0.1102 0.0664 0.1602 0.13 0.23 0.1498 0.5301 0.0937 0.8301l65.2 0.0097c10-0.25 10-0.45 10-1zm83.5 0c-0.45 0.31-0.7012 0.67-0.7012 1h54l-17.26-1h-24.74c-0.045 0.29-0.0999 0.4805-0.1699 0.4805-7.3 0.74-7.799 0.7199-7.799-0.3301 0-0.065-0.0126-0.09439-0.0156-0.1504zm210 0c0.28 0.32 1.6 0.57 0 1h73l-28.53-1z" transform="translate(120,660)"/>
</g>
<g style="display:none" transform="translate(.00001 -.48)">
<path style="fill-rule:evenodd;fill:#a64747;fill-opacity:.54" d="m-190-550v920h1900v-920h-1900zm190 550h1500v1.5h-1500v-1.5z"/>
</g>
</svg>
