<?xml version="1.0" encoding="UTF-8" standalone="no"?>
<!-- Created with Inkscape (http://www.inkscape.org/) -->
<svg xmlns:rdf="http://www.w3.org/1999/02/22-rdf-syntax-ns#" xmlns="http://www.w3.org/2000/svg" height=".85mm" width="85mm" version="1.1" xmlns:cc="http://creativecommons.org/ns#" xmlns:dc="http://purl.org/dc/elements/1.1/" viewBox="0 0 299.99999 3.0000001">
<metadata>
<rdf:RDF>
<cc:Work rdf:about="">
<dc:format>image/svg+xml</dc:format>
<dc:type rdf:resource="http://purl.org/dc/dcmitype/StillImage"/>
<dc:title/>
</cc:Work>
</rdf:RDF>
</metadata>
<g transform="translate(-1.3e2 -7.2e2)">
<path style="fill-rule:evenodd;fill:#ffffff;fill-opacity:.29" d="m1.3e2 7.2e2v3h3e2v-3h-3e2z"/>
</g>
<g transform="translate(-1.3e2 -7.2e2)">
<path style="fill-opacity:.29;fill:#ffffff" d="m1.4e2 7.2e2c-0.097 0.62-0.22 1.2-0.36 1.5-0.14 0.36-0.06 0.87 0.17 1.5h19c-0.013-0.48 0.003-0.97 0.084-1.4 0.14-0.79 0.22-1.3 0.14-1.6h-1.5c-0.46 0.17-0.98 0.38-1.7 0.69-3 1.3-3.5 1.3-3.5 0.055 0-0.33-0.092-0.58-0.26-0.75h-1.6c-0.21 0.048-0.4 0.047-0.55 0h-9.8zm46 0c-1 0.46-2.3 0.61-3.8 0.39-1-0.15-1.8 0.39-1.8 1.2 0 0.59-0.41 1.1-0.99 1.4h2.1c-0.09-0.18-0.15-0.44-0.15-0.73 0-0.55 0.48-1 1.1-1 0.58 0 0.78 0.45 0.44 1-0.18 0.29-0.4 0.55-0.6 0.73h12c0.06-0.29 0.17-0.32 0.31 0h3.7c0.007-0.91 0.29-1.6 0.85-2 0.87-0.61 0.56-0.7-0.94-0.28-1.6 0.44-2.2 0.22-2.2-0.77h-10zm23 0c0.56 1.1 1.1 2.1 1.4 2.3 0.2 0.14 0.078 0.41-0.26 0.72h2.7c0.18-0.2 0.62-0.35 1.2-0.38 0.92-0.038 2.4-0.39 3.3-0.78 1.2-0.52 1.6-0.23 1.5 1.1-0.002 0.019 0.001 0.034 0 0.053h1.7c-0.21-0.19-0.36-0.47-0.36-0.79 0-0.58 0.45-0.78 1-0.44s1 0.82 1 1.1c0 0.062-0.03 0.12-0.084 0.18h1.7c-0.1-0.53-0.19-1.5-0.23-2.9-0.00067-0.027 0.00065-0.036 0-0.062h-7c-0.21 0.2-0.7 0.26-1.6 0.25-1-0.007-1.5-0.07-1.5-0.25h-1.1c-0.003 0.006-0.009 0.01-0.012 0.016-0.92 1.6-1 1.6-1.6 0.047-0.007-0.019-0.009-0.043-0.016-0.062h-1.7zm16 0c0.79 2.2 0.85 3.2 0.068 2.8-0.36-0.22-0.76-0.11-1 0.24h6.5c0.9-1.2 2.9-2.7 4-2.7 0.55-0.009 0.41 0.36-0.32 0.82-0.88 0.56-0.95 1-0.23 1.9h2.8c-0.11-0.49-0.24-0.99-0.39-1.4-0.36-1-0.29-1.5 0.16-1.1 0.45 0.41 1.5 0.18 2.4-0.5 0.003-0.003 0.004-0.003 0.008-0.006h-14zm15 0c-0.11 0.15-0.2 0.26-0.36 0.47-0.51 0.65-0.8 1.6-0.83 2.5h2.1c-0.022-0.17-0.053-0.34-0.096-0.51-0.52-2.1-0.34-2.4 1-1.9 0.91 0.35 1.6 0.2 1.6-0.34 0-0.081-0.02-0.16-0.051-0.23h-3.4zm4.8 0c0.063 1.7 0.38 1.9 1.3 1.2 1-0.83 1.3-0.44 1.4 1.8h40c0.45-0.51 0.89-1.2 1.1-1.7 0.44-1.1 0.56-0.93 0.4 0.42-0.057 0.47-0.25 0.92-0.52 1.3h62c-0.16-0.56-0.092-0.79 0.21-0.49 0.38 0.38 1.5 0.24 2.5-0.3 1.4-0.77 1.7-0.68 1.3 0.46-0.048 0.12-0.12 0.22-0.17 0.34h5.1c-0.43-0.44-1.2-0.59-1.9-0.33-0.77 0.3-1.4 0.073-1.4-0.49 0-0.57 0.79-0.95 1.8-0.85 2.9 0.29 3.9 0.023 4.2-1.3h-9.5c-0.11 0.022-0.19 0.023-0.23 0h-15c-1.8 0.49-3.7 1.2-4.9 1.8-2.1 1.1-3 1-5.3-0.17-1.5-0.8-3.2-1.2-3.7-0.84-0.47 0.29-0.85-0.068-0.94-0.78h-23c-0.038 0.29-0.24 0.31-0.56 0h-2.9c0.34 0.98 0.12 1.3-0.69 1.3-1 0-1.7-0.52-2-1.3h-14c-0.12 0.12-0.23 0.11-0.32 0h-34zm1.2e2 0c0.059 0.32 0.12 0.64 0.18 1 0.14 0.87 0.19 1.5 0.17 2h1.2c-0.089-0.91-0.11-1.9-0.084-3h-1.5zm-1.2e2 2.8-0.012 0.23h0.037l-0.025-0.23zm-37 0.01c-0.19 0.008-0.4 0.055-0.63 0.14-0.072 0.028-0.12 0.053-0.19 0.08h1.5c-0.16-0.16-0.38-0.24-0.67-0.22z"/>
<path style="fill-opacity:.29;fill:#ffffff" d="m1.3e2 7.2e2v3h33c-0.46-1.6-0.58-2.5-0.26-3h-14c-0.12 0.42-0.32 0.81-0.61 1.1-0.7 0.7-0.84 0.35-0.48-1.1h-2c-0.2 1.5-0.77 1.9-2.3 1.9-1.6 0-2.1-0.43-1.7-1.5 0.049-0.13 0.12-0.24 0.18-0.36h-12zm35 0c-0.03 0.23-0.086 0.49-0.2 0.83-0.19 0.59-0.2 1.4-0.08 2.2h9.6c0.062-0.67 0.19-1.1 0.34-1.1s0.4 0.47 0.64 1.1h22c-1.2-0.7-1.1-1.8 0.47-1.8 0.73 0 1.3 0.6 1.3 1.3 0 0.19-0.009 0.31-0.014 0.47h13c-0.36-0.64-0.93-0.96-1.4-0.69-0.52 0.32-1.2 0.15-1.5-0.38-0.33-0.54 0.3-0.79 1.4-0.57 1.9 0.37 2.4-0.032 1.5-1.4h-8c0.03 0.53-0.006 0.86-0.12 0.86-0.26 0-0.51-0.36-0.73-0.86h-9.4c0.45 0.2 0.93 0.66 1.2 1.4 0.32 0.82 0.48 1.5 0.36 1.4-2-0.73-2.7-1.2-2.7-2 0-0.39 0.12-0.64 0.31-0.78h-21c-0.074 0.48-0.5 0.86-1 0.86-0.53 0-0.72-0.38-0.5-0.86h-4.7zm48 0c0.009 0.31 0.029 0.55 0.029 0.92 0 0.85-0.022 1.5-0.057 2.1h5.7c0.58-0.31 0.83-0.89 0.9-1.9 0.031-0.41-0.006-0.79-0.086-1.1h-1.9c0.81 0.97 0.55 1-0.99 0.7-0.62-0.12-1-0.33-1.3-0.7h-2.2zm9.7 0c-0.35 0.29-0.74 1-0.96 1.9-0.11 0.43-0.14 0.81-0.12 1.1h2.2c0.05-1.3-0.11-2.6-0.52-3h-0.56zm3 0c-0.4 0.64-0.61 1.6-0.65 3h2.7c-0.46-0.63-0.91-1.2-1.2-1.4-1.3-1 3.6-0.43 5.2 0.61 0.71 0.44 1.2 0.32 1.2-0.28 0-0.58-0.45-1.1-1-1.1-0.33 0-0.61-0.35-0.79-0.86h-5.5zm9.4 0c0.15 1.1 0.66 1.1 1.4 0h-1.4zm20 0c-0.009 0.1-0.028 0.15-0.033 0.28-0.043 1.1 0.19 1.6 0.53 1.3 0.28-0.28 0.34-0.95 0.17-1.6h-0.66zm2.2 0c-0.13 0.38-0.27 0.74-0.45 1-0.28 0.51-0.55 1.2-0.79 2h2c0.46-0.7 0.88-1.1 1.1-1.1 0.48 0 0.61 0.5 0.33 1.1h0.42c0.12-0.14 0.25-0.28 0.4-0.47 0.51-0.62 0.87-1.6 1-2.5h-4.1zm6.5 0c0.005 0.32-0.01 0.66-0.06 1-0.13 0.9-0.12 1.6 0.014 2h16c0.32-1.2 1-1.6 2.5-1.5 1.6 0.13 2.2-0.3 2.1-1.5h-21zm30 0c-0.16 1.1-0.34 2.1-0.48 2.6-0.04 0.15-0.052 0.27-0.07 0.4h2.6c0.4-0.19 0.86-0.25 1.2-0.088 0.6 0.25 2.2-0.5 3.6-1.7 0.61-0.52 1.1-0.92 1.5-1.2h-8.4zm9.6 0c-0.16 0.28-0.38 0.62-0.71 1.1-0.77 1-1.7 1.9-2.2 1.8-0.1-0.008-0.2 0.026-0.29 0.092h12c-0.018-0.16-0.044-0.34-0.11-0.57-0.27-0.91-0.1-1.6 0.37-1.6 0.38 0.03 0.66 0.95 0.73 2.2h11c-0.023-0.47-0.004-0.84 0.12-0.94 0.33-0.28 0.75 0.15 0.98 0.94h1.2c0.059-0.7 0.43-1.1 1.1-1 0.77 0.06 1.4-0.34 1.5-0.89 0.042-0.55 1.1-0.92 2.4-0.81 0.66 0.051 1.4-0.064 2.1-0.29h-30zm34 0c-0.037 0.063-0.078 0.12-0.11 0.19-0.4 0.83-1.5 1.5-2.4 1.4-1.4-0.094-1.4 0.048-0.26 0.92 0.28 0.21 0.59 0.37 0.89 0.49h3.6c-0.044-0.72-0.25-1.3-0.63-1.5-0.47-0.22-0.31-0.35 0.32-0.33 0.21 0.006 0.47 0.029 0.78 0.068 1.4 0.18 2.1 0.94 2.1 1.7h13c0.006-0.53-0.49-0.7-1.1-0.37-0.82 0.42-0.97 0.1-0.46-0.98 1-2.1-0.058-2.1-1.9-0.062-1.6 1.8-1.6 1.7-0.43-1.5 0.009-0.024 0.017-0.039 0.025-0.062h-13zm18 0c1.8 1 2.8 0.99 5.6 0.049 0.065-0.021 0.089-0.028 0.15-0.049h-5.8zm9.8 0c-0.3 1.6 0.078 2.9 0.93 3 0.55 0.042 1.1-0.79 1.1-1.9 0.036-0.47 0.16-0.83 0.39-1.1h-2.5zm19 0c0.34 0.63 0.5 1.3 0.45 2.1-0.047 0.72 0.61 1 1.6 0.71 0.87-0.26 1.2-0.17 1.1 0.21h37c-0.2-0.18 0.12-0.28 0.87-0.28 0.3 0.002 0.66 0.022 1.1 0.059 0.65 0.058 1.1 0.14 1.3 0.22h3.4v-3h-39c-0.54 0.17-0.93 0.47-0.96 0.84-0.042 0.55-1.3 0.84-2.8 0.65-2.7-0.35-2.7-0.35-0.2-0.67h0.002l2.5-0.32-1.4-0.49h-4.7zm-1.4e2 0.068c-0.26 0.017-0.28 0.49-0.28 1.4 0 0.63 0.2 1.1 0.57 1.5h3.1c-0.36-0.4-0.95-1-1.7-1.6-0.97-0.88-1.5-1.3-1.7-1.3zm18 0.18c0.12-0.005 0.25 0.032 0.39 0.12 0.55 0.34 1 1 1 1.6 0 0.52-0.45 0.94-1 0.94s-1-0.7-1-1.6c0-0.64 0.25-1 0.61-1.1zm1e2 0.34c-0.82-0.064-1.5 0.26-1.6 0.71-0.036 0.46 0.61 0.88 1.4 0.95 0.82 0.064 1.5-0.26 1.6-0.71 0.035-0.46-0.61-0.88-1.4-0.95zm7.4 0.55c-1.5-0.028-1.6 0.31-0.95 1.2 0.18 0.26 0.29 0.47 0.33 0.64h5.2c1.6-0.3 0.47-1.4-2.6-1.7-0.82-0.082-1.5-0.13-2-0.14zm-17 0.44c-0.82 0.022-1.8 0.49-2.2 1.4-0.009 0.018-0.015 0.023-0.023 0.041h3.4c0.017-0.046 0.041-0.09 0.055-0.14 0.25-0.89-0.39-1.3-1.2-1.3zm-1.1e2 0c-0.24 0-0.72 0.45-1.1 1-0.03 0.048-0.033 0.09-0.055 0.14h1.5c0.007-0.047 0.029-0.088 0.029-0.14 0-0.55-0.2-1-0.44-1zm1.2e2 0.46c-0.31-0.035-0.56 0.09-0.77 0.37-0.074 0.1-0.12 0.21-0.14 0.31h2.1c-0.47-0.4-0.87-0.64-1.2-0.68zm-7.1 0.061c-0.092 0.008-0.15 0.11-0.17 0.32-0.007 0.087 0.006 0.2 0.014 0.3h0.74c-0.23-0.4-0.44-0.63-0.59-0.62z"/>
</g>
</svg>
