<?xml version="1.0" encoding="UTF-8" standalone="no"?>
<!-- Created with Inkscape (http://www.inkscape.org/) -->

<svg
   xmlns:dc="http://purl.org/dc/elements/1.1/"
   xmlns:cc="http://creativecommons.org/ns#"
   xmlns:rdf="http://www.w3.org/1999/02/22-rdf-syntax-ns#"
   xmlns:svg="http://www.w3.org/2000/svg"
   xmlns="http://www.w3.org/2000/svg"
   xmlns:sodipodi="http://sodipodi.sourceforge.net/DTD/sodipodi-0.dtd"
   xmlns:inkscape="http://www.inkscape.org/namespaces/inkscape"
   version="1.1"
   width="27"
   height="46"
   id="svg4170"
   inkscape:version="0.91 r13725"
   sodipodi:docname="mainlinks-daji.svg">
  <sodipodi:namedview
     pagecolor="#ffffff"
     bordercolor="#666666"
     borderopacity="1"
     objecttolerance="10"
     gridtolerance="10"
     guidetolerance="10"
     inkscape:pageopacity="0"
     inkscape:pageshadow="2"
     inkscape:window-width="2563"
     inkscape:window-height="2054"
     id="namedview9768"
     showgrid="false"
     inkscape:snap-object-midpoints="true"
     inkscape:snap-intersection-paths="true"
     inkscape:object-nodes="true"
     inkscape:snap-page="true"
     fit-margin-top="0"
     fit-margin-left="0"
     fit-margin-right="0"
     fit-margin-bottom="0"
     inkscape:zoom="32.494331"
     inkscape:cx="18.434331"
     inkscape:cy="24.640033"
     inkscape:window-x="2726"
     inkscape:window-y="44"
     inkscape:window-maximized="0"
     inkscape:current-layer="svg4170" />
  <defs
     id="defs4172">
    <filter
       x="-0.082601033"
       y="-0.11458765"
       width="1.1652021"
       height="1.2291753"
       id="filter4166"
       style="color-interpolation-filters:sRGB">
      <feGaussianBlur
         id="feGaussianBlur4168"
         stdDeviation="0.71616948" />
    </filter>
    <filter
       style="color-interpolation-filters:sRGB"
       x="-0.082601033"
       y="-0.11458765"
       width="1.1652021"
       height="1.2291753"
       id="filter4166-4">
      <feGaussianBlur
         id="feGaussianBlur4168-7"
         stdDeviation="0.71616948" />
    </filter>
  </defs>
  <metadata
     id="metadata4175">
    <rdf:RDF>
      <cc:Work
         rdf:about="">
        <dc:format>image/svg+xml</dc:format>
        <dc:type
           rdf:resource="http://purl.org/dc/dcmitype/StillImage" />
        <dc:title></dc:title>
      </cc:Work>
    </rdf:RDF>
  </metadata>
  <g
     transform="translate(-323.64049,-500.56403)"
     id="layer1">
    <path
       d="m 334.74127,505.69036 c -1.89018,0.007 -3.96466,0.59923 -5.39511,1.93418 -2.72331,2.54148 -2.76706,6.41647 -2.50315,7.16346 0.19006,0.53793 0.57179,0.31207 0.82914,-0.0129 0.24738,-0.31234 -0.15193,-0.43794 -0.29019,-0.93635 -0.29679,-1.06979 -0.41414,-2.64203 1.38094,-4.70321 1.6967,-1.94822 3.27938,-2.30873 3.27938,-2.30873 0,0 -0.84057,1.03526 -0.84057,2.13574 0,1.10049 0.32308,2.17864 0.32308,2.17864 -0.006,-0.003 -0.47768,-2.05566 0.10864,-3.12785 0.40928,-0.74844 0.56762,-0.88269 0.77625,-1.00211 0.0468,0.76658 0.13107,1.2921 0.23731,1.86412 l 0.0428,-1.98421 c 0.58478,-0.20639 0.96548,-0.18707 1.70545,-0.17298 0.18376,0.004 0.32485,0.0163 0.43887,0.0315 -0.897,0.60853 -1.28893,1.33805 -1.30231,1.99993 -0.58886,0.0785 -0.91713,0.16211 -1.19797,0.39599 -0.4048,0.33711 -0.3932,0.47539 -0.32307,0.4646 0.0702,-0.0108 0.58708,-0.14619 1.17508,-0.20014 0.11684,-0.0108 0.29154,-0.012 0.46175,-0.01 0.0206,0.0523 0.0429,0.10429 0.0686,0.1544 -0.0826,0.0267 -0.16924,0.0557 -0.25445,0.0872 -0.18338,0.0677 -0.41953,0.21666 -0.33452,0.27591 0.17802,0.12407 0.65767,0.081 0.87345,0.0972 0.0188,9.9e-4 0.0395,7.7e-4 0.06,9.9e-4 0.0554,0.0538 0.11416,0.10502 0.17727,0.15296 0.0124,0.0106 0.0401,0.0229 0.0915,0.11009 0.23394,0.39649 0.55514,0.6479 0.92921,0.8134 -0.11177,0.0279 -0.22094,0.0571 -0.32451,0.0901 -2.09635,0.66698 -3.38713,3.85244 -2.72758,6.29431 -0.014,0.1718 -0.0205,0.33088 -0.0128,0.46174 0.0431,0.73366 0.10721,1.03643 0.10721,1.03643 -0.192,0.13178 -1.56156,0.20819 -2.45883,0.12865 -0.66598,-0.059 -1.23644,-0.0974 -2.89197,-0.43172 0,0 2.58237,0.66188 5.48518,1.16937 l 0.15154,0.84915 0.0129,-0.82055 c 0.21435,0.0369 0.42968,0.074 0.64616,0.10863 1.19362,0.19134 2.38076,0.33386 3.47808,0.36454 0.12556,0.004 0.25303,0.007 0.38169,0.007 0.0247,4e-5 0.0495,9e-5 0.0743,0 0.12867,-2.7e-4 0.25614,-0.003 0.38169,-0.007 1.09732,-0.0307 2.28447,-0.1732 3.47809,-0.36454 0.21647,-0.0347 0.43181,-0.0718 0.64615,-0.10863 l 0.0129,0.82055 0.15154,-0.84915 c 2.90281,-0.50749 5.48517,-1.16937 5.48517,-1.16937 -1.65552,0.33433 -2.22599,0.37269 -2.89198,0.43172 -0.89726,0.0795 -2.26681,0.003 -2.45882,-0.12865 0,0 0.0641,-0.30277 0.10722,-1.03643 0.008,-0.13086 0.001,-0.28994 -0.0129,-0.46174 0.65956,-2.44187 -0.63122,-5.62733 -2.72757,-6.29431 -0.10357,-0.033 -0.21275,-0.0622 -0.32451,-0.0901 0.37407,-0.1655 0.69527,-0.41691 0.9292,-0.8134 0.0514,-0.0871 0.079,-0.0996 0.0915,-0.11009 0.0631,-0.0479 0.12183,-0.0992 0.17725,-0.15296 0.0206,-6.5e-4 0.0412,-10e-6 0.06,-9.9e-4 0.21579,-0.0161 0.69544,0.0268 0.87345,-0.0972 0.085,-0.0593 -0.15113,-0.2082 -0.33451,-0.27591 -0.0852,-0.0315 -0.17187,-0.0605 -0.25446,-0.0872 0.0258,-0.0501 0.048,-0.10208 0.0686,-0.1544 0.17021,-0.002 0.34491,-7e-4 0.46174,0.01 0.58801,0.0539 1.10497,0.18935 1.17509,0.20014 0.0702,0.0108 0.0817,-0.12749 -0.32307,-0.4646 -0.28085,-0.23388 -0.60911,-0.31749 -1.19797,-0.39599 -0.0134,-0.66188 -0.40532,-1.3914 -1.30232,-1.99993 0.11401,-0.0152 0.25511,-0.0279 0.43888,-0.0315 0.73996,-0.014 1.12065,-0.0334 1.70545,0.17298 l 0.0429,1.98421 c 0.10624,-0.57202 0.19042,-1.09754 0.23731,-1.86412 0.20863,0.11942 0.36697,0.25367 0.77624,1.00211 0.58633,1.07219 0.11473,3.12481 0.10865,3.12785 0,0 0.32307,-1.07815 0.32307,-2.17864 0,-1.10048 -0.84056,-2.13574 -0.84056,-2.13574 0,0 1.58268,0.36051 3.27938,2.30873 1.79508,2.06118 1.67771,3.63342 1.38094,4.70321 -0.13827,0.49841 -0.53758,0.62401 -0.2902,0.93635 0.25735,0.32493 0.63909,0.55079 0.82914,0.0129 0.26392,-0.74699 0.22017,-4.62198 -2.50314,-7.16346 -1.43045,-1.33495 -3.50494,-1.92677 -5.39512,-1.93418 -0.86632,-0.003 -1.6928,0.11604 -2.40164,0.3431 -0.70883,-0.22706 -1.53531,-0.3465 -2.40164,-0.3431 z m 0.12008,1.06359 c 0.26711,0.0387 0.35311,0.0944 0.35311,0.0944 l 0.006,0.37454 c 0,0 -0.86863,0.4855 -1.11219,1.50818 -0.0658,-0.006 -0.19498,-0.0134 -0.36311,-0.003 -0.0448,-0.79576 0.5349,-1.49 1.11648,-1.9742 z m 4.56312,0 c 0.58158,0.4842 1.16121,1.17844 1.11648,1.9742 -0.16813,-0.0105 -0.29736,-0.003 -0.36311,0.003 -0.24356,-1.02268 -1.11218,-1.50818 -1.11218,-1.50818 l 0.006,-0.37454 c 0,0 0.086,-0.0557 0.3531,-0.0944 z m -2.28156,0.8177 c 0.17637,0.0457 0.35447,0.10202 0.53608,0.15582 0.35699,0.10576 0.66511,0.25743 0.92206,0.43458 0.0264,0.27588 0.0604,0.60707 0.0886,0.84487 0.0143,0.12009 0.0297,0.46358 0.0444,0.89775 -0.30916,0.38514 -0.82053,0.68853 -1.59109,0.77767 -0.77055,-0.0891 -1.28192,-0.39253 -1.59109,-0.77767 0.0147,-0.43417 0.0301,-0.77766 0.0444,-0.89775 0.0282,-0.2378 0.0623,-0.56899 0.0886,-0.84487 0.25695,-0.17715 0.56508,-0.32882 0.92207,-0.43458 0.18161,-0.0538 0.35971,-0.11003 0.53607,-0.15582 z m -1.93417,1.01212 c -0.003,0.20472 -0.004,0.38622 -0.006,0.57897 -0.0377,-0.1812 -0.0466,-0.36236 -0.03,-0.53465 0.0119,-0.0147 0.0232,-0.0297 0.0358,-0.0444 z m 3.86835,0 c 0.0125,0.0146 0.0238,0.0296 0.0358,0.0443 0.0167,0.17229 0.008,0.35345 -0.03,0.53465 -0.002,-0.19275 -0.003,-0.37425 -0.006,-0.57897 z m -4.23146,0.69905 c 0.0632,0.28592 0.18977,0.51965 0.3531,0.71191 4.9e-4,0.0496 2.7e-4,0.10864 10e-4,0.13295 9.9e-4,0.0212 0.006,0.075 0.009,0.11437 -0.32649,-0.24401 -0.43757,-0.59356 -0.36311,-0.95923 z m 4.59457,0 c 0.0745,0.36567 -0.0367,0.71522 -0.36311,0.95923 0.003,-0.0393 0.008,-0.0932 0.009,-0.11437 10e-4,-0.0243 9.4e-4,-0.0833 10e-4,-0.13295 0.16332,-0.19226 0.28989,-0.42599 0.35309,-0.71191 z m -5.48804,0.12437 c 0.0323,10e-4 0.0705,0.002 0.0972,0.003 7.7e-4,0.0144 0.002,0.0284 0.003,0.0429 -0.0204,0.006 -0.0387,0.0116 -0.0629,0.0185 -0.0127,-0.0218 -0.0256,-0.0428 -0.0372,-0.0643 z m 6.3815,0 c -0.0116,0.0215 -0.0245,0.0425 -0.0372,0.0643 -0.0242,-0.007 -0.0425,-0.0129 -0.0629,-0.0185 9.9e-4,-0.0145 0.002,-0.0286 0.003,-0.0429 0.0268,-0.001 0.0649,-0.002 0.0972,-0.003 z m -4.79471,0.90204 c 0.13055,0.0953 0.27096,0.17577 0.41315,0.24588 -0.15154,-0.0392 -0.2917,-0.0824 -0.416,-0.13294 0.001,-0.0393 0.002,-0.0743 0.003,-0.11294 z m 3.20791,0 c 10e-4,0.0386 0.002,0.0737 0.003,0.11294 -0.12429,0.0505 -0.26446,0.0938 -0.41599,0.13294 0.14218,-0.0702 0.2826,-0.15061 0.41313,-0.24588 z m -1.60395,1.13792 c 0.56304,0.0474 1.13003,0.0958 1.63969,0.2516 0.0165,0.69331 0.0286,1.28945 0.0286,1.28945 0,0 0.0595,-0.5985 0.12294,-1.23941 0.65341,0.23467 1.19493,0.67586 1.48101,1.5725 0.57517,1.80272 0.70533,5.64955 -3.21505,5.71819 -0.0193,3.2e-4 -0.038,-2.3e-4 -0.0572,0 -0.0191,-2.3e-4 -0.0379,3.2e-4 -0.0572,0 -3.92038,-0.0687 -3.79023,-3.91547 -3.21505,-5.71819 0.28607,-0.89664 0.8276,-1.33783 1.48101,-1.5725 0.0634,0.64091 0.12294,1.23941 0.12294,1.23941 0,0 0.0121,-0.59614 0.0286,-1.28945 0.50967,-0.15582 1.07666,-0.20419 1.63969,-0.2516 z m -3.27509,1.06931 c 0,0 -0.82952,2.39316 -0.27448,4.33295 0.30701,1.07295 0.98382,1.6905 1.65542,2.04712 -0.71921,-0.13207 -1.25824,-0.34025 -1.65971,-0.56181 -0.41092,-0.39006 -0.70942,-0.92315 -0.77481,-1.65399 -0.25939,-2.89902 1.05358,-4.16427 1.05358,-4.16427 z m 6.55019,0 c 0,0 1.31296,1.26525 1.05358,4.16427 -0.0654,0.73084 -0.3639,1.26393 -0.77482,1.65399 -0.40146,0.22156 -0.94049,0.42974 -1.65971,0.56181 0.67161,-0.35662 1.34841,-0.97417 1.65543,-2.04712 0.55504,-1.93979 -0.27448,-4.33295 -0.27448,-4.33295 z"
       id="path3110-4-6-5-3-2"
       style="display:inline;opacity:0.48214291;fill:#000000;fill-opacity:1;stroke:#1a1a1a;filter:url(#filter4166);enable-background:new"
       inkscape:connector-curvature="0" />
    <path
       d="m 334.49127,503.5404 c -1.89018,0.007 -3.96466,0.59923 -5.39511,1.93418 -2.72331,2.54148 -2.76706,6.41647 -2.50315,7.16346 0.19006,0.53793 0.57179,0.31207 0.82914,-0.0129 0.24738,-0.31234 -0.15193,-0.43794 -0.29019,-0.93635 -0.29679,-1.06979 -0.41414,-2.64203 1.38094,-4.70321 1.6967,-1.94822 3.27938,-2.30873 3.27938,-2.30873 0,0 -0.84057,1.03526 -0.84057,2.13574 0,1.10049 0.32308,2.17864 0.32308,2.17864 -0.006,-0.003 -0.47768,-2.05566 0.10864,-3.12785 0.40928,-0.74844 0.56762,-0.88269 0.77625,-1.00211 0.0468,0.76658 0.13107,1.2921 0.23731,1.86412 l 0.0428,-1.98421 c 0.58478,-0.20639 0.96548,-0.18707 1.70545,-0.17298 0.18376,0.004 0.32485,0.0163 0.43887,0.0315 -0.897,0.60853 -1.28893,1.33805 -1.30231,1.99993 -0.58886,0.0785 -0.91713,0.16211 -1.19797,0.39599 -0.4048,0.33711 -0.3932,0.47539 -0.32307,0.4646 0.0702,-0.0108 0.58708,-0.14619 1.17508,-0.20014 0.11684,-0.0108 0.29154,-0.012 0.46175,-0.01 0.0206,0.0523 0.0429,0.10429 0.0686,0.1544 -0.0826,0.0267 -0.16924,0.0557 -0.25445,0.0872 -0.18338,0.0677 -0.41953,0.21666 -0.33452,0.27591 0.17802,0.12407 0.65767,0.081 0.87345,0.0972 0.0188,9.9e-4 0.0395,7.7e-4 0.06,9.9e-4 0.0554,0.0538 0.11416,0.10502 0.17727,0.15296 0.0124,0.0106 0.0401,0.0229 0.0915,0.11009 0.23394,0.39649 0.55514,0.6479 0.92921,0.8134 -0.11177,0.0279 -0.22094,0.0571 -0.32451,0.0901 -2.09635,0.66698 -3.38713,3.85244 -2.72758,6.29431 -0.014,0.1718 -0.0205,0.33088 -0.0128,0.46174 0.0431,0.73366 0.10721,1.03643 0.10721,1.03643 -0.192,0.13178 -1.56156,0.20819 -2.45883,0.12865 -0.66598,-0.059 -1.23644,-0.0974 -2.89197,-0.43172 0,0 2.58237,0.66188 5.48518,1.16937 l 0.15154,0.84915 0.0129,-0.82055 c 0.21435,0.0369 0.42968,0.074 0.64616,0.10863 1.19362,0.19134 2.38076,0.33386 3.47808,0.36454 0.12556,0.004 0.25303,0.007 0.38169,0.007 0.0247,4e-5 0.0495,9e-5 0.0743,0 0.12867,-2.7e-4 0.25614,-0.003 0.38169,-0.007 1.09732,-0.0307 2.28447,-0.1732 3.47809,-0.36454 0.21647,-0.0347 0.43181,-0.0718 0.64615,-0.10863 l 0.0129,0.82055 0.15154,-0.84915 c 2.90281,-0.50749 5.48517,-1.16937 5.48517,-1.16937 -1.65552,0.33433 -2.22599,0.37269 -2.89198,0.43172 -0.89726,0.0795 -2.26681,0.003 -2.45882,-0.12865 0,0 0.0641,-0.30277 0.10722,-1.03643 0.008,-0.13086 0.001,-0.28994 -0.0129,-0.46174 0.65956,-2.44187 -0.63122,-5.62733 -2.72757,-6.29431 -0.10357,-0.033 -0.21275,-0.0622 -0.32451,-0.0901 0.37407,-0.1655 0.69527,-0.41691 0.9292,-0.8134 0.0514,-0.0871 0.079,-0.0996 0.0915,-0.11009 0.0631,-0.0479 0.12183,-0.0992 0.17725,-0.15296 0.0206,-6.5e-4 0.0412,-10e-6 0.06,-9.9e-4 0.21579,-0.0161 0.69544,0.0268 0.87345,-0.0972 0.085,-0.0593 -0.15113,-0.2082 -0.33451,-0.27591 -0.0852,-0.0315 -0.17187,-0.0605 -0.25446,-0.0872 0.0258,-0.0501 0.048,-0.10208 0.0686,-0.1544 0.17021,-0.002 0.34491,-7e-4 0.46174,0.01 0.58801,0.0539 1.10497,0.18935 1.17509,0.20014 0.0702,0.0108 0.0817,-0.12749 -0.32307,-0.4646 -0.28085,-0.23388 -0.60911,-0.31749 -1.19797,-0.39599 -0.0134,-0.66188 -0.40532,-1.3914 -1.30232,-1.99993 0.11401,-0.0152 0.25511,-0.0279 0.43888,-0.0315 0.73996,-0.014 1.12065,-0.0334 1.70545,0.17298 l 0.0429,1.98421 c 0.10624,-0.57202 0.19042,-1.09754 0.23731,-1.86412 0.20863,0.11942 0.36697,0.25367 0.77624,1.00211 0.58633,1.07219 0.11473,3.12481 0.10865,3.12785 0,0 0.32307,-1.07815 0.32307,-2.17864 0,-1.10048 -0.84056,-2.13574 -0.84056,-2.13574 0,0 1.58268,0.36051 3.27938,2.30873 1.79508,2.06118 1.67771,3.63342 1.38094,4.70321 -0.13827,0.49841 -0.53758,0.62401 -0.2902,0.93635 0.25735,0.32493 0.63909,0.55079 0.82914,0.0129 0.26392,-0.74699 0.22017,-4.62198 -2.50314,-7.16346 -1.43045,-1.33495 -3.50494,-1.92677 -5.39512,-1.93418 -0.86632,-0.003 -1.6928,0.11604 -2.40164,0.3431 -0.70883,-0.22706 -1.53531,-0.3465 -2.40164,-0.3431 z m 0.12008,1.06359 c 0.26711,0.0387 0.35311,0.0944 0.35311,0.0944 l 0.006,0.37454 c 0,0 -0.86863,0.4855 -1.11219,1.50818 -0.0658,-0.006 -0.19498,-0.0134 -0.36311,-0.003 -0.0448,-0.79576 0.5349,-1.49 1.11648,-1.9742 z m 4.56312,0 c 0.58158,0.4842 1.16121,1.17844 1.11648,1.9742 -0.16813,-0.0105 -0.29736,-0.003 -0.36311,0.003 -0.24356,-1.02268 -1.11218,-1.50818 -1.11218,-1.50818 l 0.006,-0.37454 c 0,0 0.086,-0.0557 0.3531,-0.0944 z m -2.28156,0.8177 c 0.17637,0.0457 0.35447,0.10202 0.53608,0.15582 0.35699,0.10576 0.66511,0.25743 0.92206,0.43458 0.0264,0.27588 0.0604,0.60707 0.0886,0.84487 0.0143,0.12009 0.0297,0.46358 0.0444,0.89775 -0.30916,0.38514 -0.82053,0.68853 -1.59109,0.77767 -0.77055,-0.0891 -1.28192,-0.39253 -1.59109,-0.77767 0.0147,-0.43417 0.0301,-0.77766 0.0444,-0.89775 0.0282,-0.2378 0.0623,-0.56899 0.0886,-0.84487 0.25695,-0.17715 0.56508,-0.32882 0.92207,-0.43458 0.18161,-0.0538 0.35971,-0.11003 0.53607,-0.15582 z m -1.93417,1.01212 c -0.003,0.20472 -0.004,0.38622 -0.006,0.57897 -0.0377,-0.1812 -0.0466,-0.36236 -0.03,-0.53465 0.0119,-0.0147 0.0232,-0.0297 0.0358,-0.0444 z m 3.86835,0 c 0.0125,0.0146 0.0238,0.0296 0.0358,0.0443 0.0167,0.17229 0.008,0.35345 -0.03,0.53465 -0.002,-0.19275 -0.003,-0.37425 -0.006,-0.57897 z m -4.23146,0.69905 c 0.0632,0.28592 0.18977,0.51965 0.3531,0.71191 4.9e-4,0.0496 2.7e-4,0.10864 10e-4,0.13295 9.9e-4,0.0212 0.006,0.075 0.009,0.11437 -0.32649,-0.24401 -0.43757,-0.59356 -0.36311,-0.95923 z m 4.59457,0 c 0.0745,0.36567 -0.0367,0.71522 -0.36311,0.95923 0.003,-0.0393 0.008,-0.0932 0.009,-0.11437 10e-4,-0.0243 9.4e-4,-0.0833 10e-4,-0.13295 0.16332,-0.19226 0.28989,-0.42599 0.35309,-0.71191 z m -5.48804,0.12437 c 0.0323,0.001 0.0705,0.002 0.0972,0.003 7.7e-4,0.0144 0.002,0.0284 0.003,0.0429 -0.0204,0.006 -0.0387,0.0116 -0.0629,0.0185 -0.0127,-0.0218 -0.0256,-0.0428 -0.0372,-0.0643 z m 6.3815,0 c -0.0116,0.0215 -0.0245,0.0425 -0.0372,0.0643 -0.0242,-0.007 -0.0425,-0.0129 -0.0629,-0.0185 9.9e-4,-0.0145 0.002,-0.0286 0.003,-0.0429 0.0268,-10e-4 0.0649,-0.002 0.0972,-0.003 z m -4.79471,0.90204 c 0.13055,0.0953 0.27096,0.17577 0.41315,0.24588 -0.15154,-0.0392 -0.2917,-0.0824 -0.416,-0.13294 0.001,-0.0393 0.002,-0.0743 0.003,-0.11294 z m 3.20791,0 c 10e-4,0.0386 0.002,0.0737 0.003,0.11294 -0.12429,0.0505 -0.26446,0.0938 -0.41599,0.13294 0.14218,-0.0702 0.2826,-0.15061 0.41313,-0.24588 z m -1.60395,1.13792 c 0.56304,0.0474 1.13003,0.0958 1.63969,0.2516 0.0165,0.69331 0.0286,1.28945 0.0286,1.28945 0,0 0.0595,-0.5985 0.12294,-1.23941 0.65341,0.23467 1.19493,0.67586 1.48101,1.5725 0.57517,1.80272 0.70533,5.64955 -3.21505,5.71819 -0.0193,3.2e-4 -0.038,-2.3e-4 -0.0572,0 -0.0191,-2.3e-4 -0.0379,3.2e-4 -0.0572,0 -3.92038,-0.0687 -3.79023,-3.91547 -3.21505,-5.71819 0.28607,-0.89664 0.8276,-1.33783 1.48101,-1.5725 0.0634,0.64091 0.12294,1.23941 0.12294,1.23941 0,0 0.0121,-0.59614 0.0286,-1.28945 0.50967,-0.15582 1.07666,-0.20419 1.63969,-0.2516 z m -3.27509,1.06931 c 0,0 -0.82952,2.39316 -0.27448,4.33295 0.30701,1.07295 0.98382,1.6905 1.65542,2.04712 -0.71921,-0.13207 -1.25824,-0.34025 -1.65971,-0.56181 -0.41092,-0.39006 -0.70942,-0.92315 -0.77481,-1.65399 -0.25939,-2.89902 1.05358,-4.16427 1.05358,-4.16427 z m 6.55019,0 c 0,0 1.31296,1.26525 1.05358,4.16427 -0.0654,0.73084 -0.3639,1.26393 -0.77482,1.65399 -0.40146,0.22156 -0.94049,0.42974 -1.65971,0.56181 0.67161,-0.35662 1.34841,-0.97417 1.65543,-2.04712 0.55504,-1.93979 -0.27448,-4.33295 -0.27448,-4.33295 z"
       id="path3110-4-6-5"
       style="display:inline;fill:#ffffff;fill-opacity:1;stroke:none;enable-background:new"
       inkscape:connector-curvature="0" />
    <path
       d="m 334.74127,501.8154 c -1.89018,0.007 -3.96466,0.59923 -5.39511,1.93418 -2.72331,2.54148 -2.76706,6.41647 -2.50315,7.16346 0.19006,0.53793 0.57179,0.31207 0.82914,-0.0129 0.24738,-0.31234 -0.15193,-0.43794 -0.29019,-0.93635 -0.29679,-1.06979 -0.41414,-2.64203 1.38094,-4.70321 1.6967,-1.94822 3.27938,-2.30873 3.27938,-2.30873 0,0 -0.84057,1.03526 -0.84057,2.13574 0,1.10049 0.32308,2.17864 0.32308,2.17864 -0.006,-0.003 -0.47768,-2.05566 0.10864,-3.12785 0.40928,-0.74844 0.56762,-0.88269 0.77625,-1.00211 0.0468,0.76658 0.13107,1.2921 0.23731,1.86412 l 0.0428,-1.98421 c 0.58478,-0.20639 0.96548,-0.18707 1.70545,-0.17298 0.18376,0.004 0.32485,0.0163 0.43887,0.0315 -0.897,0.60853 -1.28893,1.33805 -1.30231,1.99993 -0.58886,0.0785 -0.91713,0.16211 -1.19797,0.39599 -0.4048,0.33711 -0.3932,0.47539 -0.32307,0.4646 0.0702,-0.0108 0.58708,-0.14619 1.17508,-0.20014 0.11684,-0.0108 0.29154,-0.012 0.46175,-0.01 0.0206,0.0523 0.0429,0.10429 0.0686,0.1544 -0.0826,0.0267 -0.16924,0.0557 -0.25445,0.0872 -0.18338,0.0677 -0.41953,0.21666 -0.33452,0.27591 0.17802,0.12407 0.65767,0.081 0.87345,0.0972 0.0188,9.9e-4 0.0395,7.7e-4 0.06,9.9e-4 0.0554,0.0538 0.11416,0.10502 0.17727,0.15296 0.0124,0.0106 0.0401,0.0229 0.0915,0.11009 0.23394,0.39649 0.55514,0.6479 0.92921,0.8134 -0.11177,0.0279 -0.22094,0.0571 -0.32451,0.0901 -2.09635,0.66698 -3.38713,3.85244 -2.72758,6.29431 -0.014,0.1718 -0.0205,0.33088 -0.0128,0.46174 0.0431,0.73366 0.10721,1.03643 0.10721,1.03643 -0.192,0.13178 -1.56156,0.20819 -2.45883,0.12865 -0.66598,-0.059 -1.23644,-0.0974 -2.89197,-0.43172 0,0 2.58237,0.66188 5.48518,1.16937 l 0.15154,0.84915 0.0129,-0.82055 c 0.21435,0.0369 0.42968,0.074 0.64616,0.10863 1.19362,0.19134 2.38076,0.33386 3.47808,0.36454 0.12556,0.004 0.25303,0.007 0.38169,0.007 0.0247,4e-5 0.0495,9e-5 0.0743,0 0.12867,-2.7e-4 0.25614,-0.003 0.38169,-0.007 1.09732,-0.0307 2.28447,-0.1732 3.47809,-0.36454 0.21647,-0.0347 0.43181,-0.0718 0.64615,-0.10863 l 0.0129,0.82055 0.15154,-0.84915 c 2.90281,-0.50749 5.48517,-1.16937 5.48517,-1.16937 -1.65552,0.33433 -2.22599,0.37269 -2.89198,0.43172 -0.89726,0.0795 -2.26681,0.003 -2.45882,-0.12865 0,0 0.0641,-0.30277 0.10722,-1.03643 0.008,-0.13086 0.001,-0.28994 -0.0129,-0.46174 0.65956,-2.44187 -0.63122,-5.62733 -2.72757,-6.29431 -0.10357,-0.033 -0.21275,-0.0622 -0.32451,-0.0901 0.37407,-0.1655 0.69527,-0.41691 0.9292,-0.8134 0.0514,-0.0871 0.079,-0.0996 0.0915,-0.11009 0.0631,-0.0479 0.12183,-0.0992 0.17725,-0.15296 0.0206,-6.5e-4 0.0412,-1e-5 0.06,-9.9e-4 0.21579,-0.0161 0.69544,0.0268 0.87345,-0.0972 0.085,-0.0593 -0.15113,-0.2082 -0.33451,-0.27591 -0.0852,-0.0315 -0.17187,-0.0605 -0.25446,-0.0872 0.0258,-0.0501 0.048,-0.10208 0.0686,-0.1544 0.17021,-0.002 0.34491,-7e-4 0.46174,0.01 0.58801,0.0539 1.10497,0.18935 1.17509,0.20014 0.0702,0.0108 0.0817,-0.12749 -0.32307,-0.4646 -0.28085,-0.23388 -0.60911,-0.31749 -1.19797,-0.39599 -0.0134,-0.66188 -0.40532,-1.3914 -1.30232,-1.99993 0.11401,-0.0152 0.25511,-0.0279 0.43888,-0.0315 0.73996,-0.014 1.12065,-0.0334 1.70545,0.17298 l 0.0429,1.98421 c 0.10624,-0.57202 0.19042,-1.09754 0.23731,-1.86412 0.20863,0.11942 0.36697,0.25367 0.77624,1.00211 0.58633,1.07219 0.11473,3.12481 0.10865,3.12785 0,0 0.32307,-1.07815 0.32307,-2.17864 0,-1.10048 -0.84056,-2.13574 -0.84056,-2.13574 0,0 1.58268,0.36051 3.27938,2.30873 1.79508,2.06118 1.67771,3.63342 1.38094,4.70321 -0.13827,0.49841 -0.53758,0.62401 -0.2902,0.93635 0.25735,0.32493 0.63909,0.55079 0.82914,0.0129 0.26392,-0.74699 0.22017,-4.62198 -2.50314,-7.16346 -1.43045,-1.33495 -3.50494,-1.92677 -5.39512,-1.93418 -0.86632,-0.003 -1.6928,0.11604 -2.40164,0.3431 -0.70883,-0.22706 -1.53531,-0.3465 -2.40164,-0.3431 z m 0.12008,1.06359 c 0.26711,0.0387 0.35311,0.0944 0.35311,0.0944 l 0.006,0.37454 c 0,0 -0.86863,0.4855 -1.11219,1.50818 -0.0658,-0.006 -0.19498,-0.0134 -0.36311,-0.003 -0.0448,-0.79576 0.5349,-1.49 1.11648,-1.9742 z m 4.56312,0 c 0.58158,0.4842 1.16121,1.17844 1.11648,1.9742 -0.16813,-0.0105 -0.29736,-0.003 -0.36311,0.003 -0.24356,-1.02268 -1.11218,-1.50818 -1.11218,-1.50818 l 0.006,-0.37454 c 0,0 0.086,-0.0557 0.3531,-0.0944 z m -2.28156,0.8177 c 0.17637,0.0457 0.35447,0.10202 0.53608,0.15582 0.35699,0.10576 0.66511,0.25743 0.92206,0.43458 0.0264,0.27588 0.0604,0.60707 0.0886,0.84487 0.0143,0.12009 0.0297,0.46358 0.0444,0.89775 -0.30916,0.38514 -0.82053,0.68853 -1.59109,0.77767 -0.77055,-0.0891 -1.28192,-0.39253 -1.59109,-0.77767 0.0147,-0.43417 0.0301,-0.77766 0.0444,-0.89775 0.0282,-0.2378 0.0623,-0.56899 0.0886,-0.84487 0.25695,-0.17715 0.56508,-0.32882 0.92207,-0.43458 0.18161,-0.0538 0.35971,-0.11003 0.53607,-0.15582 z m -1.93417,1.01212 c -0.003,0.20472 -0.004,0.38622 -0.006,0.57897 -0.0377,-0.1812 -0.0466,-0.36236 -0.03,-0.53465 0.0119,-0.0147 0.0232,-0.0297 0.0358,-0.0444 z m 3.86835,0 c 0.0125,0.0146 0.0238,0.0296 0.0358,0.0443 0.0167,0.17229 0.008,0.35345 -0.03,0.53465 -0.002,-0.19275 -0.003,-0.37425 -0.006,-0.57897 z m -4.23146,0.69905 c 0.0632,0.28592 0.18977,0.51965 0.3531,0.71191 4.9e-4,0.0496 2.7e-4,0.10864 10e-4,0.13295 9.9e-4,0.0212 0.006,0.075 0.009,0.11437 -0.32649,-0.24401 -0.43757,-0.59356 -0.36311,-0.95923 z m 4.59457,0 c 0.0745,0.36567 -0.0367,0.71522 -0.36311,0.95923 0.003,-0.0393 0.008,-0.0932 0.009,-0.11437 10e-4,-0.0243 9.4e-4,-0.0833 10e-4,-0.13295 0.16332,-0.19226 0.28989,-0.42599 0.35309,-0.71191 z m -5.48804,0.12437 c 0.0323,10e-4 0.0705,0.002 0.0972,0.003 7.7e-4,0.0144 0.002,0.0284 0.003,0.0429 -0.0204,0.006 -0.0387,0.0116 -0.0629,0.0185 -0.0127,-0.0218 -0.0256,-0.0428 -0.0372,-0.0643 z m 6.3815,0 c -0.0116,0.0215 -0.0245,0.0425 -0.0372,0.0643 -0.0242,-0.007 -0.0425,-0.0129 -0.0629,-0.0185 9.9e-4,-0.0145 0.002,-0.0286 0.003,-0.0429 0.0268,-10e-4 0.0649,-0.002 0.0972,-0.003 z m -4.79471,0.90204 c 0.13055,0.0953 0.27096,0.17577 0.41315,0.24588 -0.15154,-0.0392 -0.2917,-0.0824 -0.416,-0.13294 0.001,-0.0393 0.002,-0.0743 0.003,-0.11294 z m 3.20791,0 c 10e-4,0.0386 0.002,0.0737 0.003,0.11294 -0.12429,0.0505 -0.26446,0.0938 -0.41599,0.13294 0.14218,-0.0702 0.2826,-0.15061 0.41313,-0.24588 z m -1.60395,1.13792 c 0.56304,0.0474 1.13003,0.0958 1.63969,0.2516 0.0165,0.69331 0.0286,1.28945 0.0286,1.28945 0,0 0.0595,-0.5985 0.12294,-1.23941 0.65341,0.23467 1.19493,0.67586 1.48101,1.5725 0.57517,1.80272 0.70533,5.64955 -3.21505,5.71819 -0.0193,3.2e-4 -0.038,-2.3e-4 -0.0572,0 -0.0191,-2.3e-4 -0.0379,3.2e-4 -0.0572,0 -3.92038,-0.0687 -3.79023,-3.91547 -3.21505,-5.71819 0.28607,-0.89664 0.8276,-1.33783 1.48101,-1.5725 0.0634,0.64091 0.12294,1.23941 0.12294,1.23941 0,0 0.0121,-0.59614 0.0286,-1.28945 0.50967,-0.15582 1.07666,-0.20419 1.63969,-0.2516 z m -3.27509,1.06931 c 0,0 -0.82952,2.39316 -0.27448,4.33295 0.30701,1.07295 0.98382,1.6905 1.65542,2.04712 -0.71921,-0.13207 -1.25824,-0.34025 -1.65971,-0.56181 -0.41092,-0.39006 -0.70942,-0.92315 -0.77481,-1.65399 -0.25939,-2.89902 1.05358,-4.16427 1.05358,-4.16427 z m 6.55019,0 c 0,0 1.31296,1.26525 1.05358,4.16427 -0.0654,0.73084 -0.3639,1.26393 -0.77482,1.65399 -0.40146,0.22156 -0.94049,0.42974 -1.65971,0.56181 0.67161,-0.35662 1.34841,-0.97417 1.65543,-2.04712 0.55504,-1.93979 -0.27448,-4.33295 -0.27448,-4.33295 z"
       id="path3110-4-6-5-3"
       style="display:inline;fill:#000000;fill-opacity:1;stroke:none;enable-background:new"
       inkscape:connector-curvature="0" />
    <path
       d="m 334.60666,502.88634 c -1.89018,0.007 -3.96466,0.59923 -5.39511,1.93418 -2.72331,2.54148 -2.76706,6.41647 -2.50315,7.16346 0.19006,0.53793 0.57179,0.31207 0.82914,-0.0129 0.24738,-0.31234 -0.15193,-0.43794 -0.29019,-0.93635 -0.29679,-1.06979 -0.41414,-2.64203 1.38094,-4.70321 1.6967,-1.94822 3.27938,-2.30873 3.27938,-2.30873 0,0 -0.84057,1.03526 -0.84057,2.13574 0,1.10049 0.32308,2.17864 0.32308,2.17864 -0.006,-0.003 -0.47768,-2.05566 0.10864,-3.12785 0.40928,-0.74844 0.56762,-0.88269 0.77625,-1.00211 0.0468,0.76658 0.13107,1.2921 0.23731,1.86412 l 0.0428,-1.98421 c 0.58478,-0.20639 0.96548,-0.18707 1.70545,-0.17298 0.18376,0.004 0.32485,0.0163 0.43887,0.0315 -0.897,0.60853 -1.28893,1.33805 -1.30231,1.99993 -0.58886,0.0785 -0.91713,0.16211 -1.19797,0.39599 -0.4048,0.33711 -0.3932,0.47539 -0.32307,0.4646 0.0702,-0.0108 0.58708,-0.14619 1.17508,-0.20014 0.11684,-0.0108 0.29154,-0.012 0.46175,-0.01 0.0206,0.0523 0.0429,0.10429 0.0686,0.1544 -0.0826,0.0267 -0.16924,0.0557 -0.25445,0.0872 -0.18338,0.0677 -0.41953,0.21666 -0.33452,0.27591 0.17802,0.12407 0.65767,0.081 0.87345,0.0972 0.0188,9.9e-4 0.0395,7.7e-4 0.06,9.9e-4 0.0554,0.0538 0.11416,0.10502 0.17727,0.15296 0.0124,0.0106 0.0401,0.0229 0.0915,0.11009 0.23394,0.39649 0.55514,0.6479 0.92921,0.8134 -0.11177,0.0279 -0.22094,0.0571 -0.32451,0.0901 -2.09635,0.66698 -3.38713,3.85244 -2.72758,6.29431 -0.014,0.1718 -0.0205,0.33088 -0.0128,0.46174 0.0431,0.73366 0.10721,1.03643 0.10721,1.03643 -0.192,0.13178 -1.56156,0.20819 -2.45883,0.12865 -0.66598,-0.059 -1.23644,-0.0974 -2.89197,-0.43172 0,0 2.58237,0.66188 5.48518,1.16937 l 0.15154,0.84915 0.0129,-0.82055 c 0.21435,0.0369 0.42968,0.074 0.64616,0.10863 1.19362,0.19134 2.38076,0.33386 3.47808,0.36454 0.12556,0.004 0.25303,0.007 0.38169,0.007 0.0247,4e-5 0.0495,9e-5 0.0743,0 0.12867,-2.7e-4 0.25614,-0.003 0.38169,-0.007 1.09732,-0.0307 2.28447,-0.1732 3.47809,-0.36454 0.21647,-0.0347 0.43181,-0.0718 0.64615,-0.10863 l 0.0129,0.82055 0.15154,-0.84915 c 2.90281,-0.50749 5.48517,-1.16937 5.48517,-1.16937 -1.65552,0.33433 -2.22599,0.37269 -2.89198,0.43172 -0.89726,0.0795 -2.26681,0.003 -2.45882,-0.12865 0,0 0.0641,-0.30277 0.10722,-1.03643 0.008,-0.13086 10e-4,-0.28994 -0.0129,-0.46174 0.65956,-2.44187 -0.63122,-5.62733 -2.72757,-6.29431 -0.10357,-0.033 -0.21275,-0.0622 -0.32451,-0.0901 0.37407,-0.1655 0.69527,-0.41691 0.9292,-0.8134 0.0514,-0.0871 0.079,-0.0996 0.0915,-0.11009 0.0631,-0.0479 0.12183,-0.0992 0.17725,-0.15296 0.0206,-6.5e-4 0.0412,-1e-5 0.06,-9.9e-4 0.21579,-0.0161 0.69544,0.0268 0.87345,-0.0972 0.085,-0.0593 -0.15113,-0.2082 -0.33451,-0.27591 -0.0852,-0.0315 -0.17187,-0.0605 -0.25446,-0.0872 0.0258,-0.0501 0.048,-0.10208 0.0686,-0.1544 0.17021,-0.002 0.34491,-7e-4 0.46174,0.01 0.58801,0.0539 1.10497,0.18935 1.17509,0.20014 0.0702,0.0108 0.0817,-0.12749 -0.32307,-0.4646 -0.28085,-0.23388 -0.60911,-0.31749 -1.19797,-0.39599 -0.0134,-0.66188 -0.40532,-1.3914 -1.30232,-1.99993 0.11401,-0.0152 0.25511,-0.0279 0.43888,-0.0315 0.73996,-0.014 1.12065,-0.0334 1.70545,0.17298 l 0.0429,1.98421 c 0.10624,-0.57202 0.19042,-1.09754 0.23731,-1.86412 0.20863,0.11942 0.36697,0.25367 0.77624,1.00211 0.58633,1.07219 0.11473,3.12481 0.10865,3.12785 0,0 0.32307,-1.07815 0.32307,-2.17864 0,-1.10048 -0.84056,-2.13574 -0.84056,-2.13574 0,0 1.58268,0.36051 3.27938,2.30873 1.79508,2.06118 1.67771,3.63342 1.38094,4.70321 -0.13827,0.49841 -0.53758,0.62401 -0.2902,0.93635 0.25735,0.32493 0.63909,0.55079 0.82914,0.0129 0.26392,-0.74699 0.22017,-4.62198 -2.50314,-7.16346 -1.43045,-1.33495 -3.50494,-1.92677 -5.39512,-1.93418 -0.86632,-0.003 -1.6928,0.11604 -2.40164,0.3431 -0.70883,-0.22706 -1.53531,-0.3465 -2.40164,-0.3431 z m 0.12008,1.06359 c 0.26711,0.0387 0.35311,0.0944 0.35311,0.0944 l 0.006,0.37454 c 0,0 -0.86863,0.4855 -1.11219,1.50818 -0.0658,-0.006 -0.19498,-0.0134 -0.36311,-0.003 -0.0448,-0.79576 0.5349,-1.49 1.11648,-1.9742 z m 4.56312,0 c 0.58158,0.4842 1.16121,1.17844 1.11648,1.9742 -0.16813,-0.0105 -0.29736,-0.003 -0.36311,0.003 -0.24356,-1.02268 -1.11218,-1.50818 -1.11218,-1.50818 l 0.006,-0.37454 c 0,0 0.086,-0.0557 0.3531,-0.0944 z m -2.28156,0.8177 c 0.17637,0.0457 0.35447,0.10202 0.53608,0.15582 0.35699,0.10576 0.66511,0.25743 0.92206,0.43458 0.0264,0.27588 0.0604,0.60707 0.0886,0.84487 0.0143,0.12009 0.0297,0.46358 0.0444,0.89775 -0.30916,0.38514 -0.82053,0.68853 -1.59109,0.77767 -0.77055,-0.0891 -1.28192,-0.39253 -1.59109,-0.77767 0.0147,-0.43417 0.0301,-0.77766 0.0444,-0.89775 0.0282,-0.2378 0.0623,-0.56899 0.0886,-0.84487 0.25695,-0.17715 0.56508,-0.32882 0.92207,-0.43458 0.18161,-0.0538 0.35971,-0.11003 0.53607,-0.15582 z m -1.93417,1.01212 c -0.003,0.20472 -0.004,0.38622 -0.006,0.57897 -0.0377,-0.1812 -0.0466,-0.36236 -0.03,-0.53465 0.0119,-0.0147 0.0232,-0.0297 0.0358,-0.0444 z m 3.86835,0 c 0.0125,0.0146 0.0238,0.0296 0.0358,0.0443 0.0167,0.17229 0.008,0.35345 -0.03,0.53465 -0.002,-0.19275 -0.003,-0.37425 -0.006,-0.57897 z m -4.23146,0.69905 c 0.0632,0.28592 0.18977,0.51965 0.3531,0.71191 4.9e-4,0.0496 2.7e-4,0.10864 10e-4,0.13295 9.9e-4,0.0212 0.006,0.075 0.009,0.11437 -0.32649,-0.24401 -0.43757,-0.59356 -0.36311,-0.95923 z m 4.59457,0 c 0.0745,0.36567 -0.0367,0.71522 -0.36311,0.95923 0.003,-0.0393 0.008,-0.0932 0.009,-0.11437 10e-4,-0.0243 9.4e-4,-0.0833 10e-4,-0.13295 0.16332,-0.19226 0.28989,-0.42599 0.35309,-0.71191 z m -5.48804,0.12437 c 0.0323,0.001 0.0705,0.002 0.0972,0.003 7.7e-4,0.0144 0.002,0.0284 0.003,0.0429 -0.0204,0.006 -0.0387,0.0116 -0.0629,0.0185 -0.0127,-0.0218 -0.0256,-0.0428 -0.0372,-0.0643 z m 6.3815,0 c -0.0116,0.0215 -0.0245,0.0425 -0.0372,0.0643 -0.0242,-0.007 -0.0425,-0.0129 -0.0629,-0.0185 9.9e-4,-0.0145 0.002,-0.0286 0.003,-0.0429 0.0268,-10e-4 0.0649,-0.002 0.0972,-0.003 z m -4.79471,0.90204 c 0.13055,0.0953 0.27096,0.17577 0.41315,0.24588 -0.15154,-0.0392 -0.2917,-0.0824 -0.416,-0.13294 10e-4,-0.0393 0.002,-0.0743 0.003,-0.11294 z m 3.20791,0 c 10e-4,0.0386 0.002,0.0737 0.003,0.11294 -0.12429,0.0505 -0.26446,0.0938 -0.41599,0.13294 0.14218,-0.0702 0.2826,-0.15061 0.41313,-0.24588 z m -1.60395,1.13792 c 0.56304,0.0474 1.13003,0.0958 1.63969,0.2516 0.0165,0.69331 0.0286,1.28945 0.0286,1.28945 0,0 0.0595,-0.5985 0.12294,-1.23941 0.65341,0.23467 1.19493,0.67586 1.48101,1.5725 0.57517,1.80272 0.70533,5.64955 -3.21505,5.71819 -0.0193,3.2e-4 -0.038,-2.3e-4 -0.0572,0 -0.0191,-2.3e-4 -0.0379,3.2e-4 -0.0572,0 -3.92038,-0.0687 -3.79023,-3.91547 -3.21505,-5.71819 0.28607,-0.89664 0.8276,-1.33783 1.48101,-1.5725 0.0634,0.64091 0.12294,1.23941 0.12294,1.23941 0,0 0.0121,-0.59614 0.0286,-1.28945 0.50967,-0.15582 1.07666,-0.20419 1.63969,-0.2516 z m -3.27509,1.06931 c 0,0 -0.82952,2.39316 -0.27448,4.33295 0.30701,1.07295 0.98382,1.6905 1.65542,2.04712 -0.71921,-0.13207 -1.25824,-0.34025 -1.65971,-0.56181 -0.41092,-0.39006 -0.70942,-0.92315 -0.77481,-1.65399 -0.25939,-2.89902 1.05358,-4.16427 1.05358,-4.16427 z m 6.55019,0 c 0,0 1.31296,1.26525 1.05358,4.16427 -0.0654,0.73084 -0.3639,1.26393 -0.77482,1.65399 -0.40146,0.22156 -0.94049,0.42974 -1.65971,0.56181 0.67161,-0.35662 1.34841,-0.97417 1.65543,-2.04712 0.55504,-1.93979 -0.27448,-4.33295 -0.27448,-4.33295 z"
       id="path3110-4-6"
       style="display:inline;fill:#b3b3b3;fill-opacity:1;stroke:none;enable-background:new"
       inkscape:connector-curvature="0" />
  </g>
  <g
     transform="translate(-323.64028,-477.50903)"
     id="layer1-3">
    <path
       inkscape:connector-curvature="0"
       d="m 334.74127,505.69036 c -1.89018,0.007 -3.96466,0.59923 -5.39511,1.93418 -2.72331,2.54148 -2.76706,6.41647 -2.50315,7.16346 0.19006,0.53793 0.57179,0.31207 0.82914,-0.0129 0.24738,-0.31234 -0.15193,-0.43794 -0.29019,-0.93635 -0.29679,-1.06979 -0.41414,-2.64203 1.38094,-4.70321 1.6967,-1.94822 3.27938,-2.30873 3.27938,-2.30873 0,0 -0.84057,1.03526 -0.84057,2.13574 0,1.10049 0.32308,2.17864 0.32308,2.17864 -0.006,-0.003 -0.47768,-2.05566 0.10864,-3.12785 0.40928,-0.74844 0.56762,-0.88269 0.77625,-1.00211 0.0468,0.76658 0.13107,1.2921 0.23731,1.86412 l 0.0428,-1.98421 c 0.58478,-0.20639 0.96548,-0.18707 1.70545,-0.17298 0.18376,0.004 0.32485,0.0163 0.43887,0.0315 -0.897,0.60853 -1.28893,1.33805 -1.30231,1.99993 -0.58886,0.0785 -0.91713,0.16211 -1.19797,0.39599 -0.4048,0.33711 -0.3932,0.47539 -0.32307,0.4646 0.0702,-0.0108 0.58708,-0.14619 1.17508,-0.20014 0.11684,-0.0108 0.29154,-0.012 0.46175,-0.01 0.0206,0.0523 0.0429,0.10429 0.0686,0.1544 -0.0826,0.0267 -0.16924,0.0557 -0.25445,0.0872 -0.18338,0.0677 -0.41953,0.21666 -0.33452,0.27591 0.17802,0.12407 0.65767,0.081 0.87345,0.0972 0.0188,9.9e-4 0.0395,7.7e-4 0.06,9.9e-4 0.0554,0.0538 0.11416,0.10502 0.17727,0.15296 0.0124,0.0106 0.0401,0.0229 0.0915,0.11009 0.23394,0.39649 0.55514,0.6479 0.92921,0.8134 -0.11177,0.0279 -0.22094,0.0571 -0.32451,0.0901 -2.09635,0.66698 -3.38713,3.85244 -2.72758,6.29431 -0.014,0.1718 -0.0205,0.33088 -0.0128,0.46174 0.0431,0.73366 0.10721,1.03643 0.10721,1.03643 -0.192,0.13178 -1.56156,0.20819 -2.45883,0.12865 -0.66598,-0.059 -1.23644,-0.0974 -2.89197,-0.43172 0,0 2.58237,0.66188 5.48518,1.16937 l 0.15154,0.84915 0.0129,-0.82055 c 0.21435,0.0369 0.42968,0.074 0.64616,0.10863 1.19362,0.19134 2.38076,0.33386 3.47808,0.36454 0.12556,0.004 0.25303,0.007 0.38169,0.007 0.0247,4e-5 0.0495,9e-5 0.0743,0 0.12867,-2.7e-4 0.25614,-0.003 0.38169,-0.007 1.09732,-0.0307 2.28447,-0.1732 3.47809,-0.36454 0.21647,-0.0347 0.43181,-0.0718 0.64615,-0.10863 l 0.0129,0.82055 0.15154,-0.84915 c 2.90281,-0.50749 5.48517,-1.16937 5.48517,-1.16937 -1.65552,0.33433 -2.22599,0.37269 -2.89198,0.43172 -0.89726,0.0795 -2.26681,0.003 -2.45882,-0.12865 0,0 0.0641,-0.30277 0.10722,-1.03643 0.008,-0.13086 0.001,-0.28994 -0.0129,-0.46174 0.65956,-2.44187 -0.63122,-5.62733 -2.72757,-6.29431 -0.10357,-0.033 -0.21275,-0.0622 -0.32451,-0.0901 0.37407,-0.1655 0.69527,-0.41691 0.9292,-0.8134 0.0514,-0.0871 0.079,-0.0996 0.0915,-0.11009 0.0631,-0.0479 0.12183,-0.0992 0.17725,-0.15296 0.0206,-6.5e-4 0.0412,-10e-6 0.06,-9.9e-4 0.21579,-0.0161 0.69544,0.0268 0.87345,-0.0972 0.085,-0.0593 -0.15113,-0.2082 -0.33451,-0.27591 -0.0852,-0.0315 -0.17187,-0.0605 -0.25446,-0.0872 0.0258,-0.0501 0.048,-0.10208 0.0686,-0.1544 0.17021,-0.002 0.34491,-7e-4 0.46174,0.01 0.58801,0.0539 1.10497,0.18935 1.17509,0.20014 0.0702,0.0108 0.0817,-0.12749 -0.32307,-0.4646 -0.28085,-0.23388 -0.60911,-0.31749 -1.19797,-0.39599 -0.0134,-0.66188 -0.40532,-1.3914 -1.30232,-1.99993 0.11401,-0.0152 0.25511,-0.0279 0.43888,-0.0315 0.73996,-0.014 1.12065,-0.0334 1.70545,0.17298 l 0.0429,1.98421 c 0.10624,-0.57202 0.19042,-1.09754 0.23731,-1.86412 0.20863,0.11942 0.36697,0.25367 0.77624,1.00211 0.58633,1.07219 0.11473,3.12481 0.10865,3.12785 0,0 0.32307,-1.07815 0.32307,-2.17864 0,-1.10048 -0.84056,-2.13574 -0.84056,-2.13574 0,0 1.58268,0.36051 3.27938,2.30873 1.79508,2.06118 1.67771,3.63342 1.38094,4.70321 -0.13827,0.49841 -0.53758,0.62401 -0.2902,0.93635 0.25735,0.32493 0.63909,0.55079 0.82914,0.0129 0.26392,-0.74699 0.22017,-4.62198 -2.50314,-7.16346 -1.43045,-1.33495 -3.50494,-1.92677 -5.39512,-1.93418 -0.86632,-0.003 -1.6928,0.11604 -2.40164,0.3431 -0.70883,-0.22706 -1.53531,-0.3465 -2.40164,-0.3431 z m 0.12008,1.06359 c 0.26711,0.0387 0.35311,0.0944 0.35311,0.0944 l 0.006,0.37454 c 0,0 -0.86863,0.4855 -1.11219,1.50818 -0.0658,-0.006 -0.19498,-0.0134 -0.36311,-0.003 -0.0448,-0.79576 0.5349,-1.49 1.11648,-1.9742 z m 4.56312,0 c 0.58158,0.4842 1.16121,1.17844 1.11648,1.9742 -0.16813,-0.0105 -0.29736,-0.003 -0.36311,0.003 -0.24356,-1.02268 -1.11218,-1.50818 -1.11218,-1.50818 l 0.006,-0.37454 c 0,0 0.086,-0.0557 0.3531,-0.0944 z m -2.28156,0.8177 c 0.17637,0.0457 0.35447,0.10202 0.53608,0.15582 0.35699,0.10576 0.66511,0.25743 0.92206,0.43458 0.0264,0.27588 0.0604,0.60707 0.0886,0.84487 0.0143,0.12009 0.0297,0.46358 0.0444,0.89775 -0.30916,0.38514 -0.82053,0.68853 -1.59109,0.77767 -0.77055,-0.0891 -1.28192,-0.39253 -1.59109,-0.77767 0.0147,-0.43417 0.0301,-0.77766 0.0444,-0.89775 0.0282,-0.2378 0.0623,-0.56899 0.0886,-0.84487 0.25695,-0.17715 0.56508,-0.32882 0.92207,-0.43458 0.18161,-0.0538 0.35971,-0.11003 0.53607,-0.15582 z m -1.93417,1.01212 c -0.003,0.20472 -0.004,0.38622 -0.006,0.57897 -0.0377,-0.1812 -0.0466,-0.36236 -0.03,-0.53465 0.0119,-0.0147 0.0232,-0.0297 0.0358,-0.0444 z m 3.86835,0 c 0.0125,0.0146 0.0238,0.0296 0.0358,0.0443 0.0167,0.17229 0.008,0.35345 -0.03,0.53465 -0.002,-0.19275 -0.003,-0.37425 -0.006,-0.57897 z m -4.23146,0.69905 c 0.0632,0.28592 0.18977,0.51965 0.3531,0.71191 4.9e-4,0.0496 2.7e-4,0.10864 10e-4,0.13295 9.9e-4,0.0212 0.006,0.075 0.009,0.11437 -0.32649,-0.24401 -0.43757,-0.59356 -0.36311,-0.95923 z m 4.59457,0 c 0.0745,0.36567 -0.0367,0.71522 -0.36311,0.95923 0.003,-0.0393 0.008,-0.0932 0.009,-0.11437 10e-4,-0.0243 9.4e-4,-0.0833 10e-4,-0.13295 0.16332,-0.19226 0.28989,-0.42599 0.35309,-0.71191 z m -5.48804,0.12437 c 0.0323,10e-4 0.0705,0.002 0.0972,0.003 7.7e-4,0.0144 0.002,0.0284 0.003,0.0429 -0.0204,0.006 -0.0387,0.0116 -0.0629,0.0185 -0.0127,-0.0218 -0.0256,-0.0428 -0.0372,-0.0643 z m 6.3815,0 c -0.0116,0.0215 -0.0245,0.0425 -0.0372,0.0643 -0.0242,-0.007 -0.0425,-0.0129 -0.0629,-0.0185 9.9e-4,-0.0145 0.002,-0.0286 0.003,-0.0429 0.0268,-0.001 0.0649,-0.002 0.0972,-0.003 z m -4.79471,0.90204 c 0.13055,0.0953 0.27096,0.17577 0.41315,0.24588 -0.15154,-0.0392 -0.2917,-0.0824 -0.416,-0.13294 0.001,-0.0393 0.002,-0.0743 0.003,-0.11294 z m 3.20791,0 c 10e-4,0.0386 0.002,0.0737 0.003,0.11294 -0.12429,0.0505 -0.26446,0.0938 -0.41599,0.13294 0.14218,-0.0702 0.2826,-0.15061 0.41313,-0.24588 z m -1.60395,1.13792 c 0.56304,0.0474 1.13003,0.0958 1.63969,0.2516 0.0165,0.69331 0.0286,1.28945 0.0286,1.28945 0,0 0.0595,-0.5985 0.12294,-1.23941 0.65341,0.23467 1.19493,0.67586 1.48101,1.5725 0.57517,1.80272 0.70533,5.64955 -3.21505,5.71819 -0.0193,3.2e-4 -0.038,-2.3e-4 -0.0572,0 -0.0191,-2.3e-4 -0.0379,3.2e-4 -0.0572,0 -3.92038,-0.0687 -3.79023,-3.91547 -3.21505,-5.71819 0.28607,-0.89664 0.8276,-1.33783 1.48101,-1.5725 0.0634,0.64091 0.12294,1.23941 0.12294,1.23941 0,0 0.0121,-0.59614 0.0286,-1.28945 0.50967,-0.15582 1.07666,-0.20419 1.63969,-0.2516 z m -3.27509,1.06931 c 0,0 -0.82952,2.39316 -0.27448,4.33295 0.30701,1.07295 0.98382,1.6905 1.65542,2.04712 -0.71921,-0.13207 -1.25824,-0.34025 -1.65971,-0.56181 -0.41092,-0.39006 -0.70942,-0.92315 -0.77481,-1.65399 -0.25939,-2.89902 1.05358,-4.16427 1.05358,-4.16427 z m 6.55019,0 c 0,0 1.31296,1.26525 1.05358,4.16427 -0.0654,0.73084 -0.3639,1.26393 -0.77482,1.65399 -0.40146,0.22156 -0.94049,0.42974 -1.65971,0.56181 0.67161,-0.35662 1.34841,-0.97417 1.65543,-2.04712 0.55504,-1.93979 -0.27448,-4.33295 -0.27448,-4.33295 z"
       id="path3110-4-6-5-3-2-1"
       style="display:inline;opacity:0.48214291;fill:#000000;fill-opacity:1;stroke:#1a1a1a;filter:url(#filter4166-4);enable-background:new" />
    <path
       inkscape:connector-curvature="0"
       d="m 334.49127,503.5404 c -1.89018,0.007 -3.96466,0.59923 -5.39511,1.93418 -2.72331,2.54148 -2.76706,6.41647 -2.50315,7.16346 0.19006,0.53793 0.57179,0.31207 0.82914,-0.0129 0.24738,-0.31234 -0.15193,-0.43794 -0.29019,-0.93635 -0.29679,-1.06979 -0.41414,-2.64203 1.38094,-4.70321 1.6967,-1.94822 3.27938,-2.30873 3.27938,-2.30873 0,0 -0.84057,1.03526 -0.84057,2.13574 0,1.10049 0.32308,2.17864 0.32308,2.17864 -0.006,-0.003 -0.47768,-2.05566 0.10864,-3.12785 0.40928,-0.74844 0.56762,-0.88269 0.77625,-1.00211 0.0468,0.76658 0.13107,1.2921 0.23731,1.86412 l 0.0428,-1.98421 c 0.58478,-0.20639 0.96548,-0.18707 1.70545,-0.17298 0.18376,0.004 0.32485,0.0163 0.43887,0.0315 -0.897,0.60853 -1.28893,1.33805 -1.30231,1.99993 -0.58886,0.0785 -0.91713,0.16211 -1.19797,0.39599 -0.4048,0.33711 -0.3932,0.47539 -0.32307,0.4646 0.0702,-0.0108 0.58708,-0.14619 1.17508,-0.20014 0.11684,-0.0108 0.29154,-0.012 0.46175,-0.01 0.0206,0.0523 0.0429,0.10429 0.0686,0.1544 -0.0826,0.0267 -0.16924,0.0557 -0.25445,0.0872 -0.18338,0.0677 -0.41953,0.21666 -0.33452,0.27591 0.17802,0.12407 0.65767,0.081 0.87345,0.0972 0.0188,9.9e-4 0.0395,7.7e-4 0.06,9.9e-4 0.0554,0.0538 0.11416,0.10502 0.17727,0.15296 0.0124,0.0106 0.0401,0.0229 0.0915,0.11009 0.23394,0.39649 0.55514,0.6479 0.92921,0.8134 -0.11177,0.0279 -0.22094,0.0571 -0.32451,0.0901 -2.09635,0.66698 -3.38713,3.85244 -2.72758,6.29431 -0.014,0.1718 -0.0205,0.33088 -0.0128,0.46174 0.0431,0.73366 0.10721,1.03643 0.10721,1.03643 -0.192,0.13178 -1.56156,0.20819 -2.45883,0.12865 -0.66598,-0.059 -1.23644,-0.0974 -2.89197,-0.43172 0,0 2.58237,0.66188 5.48518,1.16937 l 0.15154,0.84915 0.0129,-0.82055 c 0.21435,0.0369 0.42968,0.074 0.64616,0.10863 1.19362,0.19134 2.38076,0.33386 3.47808,0.36454 0.12556,0.004 0.25303,0.007 0.38169,0.007 0.0247,4e-5 0.0495,9e-5 0.0743,0 0.12867,-2.7e-4 0.25614,-0.003 0.38169,-0.007 1.09732,-0.0307 2.28447,-0.1732 3.47809,-0.36454 0.21647,-0.0347 0.43181,-0.0718 0.64615,-0.10863 l 0.0129,0.82055 0.15154,-0.84915 c 2.90281,-0.50749 5.48517,-1.16937 5.48517,-1.16937 -1.65552,0.33433 -2.22599,0.37269 -2.89198,0.43172 -0.89726,0.0795 -2.26681,0.003 -2.45882,-0.12865 0,0 0.0641,-0.30277 0.10722,-1.03643 0.008,-0.13086 0.001,-0.28994 -0.0129,-0.46174 0.65956,-2.44187 -0.63122,-5.62733 -2.72757,-6.29431 -0.10357,-0.033 -0.21275,-0.0622 -0.32451,-0.0901 0.37407,-0.1655 0.69527,-0.41691 0.9292,-0.8134 0.0514,-0.0871 0.079,-0.0996 0.0915,-0.11009 0.0631,-0.0479 0.12183,-0.0992 0.17725,-0.15296 0.0206,-6.5e-4 0.0412,-10e-6 0.06,-9.9e-4 0.21579,-0.0161 0.69544,0.0268 0.87345,-0.0972 0.085,-0.0593 -0.15113,-0.2082 -0.33451,-0.27591 -0.0852,-0.0315 -0.17187,-0.0605 -0.25446,-0.0872 0.0258,-0.0501 0.048,-0.10208 0.0686,-0.1544 0.17021,-0.002 0.34491,-7e-4 0.46174,0.01 0.58801,0.0539 1.10497,0.18935 1.17509,0.20014 0.0702,0.0108 0.0817,-0.12749 -0.32307,-0.4646 -0.28085,-0.23388 -0.60911,-0.31749 -1.19797,-0.39599 -0.0134,-0.66188 -0.40532,-1.3914 -1.30232,-1.99993 0.11401,-0.0152 0.25511,-0.0279 0.43888,-0.0315 0.73996,-0.014 1.12065,-0.0334 1.70545,0.17298 l 0.0429,1.98421 c 0.10624,-0.57202 0.19042,-1.09754 0.23731,-1.86412 0.20863,0.11942 0.36697,0.25367 0.77624,1.00211 0.58633,1.07219 0.11473,3.12481 0.10865,3.12785 0,0 0.32307,-1.07815 0.32307,-2.17864 0,-1.10048 -0.84056,-2.13574 -0.84056,-2.13574 0,0 1.58268,0.36051 3.27938,2.30873 1.79508,2.06118 1.67771,3.63342 1.38094,4.70321 -0.13827,0.49841 -0.53758,0.62401 -0.2902,0.93635 0.25735,0.32493 0.63909,0.55079 0.82914,0.0129 0.26392,-0.74699 0.22017,-4.62198 -2.50314,-7.16346 -1.43045,-1.33495 -3.50494,-1.92677 -5.39512,-1.93418 -0.86632,-0.003 -1.6928,0.11604 -2.40164,0.3431 -0.70883,-0.22706 -1.53531,-0.3465 -2.40164,-0.3431 z m 0.12008,1.06359 c 0.26711,0.0387 0.35311,0.0944 0.35311,0.0944 l 0.006,0.37454 c 0,0 -0.86863,0.4855 -1.11219,1.50818 -0.0658,-0.006 -0.19498,-0.0134 -0.36311,-0.003 -0.0448,-0.79576 0.5349,-1.49 1.11648,-1.9742 z m 4.56312,0 c 0.58158,0.4842 1.16121,1.17844 1.11648,1.9742 -0.16813,-0.0105 -0.29736,-0.003 -0.36311,0.003 -0.24356,-1.02268 -1.11218,-1.50818 -1.11218,-1.50818 l 0.006,-0.37454 c 0,0 0.086,-0.0557 0.3531,-0.0944 z m -2.28156,0.8177 c 0.17637,0.0457 0.35447,0.10202 0.53608,0.15582 0.35699,0.10576 0.66511,0.25743 0.92206,0.43458 0.0264,0.27588 0.0604,0.60707 0.0886,0.84487 0.0143,0.12009 0.0297,0.46358 0.0444,0.89775 -0.30916,0.38514 -0.82053,0.68853 -1.59109,0.77767 -0.77055,-0.0891 -1.28192,-0.39253 -1.59109,-0.77767 0.0147,-0.43417 0.0301,-0.77766 0.0444,-0.89775 0.0282,-0.2378 0.0623,-0.56899 0.0886,-0.84487 0.25695,-0.17715 0.56508,-0.32882 0.92207,-0.43458 0.18161,-0.0538 0.35971,-0.11003 0.53607,-0.15582 z m -1.93417,1.01212 c -0.003,0.20472 -0.004,0.38622 -0.006,0.57897 -0.0377,-0.1812 -0.0466,-0.36236 -0.03,-0.53465 0.0119,-0.0147 0.0232,-0.0297 0.0358,-0.0444 z m 3.86835,0 c 0.0125,0.0146 0.0238,0.0296 0.0358,0.0443 0.0167,0.17229 0.008,0.35345 -0.03,0.53465 -0.002,-0.19275 -0.003,-0.37425 -0.006,-0.57897 z m -4.23146,0.69905 c 0.0632,0.28592 0.18977,0.51965 0.3531,0.71191 4.9e-4,0.0496 2.7e-4,0.10864 10e-4,0.13295 9.9e-4,0.0212 0.006,0.075 0.009,0.11437 -0.32649,-0.24401 -0.43757,-0.59356 -0.36311,-0.95923 z m 4.59457,0 c 0.0745,0.36567 -0.0367,0.71522 -0.36311,0.95923 0.003,-0.0393 0.008,-0.0932 0.009,-0.11437 10e-4,-0.0243 9.4e-4,-0.0833 10e-4,-0.13295 0.16332,-0.19226 0.28989,-0.42599 0.35309,-0.71191 z m -5.48804,0.12437 c 0.0323,0.001 0.0705,0.002 0.0972,0.003 7.7e-4,0.0144 0.002,0.0284 0.003,0.0429 -0.0204,0.006 -0.0387,0.0116 -0.0629,0.0185 -0.0127,-0.0218 -0.0256,-0.0428 -0.0372,-0.0643 z m 6.3815,0 c -0.0116,0.0215 -0.0245,0.0425 -0.0372,0.0643 -0.0242,-0.007 -0.0425,-0.0129 -0.0629,-0.0185 9.9e-4,-0.0145 0.002,-0.0286 0.003,-0.0429 0.0268,-10e-4 0.0649,-0.002 0.0972,-0.003 z m -4.79471,0.90204 c 0.13055,0.0953 0.27096,0.17577 0.41315,0.24588 -0.15154,-0.0392 -0.2917,-0.0824 -0.416,-0.13294 0.001,-0.0393 0.002,-0.0743 0.003,-0.11294 z m 3.20791,0 c 10e-4,0.0386 0.002,0.0737 0.003,0.11294 -0.12429,0.0505 -0.26446,0.0938 -0.41599,0.13294 0.14218,-0.0702 0.2826,-0.15061 0.41313,-0.24588 z m -1.60395,1.13792 c 0.56304,0.0474 1.13003,0.0958 1.63969,0.2516 0.0165,0.69331 0.0286,1.28945 0.0286,1.28945 0,0 0.0595,-0.5985 0.12294,-1.23941 0.65341,0.23467 1.19493,0.67586 1.48101,1.5725 0.57517,1.80272 0.70533,5.64955 -3.21505,5.71819 -0.0193,3.2e-4 -0.038,-2.3e-4 -0.0572,0 -0.0191,-2.3e-4 -0.0379,3.2e-4 -0.0572,0 -3.92038,-0.0687 -3.79023,-3.91547 -3.21505,-5.71819 0.28607,-0.89664 0.8276,-1.33783 1.48101,-1.5725 0.0634,0.64091 0.12294,1.23941 0.12294,1.23941 0,0 0.0121,-0.59614 0.0286,-1.28945 0.50967,-0.15582 1.07666,-0.20419 1.63969,-0.2516 z m -3.27509,1.06931 c 0,0 -0.82952,2.39316 -0.27448,4.33295 0.30701,1.07295 0.98382,1.6905 1.65542,2.04712 -0.71921,-0.13207 -1.25824,-0.34025 -1.65971,-0.56181 -0.41092,-0.39006 -0.70942,-0.92315 -0.77481,-1.65399 -0.25939,-2.89902 1.05358,-4.16427 1.05358,-4.16427 z m 6.55019,0 c 0,0 1.31296,1.26525 1.05358,4.16427 -0.0654,0.73084 -0.3639,1.26393 -0.77482,1.65399 -0.40146,0.22156 -0.94049,0.42974 -1.65971,0.56181 0.67161,-0.35662 1.34841,-0.97417 1.65543,-2.04712 0.55504,-1.93979 -0.27448,-4.33295 -0.27448,-4.33295 z"
       id="path3110-4-6-5-33"
       style="display:inline;fill:#ffffff;fill-opacity:1;stroke:none;enable-background:new" />
    <path
       inkscape:connector-curvature="0"
       d="m 334.74127,501.8154 c -1.89018,0.007 -3.96466,0.59923 -5.39511,1.93418 -2.72331,2.54148 -2.76706,6.41647 -2.50315,7.16346 0.19006,0.53793 0.57179,0.31207 0.82914,-0.0129 0.24738,-0.31234 -0.15193,-0.43794 -0.29019,-0.93635 -0.29679,-1.06979 -0.41414,-2.64203 1.38094,-4.70321 1.6967,-1.94822 3.27938,-2.30873 3.27938,-2.30873 0,0 -0.84057,1.03526 -0.84057,2.13574 0,1.10049 0.32308,2.17864 0.32308,2.17864 -0.006,-0.003 -0.47768,-2.05566 0.10864,-3.12785 0.40928,-0.74844 0.56762,-0.88269 0.77625,-1.00211 0.0468,0.76658 0.13107,1.2921 0.23731,1.86412 l 0.0428,-1.98421 c 0.58478,-0.20639 0.96548,-0.18707 1.70545,-0.17298 0.18376,0.004 0.32485,0.0163 0.43887,0.0315 -0.897,0.60853 -1.28893,1.33805 -1.30231,1.99993 -0.58886,0.0785 -0.91713,0.16211 -1.19797,0.39599 -0.4048,0.33711 -0.3932,0.47539 -0.32307,0.4646 0.0702,-0.0108 0.58708,-0.14619 1.17508,-0.20014 0.11684,-0.0108 0.29154,-0.012 0.46175,-0.01 0.0206,0.0523 0.0429,0.10429 0.0686,0.1544 -0.0826,0.0267 -0.16924,0.0557 -0.25445,0.0872 -0.18338,0.0677 -0.41953,0.21666 -0.33452,0.27591 0.17802,0.12407 0.65767,0.081 0.87345,0.0972 0.0188,9.9e-4 0.0395,7.7e-4 0.06,9.9e-4 0.0554,0.0538 0.11416,0.10502 0.17727,0.15296 0.0124,0.0106 0.0401,0.0229 0.0915,0.11009 0.23394,0.39649 0.55514,0.6479 0.92921,0.8134 -0.11177,0.0279 -0.22094,0.0571 -0.32451,0.0901 -2.09635,0.66698 -3.38713,3.85244 -2.72758,6.29431 -0.014,0.1718 -0.0205,0.33088 -0.0128,0.46174 0.0431,0.73366 0.10721,1.03643 0.10721,1.03643 -0.192,0.13178 -1.56156,0.20819 -2.45883,0.12865 -0.66598,-0.059 -1.23644,-0.0974 -2.89197,-0.43172 0,0 2.58237,0.66188 5.48518,1.16937 l 0.15154,0.84915 0.0129,-0.82055 c 0.21435,0.0369 0.42968,0.074 0.64616,0.10863 1.19362,0.19134 2.38076,0.33386 3.47808,0.36454 0.12556,0.004 0.25303,0.007 0.38169,0.007 0.0247,4e-5 0.0495,9e-5 0.0743,0 0.12867,-2.7e-4 0.25614,-0.003 0.38169,-0.007 1.09732,-0.0307 2.28447,-0.1732 3.47809,-0.36454 0.21647,-0.0347 0.43181,-0.0718 0.64615,-0.10863 l 0.0129,0.82055 0.15154,-0.84915 c 2.90281,-0.50749 5.48517,-1.16937 5.48517,-1.16937 -1.65552,0.33433 -2.22599,0.37269 -2.89198,0.43172 -0.89726,0.0795 -2.26681,0.003 -2.45882,-0.12865 0,0 0.0641,-0.30277 0.10722,-1.03643 0.008,-0.13086 0.001,-0.28994 -0.0129,-0.46174 0.65956,-2.44187 -0.63122,-5.62733 -2.72757,-6.29431 -0.10357,-0.033 -0.21275,-0.0622 -0.32451,-0.0901 0.37407,-0.1655 0.69527,-0.41691 0.9292,-0.8134 0.0514,-0.0871 0.079,-0.0996 0.0915,-0.11009 0.0631,-0.0479 0.12183,-0.0992 0.17725,-0.15296 0.0206,-6.5e-4 0.0412,-1e-5 0.06,-9.9e-4 0.21579,-0.0161 0.69544,0.0268 0.87345,-0.0972 0.085,-0.0593 -0.15113,-0.2082 -0.33451,-0.27591 -0.0852,-0.0315 -0.17187,-0.0605 -0.25446,-0.0872 0.0258,-0.0501 0.048,-0.10208 0.0686,-0.1544 0.17021,-0.002 0.34491,-7e-4 0.46174,0.01 0.58801,0.0539 1.10497,0.18935 1.17509,0.20014 0.0702,0.0108 0.0817,-0.12749 -0.32307,-0.4646 -0.28085,-0.23388 -0.60911,-0.31749 -1.19797,-0.39599 -0.0134,-0.66188 -0.40532,-1.3914 -1.30232,-1.99993 0.11401,-0.0152 0.25511,-0.0279 0.43888,-0.0315 0.73996,-0.014 1.12065,-0.0334 1.70545,0.17298 l 0.0429,1.98421 c 0.10624,-0.57202 0.19042,-1.09754 0.23731,-1.86412 0.20863,0.11942 0.36697,0.25367 0.77624,1.00211 0.58633,1.07219 0.11473,3.12481 0.10865,3.12785 0,0 0.32307,-1.07815 0.32307,-2.17864 0,-1.10048 -0.84056,-2.13574 -0.84056,-2.13574 0,0 1.58268,0.36051 3.27938,2.30873 1.79508,2.06118 1.67771,3.63342 1.38094,4.70321 -0.13827,0.49841 -0.53758,0.62401 -0.2902,0.93635 0.25735,0.32493 0.63909,0.55079 0.82914,0.0129 0.26392,-0.74699 0.22017,-4.62198 -2.50314,-7.16346 -1.43045,-1.33495 -3.50494,-1.92677 -5.39512,-1.93418 -0.86632,-0.003 -1.6928,0.11604 -2.40164,0.3431 -0.70883,-0.22706 -1.53531,-0.3465 -2.40164,-0.3431 z m 0.12008,1.06359 c 0.26711,0.0387 0.35311,0.0944 0.35311,0.0944 l 0.006,0.37454 c 0,0 -0.86863,0.4855 -1.11219,1.50818 -0.0658,-0.006 -0.19498,-0.0134 -0.36311,-0.003 -0.0448,-0.79576 0.5349,-1.49 1.11648,-1.9742 z m 4.56312,0 c 0.58158,0.4842 1.16121,1.17844 1.11648,1.9742 -0.16813,-0.0105 -0.29736,-0.003 -0.36311,0.003 -0.24356,-1.02268 -1.11218,-1.50818 -1.11218,-1.50818 l 0.006,-0.37454 c 0,0 0.086,-0.0557 0.3531,-0.0944 z m -2.28156,0.8177 c 0.17637,0.0457 0.35447,0.10202 0.53608,0.15582 0.35699,0.10576 0.66511,0.25743 0.92206,0.43458 0.0264,0.27588 0.0604,0.60707 0.0886,0.84487 0.0143,0.12009 0.0297,0.46358 0.0444,0.89775 -0.30916,0.38514 -0.82053,0.68853 -1.59109,0.77767 -0.77055,-0.0891 -1.28192,-0.39253 -1.59109,-0.77767 0.0147,-0.43417 0.0301,-0.77766 0.0444,-0.89775 0.0282,-0.2378 0.0623,-0.56899 0.0886,-0.84487 0.25695,-0.17715 0.56508,-0.32882 0.92207,-0.43458 0.18161,-0.0538 0.35971,-0.11003 0.53607,-0.15582 z m -1.93417,1.01212 c -0.003,0.20472 -0.004,0.38622 -0.006,0.57897 -0.0377,-0.1812 -0.0466,-0.36236 -0.03,-0.53465 0.0119,-0.0147 0.0232,-0.0297 0.0358,-0.0444 z m 3.86835,0 c 0.0125,0.0146 0.0238,0.0296 0.0358,0.0443 0.0167,0.17229 0.008,0.35345 -0.03,0.53465 -0.002,-0.19275 -0.003,-0.37425 -0.006,-0.57897 z m -4.23146,0.69905 c 0.0632,0.28592 0.18977,0.51965 0.3531,0.71191 4.9e-4,0.0496 2.7e-4,0.10864 10e-4,0.13295 9.9e-4,0.0212 0.006,0.075 0.009,0.11437 -0.32649,-0.24401 -0.43757,-0.59356 -0.36311,-0.95923 z m 4.59457,0 c 0.0745,0.36567 -0.0367,0.71522 -0.36311,0.95923 0.003,-0.0393 0.008,-0.0932 0.009,-0.11437 10e-4,-0.0243 9.4e-4,-0.0833 10e-4,-0.13295 0.16332,-0.19226 0.28989,-0.42599 0.35309,-0.71191 z m -5.48804,0.12437 c 0.0323,10e-4 0.0705,0.002 0.0972,0.003 7.7e-4,0.0144 0.002,0.0284 0.003,0.0429 -0.0204,0.006 -0.0387,0.0116 -0.0629,0.0185 -0.0127,-0.0218 -0.0256,-0.0428 -0.0372,-0.0643 z m 6.3815,0 c -0.0116,0.0215 -0.0245,0.0425 -0.0372,0.0643 -0.0242,-0.007 -0.0425,-0.0129 -0.0629,-0.0185 9.9e-4,-0.0145 0.002,-0.0286 0.003,-0.0429 0.0268,-10e-4 0.0649,-0.002 0.0972,-0.003 z m -4.79471,0.90204 c 0.13055,0.0953 0.27096,0.17577 0.41315,0.24588 -0.15154,-0.0392 -0.2917,-0.0824 -0.416,-0.13294 0.001,-0.0393 0.002,-0.0743 0.003,-0.11294 z m 3.20791,0 c 10e-4,0.0386 0.002,0.0737 0.003,0.11294 -0.12429,0.0505 -0.26446,0.0938 -0.41599,0.13294 0.14218,-0.0702 0.2826,-0.15061 0.41313,-0.24588 z m -1.60395,1.13792 c 0.56304,0.0474 1.13003,0.0958 1.63969,0.2516 0.0165,0.69331 0.0286,1.28945 0.0286,1.28945 0,0 0.0595,-0.5985 0.12294,-1.23941 0.65341,0.23467 1.19493,0.67586 1.48101,1.5725 0.57517,1.80272 0.70533,5.64955 -3.21505,5.71819 -0.0193,3.2e-4 -0.038,-2.3e-4 -0.0572,0 -0.0191,-2.3e-4 -0.0379,3.2e-4 -0.0572,0 -3.92038,-0.0687 -3.79023,-3.91547 -3.21505,-5.71819 0.28607,-0.89664 0.8276,-1.33783 1.48101,-1.5725 0.0634,0.64091 0.12294,1.23941 0.12294,1.23941 0,0 0.0121,-0.59614 0.0286,-1.28945 0.50967,-0.15582 1.07666,-0.20419 1.63969,-0.2516 z m -3.27509,1.06931 c 0,0 -0.82952,2.39316 -0.27448,4.33295 0.30701,1.07295 0.98382,1.6905 1.65542,2.04712 -0.71921,-0.13207 -1.25824,-0.34025 -1.65971,-0.56181 -0.41092,-0.39006 -0.70942,-0.92315 -0.77481,-1.65399 -0.25939,-2.89902 1.05358,-4.16427 1.05358,-4.16427 z m 6.55019,0 c 0,0 1.31296,1.26525 1.05358,4.16427 -0.0654,0.73084 -0.3639,1.26393 -0.77482,1.65399 -0.40146,0.22156 -0.94049,0.42974 -1.65971,0.56181 0.67161,-0.35662 1.34841,-0.97417 1.65543,-2.04712 0.55504,-1.93979 -0.27448,-4.33295 -0.27448,-4.33295 z"
       id="path3110-4-6-5-3-3"
       style="display:inline;fill:#000000;fill-opacity:1;stroke:none;enable-background:new" />
    <path
       inkscape:connector-curvature="0"
       d="m 334.60666,502.88634 c -1.89018,0.007 -3.96466,0.59923 -5.39511,1.93418 -2.72331,2.54148 -2.76706,6.41647 -2.50315,7.16346 0.19006,0.53793 0.57179,0.31207 0.82914,-0.0129 0.24738,-0.31234 -0.15193,-0.43794 -0.29019,-0.93635 -0.29679,-1.06979 -0.41414,-2.64203 1.38094,-4.70321 1.6967,-1.94822 3.27938,-2.30873 3.27938,-2.30873 0,0 -0.84057,1.03526 -0.84057,2.13574 0,1.10049 0.32308,2.17864 0.32308,2.17864 -0.006,-0.003 -0.47768,-2.05566 0.10864,-3.12785 0.40928,-0.74844 0.56762,-0.88269 0.77625,-1.00211 0.0468,0.76658 0.13107,1.2921 0.23731,1.86412 l 0.0428,-1.98421 c 0.58478,-0.20639 0.96548,-0.18707 1.70545,-0.17298 0.18376,0.004 0.32485,0.0163 0.43887,0.0315 -0.897,0.60853 -1.28893,1.33805 -1.30231,1.99993 -0.58886,0.0785 -0.91713,0.16211 -1.19797,0.39599 -0.4048,0.33711 -0.3932,0.47539 -0.32307,0.4646 0.0702,-0.0108 0.58708,-0.14619 1.17508,-0.20014 0.11684,-0.0108 0.29154,-0.012 0.46175,-0.01 0.0206,0.0523 0.0429,0.10429 0.0686,0.1544 -0.0826,0.0267 -0.16924,0.0557 -0.25445,0.0872 -0.18338,0.0677 -0.41953,0.21666 -0.33452,0.27591 0.17802,0.12407 0.65767,0.081 0.87345,0.0972 0.0188,9.9e-4 0.0395,7.7e-4 0.06,9.9e-4 0.0554,0.0538 0.11416,0.10502 0.17727,0.15296 0.0124,0.0106 0.0401,0.0229 0.0915,0.11009 0.23394,0.39649 0.55514,0.6479 0.92921,0.8134 -0.11177,0.0279 -0.22094,0.0571 -0.32451,0.0901 -2.09635,0.66698 -3.38713,3.85244 -2.72758,6.29431 -0.014,0.1718 -0.0205,0.33088 -0.0128,0.46174 0.0431,0.73366 0.10721,1.03643 0.10721,1.03643 -0.192,0.13178 -1.56156,0.20819 -2.45883,0.12865 -0.66598,-0.059 -1.23644,-0.0974 -2.89197,-0.43172 0,0 2.58237,0.66188 5.48518,1.16937 l 0.15154,0.84915 0.0129,-0.82055 c 0.21435,0.0369 0.42968,0.074 0.64616,0.10863 1.19362,0.19134 2.38076,0.33386 3.47808,0.36454 0.12556,0.004 0.25303,0.007 0.38169,0.007 0.0247,4e-5 0.0495,9e-5 0.0743,0 0.12867,-2.7e-4 0.25614,-0.003 0.38169,-0.007 1.09732,-0.0307 2.28447,-0.1732 3.47809,-0.36454 0.21647,-0.0347 0.43181,-0.0718 0.64615,-0.10863 l 0.0129,0.82055 0.15154,-0.84915 c 2.90281,-0.50749 5.48517,-1.16937 5.48517,-1.16937 -1.65552,0.33433 -2.22599,0.37269 -2.89198,0.43172 -0.89726,0.0795 -2.26681,0.003 -2.45882,-0.12865 0,0 0.0641,-0.30277 0.10722,-1.03643 0.008,-0.13086 10e-4,-0.28994 -0.0129,-0.46174 0.65956,-2.44187 -0.63122,-5.62733 -2.72757,-6.29431 -0.10357,-0.033 -0.21275,-0.0622 -0.32451,-0.0901 0.37407,-0.1655 0.69527,-0.41691 0.9292,-0.8134 0.0514,-0.0871 0.079,-0.0996 0.0915,-0.11009 0.0631,-0.0479 0.12183,-0.0992 0.17725,-0.15296 0.0206,-6.5e-4 0.0412,-1e-5 0.06,-9.9e-4 0.21579,-0.0161 0.69544,0.0268 0.87345,-0.0972 0.085,-0.0593 -0.15113,-0.2082 -0.33451,-0.27591 -0.0852,-0.0315 -0.17187,-0.0605 -0.25446,-0.0872 0.0258,-0.0501 0.048,-0.10208 0.0686,-0.1544 0.17021,-0.002 0.34491,-7e-4 0.46174,0.01 0.58801,0.0539 1.10497,0.18935 1.17509,0.20014 0.0702,0.0108 0.0817,-0.12749 -0.32307,-0.4646 -0.28085,-0.23388 -0.60911,-0.31749 -1.19797,-0.39599 -0.0134,-0.66188 -0.40532,-1.3914 -1.30232,-1.99993 0.11401,-0.0152 0.25511,-0.0279 0.43888,-0.0315 0.73996,-0.014 1.12065,-0.0334 1.70545,0.17298 l 0.0429,1.98421 c 0.10624,-0.57202 0.19042,-1.09754 0.23731,-1.86412 0.20863,0.11942 0.36697,0.25367 0.77624,1.00211 0.58633,1.07219 0.11473,3.12481 0.10865,3.12785 0,0 0.32307,-1.07815 0.32307,-2.17864 0,-1.10048 -0.84056,-2.13574 -0.84056,-2.13574 0,0 1.58268,0.36051 3.27938,2.30873 1.79508,2.06118 1.67771,3.63342 1.38094,4.70321 -0.13827,0.49841 -0.53758,0.62401 -0.2902,0.93635 0.25735,0.32493 0.63909,0.55079 0.82914,0.0129 0.26392,-0.74699 0.22017,-4.62198 -2.50314,-7.16346 -1.43045,-1.33495 -3.50494,-1.92677 -5.39512,-1.93418 -0.86632,-0.003 -1.6928,0.11604 -2.40164,0.3431 -0.70883,-0.22706 -1.53531,-0.3465 -2.40164,-0.3431 z m 0.12008,1.06359 c 0.26711,0.0387 0.35311,0.0944 0.35311,0.0944 l 0.006,0.37454 c 0,0 -0.86863,0.4855 -1.11219,1.50818 -0.0658,-0.006 -0.19498,-0.0134 -0.36311,-0.003 -0.0448,-0.79576 0.5349,-1.49 1.11648,-1.9742 z m 4.56312,0 c 0.58158,0.4842 1.16121,1.17844 1.11648,1.9742 -0.16813,-0.0105 -0.29736,-0.003 -0.36311,0.003 -0.24356,-1.02268 -1.11218,-1.50818 -1.11218,-1.50818 l 0.006,-0.37454 c 0,0 0.086,-0.0557 0.3531,-0.0944 z m -2.28156,0.8177 c 0.17637,0.0457 0.35447,0.10202 0.53608,0.15582 0.35699,0.10576 0.66511,0.25743 0.92206,0.43458 0.0264,0.27588 0.0604,0.60707 0.0886,0.84487 0.0143,0.12009 0.0297,0.46358 0.0444,0.89775 -0.30916,0.38514 -0.82053,0.68853 -1.59109,0.77767 -0.77055,-0.0891 -1.28192,-0.39253 -1.59109,-0.77767 0.0147,-0.43417 0.0301,-0.77766 0.0444,-0.89775 0.0282,-0.2378 0.0623,-0.56899 0.0886,-0.84487 0.25695,-0.17715 0.56508,-0.32882 0.92207,-0.43458 0.18161,-0.0538 0.35971,-0.11003 0.53607,-0.15582 z m -1.93417,1.01212 c -0.003,0.20472 -0.004,0.38622 -0.006,0.57897 -0.0377,-0.1812 -0.0466,-0.36236 -0.03,-0.53465 0.0119,-0.0147 0.0232,-0.0297 0.0358,-0.0444 z m 3.86835,0 c 0.0125,0.0146 0.0238,0.0296 0.0358,0.0443 0.0167,0.17229 0.008,0.35345 -0.03,0.53465 -0.002,-0.19275 -0.003,-0.37425 -0.006,-0.57897 z m -4.23146,0.69905 c 0.0632,0.28592 0.18977,0.51965 0.3531,0.71191 4.9e-4,0.0496 2.7e-4,0.10864 10e-4,0.13295 9.9e-4,0.0212 0.006,0.075 0.009,0.11437 -0.32649,-0.24401 -0.43757,-0.59356 -0.36311,-0.95923 z m 4.59457,0 c 0.0745,0.36567 -0.0367,0.71522 -0.36311,0.95923 0.003,-0.0393 0.008,-0.0932 0.009,-0.11437 10e-4,-0.0243 9.4e-4,-0.0833 10e-4,-0.13295 0.16332,-0.19226 0.28989,-0.42599 0.35309,-0.71191 z m -5.48804,0.12437 c 0.0323,0.001 0.0705,0.002 0.0972,0.003 7.7e-4,0.0144 0.002,0.0284 0.003,0.0429 -0.0204,0.006 -0.0387,0.0116 -0.0629,0.0185 -0.0127,-0.0218 -0.0256,-0.0428 -0.0372,-0.0643 z m 6.3815,0 c -0.0116,0.0215 -0.0245,0.0425 -0.0372,0.0643 -0.0242,-0.007 -0.0425,-0.0129 -0.0629,-0.0185 9.9e-4,-0.0145 0.002,-0.0286 0.003,-0.0429 0.0268,-10e-4 0.0649,-0.002 0.0972,-0.003 z m -4.79471,0.90204 c 0.13055,0.0953 0.27096,0.17577 0.41315,0.24588 -0.15154,-0.0392 -0.2917,-0.0824 -0.416,-0.13294 10e-4,-0.0393 0.002,-0.0743 0.003,-0.11294 z m 3.20791,0 c 10e-4,0.0386 0.002,0.0737 0.003,0.11294 -0.12429,0.0505 -0.26446,0.0938 -0.41599,0.13294 0.14218,-0.0702 0.2826,-0.15061 0.41313,-0.24588 z m -1.60395,1.13792 c 0.56304,0.0474 1.13003,0.0958 1.63969,0.2516 0.0165,0.69331 0.0286,1.28945 0.0286,1.28945 0,0 0.0595,-0.5985 0.12294,-1.23941 0.65341,0.23467 1.19493,0.67586 1.48101,1.5725 0.57517,1.80272 0.70533,5.64955 -3.21505,5.71819 -0.0193,3.2e-4 -0.038,-2.3e-4 -0.0572,0 -0.0191,-2.3e-4 -0.0379,3.2e-4 -0.0572,0 -3.92038,-0.0687 -3.79023,-3.91547 -3.21505,-5.71819 0.28607,-0.89664 0.8276,-1.33783 1.48101,-1.5725 0.0634,0.64091 0.12294,1.23941 0.12294,1.23941 0,0 0.0121,-0.59614 0.0286,-1.28945 0.50967,-0.15582 1.07666,-0.20419 1.63969,-0.2516 z m -3.27509,1.06931 c 0,0 -0.82952,2.39316 -0.27448,4.33295 0.30701,1.07295 0.98382,1.6905 1.65542,2.04712 -0.71921,-0.13207 -1.25824,-0.34025 -1.65971,-0.56181 -0.41092,-0.39006 -0.70942,-0.92315 -0.77481,-1.65399 -0.25939,-2.89902 1.05358,-4.16427 1.05358,-4.16427 z m 6.55019,0 c 0,0 1.31296,1.26525 1.05358,4.16427 -0.0654,0.73084 -0.3639,1.26393 -0.77482,1.65399 -0.40146,0.22156 -0.94049,0.42974 -1.65971,0.56181 0.67161,-0.35662 1.34841,-0.97417 1.65543,-2.04712 0.55504,-1.93979 -0.27448,-4.33295 -0.27448,-4.33295 z"
       id="path3110-4-6-6"
       style="display:inline;fill:#ffffff;fill-opacity:1;stroke:none;enable-background:new" />
  </g>
</svg>
