<?xml version="1.0" encoding="UTF-8" standalone="no"?>
<svg
   xmlns:dc="http://purl.org/dc/elements/1.1/"
   xmlns:cc="http://creativecommons.org/ns#"
   xmlns:rdf="http://www.w3.org/1999/02/22-rdf-syntax-ns#"
   xmlns:svg="http://www.w3.org/2000/svg"
   xmlns="http://www.w3.org/2000/svg"
   xmlns:sodipodi="http://sodipodi.sourceforge.net/DTD/sodipodi-0.dtd"
   xmlns:inkscape="http://www.inkscape.org/namespaces/inkscape"
   id="svg4170"
   height="328.86725"
   width="1135"
   version="1.1"
   inkscape:version="0.91 r13725"
   sodipodi:docname="top-daji.svg"
   inkscape:export-filename="/media/dorani/var/www/mediawiki/skins/Splash/resources/images/top-daji.png"
   inkscape:export-xdpi="90.036331"
   inkscape:export-ydpi="90.036331">
  <sodipodi:namedview
     pagecolor="#ffffff"
     bordercolor="#666666"
     borderopacity="1"
     objecttolerance="10"
     gridtolerance="10"
     guidetolerance="10"
     inkscape:pageopacity="0"
     inkscape:pageshadow="2"
     inkscape:window-width="3840"
     inkscape:window-height="2124"
     id="namedview8"
     showgrid="false"
     fit-margin-top="0"
     fit-margin-left="0"
     fit-margin-right="0"
     fit-margin-bottom="0"
     inkscape:zoom="2.0297211"
     inkscape:cx="422.7931"
     inkscape:cy="64.716206"
     inkscape:window-x="1920"
     inkscape:window-y="0"
     inkscape:window-maximized="1"
     inkscape:current-layer="svg4170" />
  <defs
     id="defs4172">
    <filter
       style="color-interpolation-filters:sRGB"
       id="filter4166"
       height="1.2291753"
       width="1.1652021"
       y="-0.11458765"
       x="-0.082601033">
      <feGaussianBlur
         stdDeviation="0.71616948"
         id="feGaussianBlur4168" />
    </filter>
  </defs>
  <metadata
     id="metadata4175">
    <rdf:RDF>
      <cc:Work
         rdf:about="">
        <dc:format>image/svg+xml</dc:format>
        <dc:type
           rdf:resource="http://purl.org/dc/dcmitype/StillImage" />
        <dc:title></dc:title>
      </cc:Work>
    </rdf:RDF>
  </metadata>
  <path
     d="M 175.37149,0.00156359 C 133.94979,0.15504359 88.489489,13.139419 57.142389,42.407649 -2.5363108,98.128539 -3.4950108,183.0861 2.2882892,199.46355 c 4.1648,11.79389 12.5302998,6.842 18.1697998,-0.28285 5.421,-6.84792 -3.3294,-9.60164 -6.3593,-20.52908 -6.5037998,-23.4547 -9.0753998,-57.92541 30.2621,-103.115921 37.1816,-42.71392 71.864501,-50.61794 71.864501,-50.61794 0,0 -18.420201,22.69764 -18.420201,46.82521 0,24.12779 7.080001,47.765781 7.080001,47.765781 -0.1314,-0.0657 -10.467901,-45.069511 2.3808,-68.576821 8.9689,-16.40924 12.4387,-19.35261 17.0107,-21.97085 1.0256,16.80695 2.8723,28.32876 5.2004,40.87006 l 0.938,-43.50298 c 12.815,-4.52502 21.1576,-4.10143 37.3734,-3.79253 4.027,0.0876 7.1188,0.35737 9.6174,0.69064 -19.6569,13.34177 -28.2458,29.3362 -28.5389,43.84763 -12.9043,1.72109 -20.0981,3.55421 -26.2524,8.68192 -8.8709,7.391 -8.6167,10.42273 -7.0799,10.18616 1.5385,-0.23677 12.8653,-3.20515 25.7508,-4.38798 2.5605,-0.23679 6.3888,-0.2631 10.1189,-0.21925 0.4513,1.14667 0.9402,2.28653 1.5032,3.38517 -1.8101,0.58537 -3.7086,1.2212 -5.5759,1.91182 -4.0187,1.48429 -9.1937,4.75017 -7.3307,6.04921 3.901,2.72018 14.4122,1.7759 19.1408,2.13107 0.4119,0.0217 0.8656,0.0169 1.3149,0.0217 1.2139,1.17954 2.5016,2.30251 3.8847,3.35358 0.2717,0.23239 0.8787,0.50208 2.0052,2.413671 5.1264,8.69286 12.1654,14.20494 20.3627,17.83346 -2.4493,0.61168 -4.8417,1.25189 -7.1114,1.9754 -45.9395,14.62326 -74.2259,84.46315 -59.7723,138.00014 -0.3069,3.76665 -0.4493,7.2544 -0.2805,10.12347 0.9445,16.08519 2.3494,22.72328 2.3494,22.72328 -4.2075,2.88923 -34.220201,4.56449 -53.883001,2.82061 -14.5943,-1.29354 -27.0955,-2.13546 -63.3749998,-9.46528 0,0 56.5902998,14.51144 120.2029008,25.63794 l 3.3208,18.61727 0.2826,-17.99022 c 4.6973,0.80902 9.4161,1.62241 14.16,2.38167 26.1571,4.19505 52.1723,7.31974 76.219,7.99238 2.7515,0.0877 5.545,0.15348 8.3643,0.15348 0.5414,8.1e-4 1.0849,0.002 1.6282,0 2.8197,-0.006 5.6132,-0.0658 8.3645,-0.15348 24.0467,-0.67307 50.062,-3.79733 76.2192,-7.99238 4.7437,-0.76078 9.4627,-1.57419 14.1598,-2.38167 l 0.2826,17.99022 3.3209,-18.61727 c 63.6123,-11.1265 120.2024,-25.63794 120.2024,-25.63794 -36.2792,7.33004 -48.7804,8.17107 -63.375,9.46528 -19.6628,1.743 -49.675,0.0657 -53.8828,-2.82061 0,0 1.4046,-6.63809 2.3497,-22.72328 0.1751,-2.86907 0.022,-6.35682 -0.2828,-10.12347 14.4537,-53.53699 -13.8326,-123.37688 -59.7723,-138.00014 -2.2695,-0.72351 -4.6621,-1.36372 -7.1111,-1.9754 8.1972,-3.62852 15.2361,-9.1406 20.3623,-17.83346 1.1266,-1.909641 1.7315,-2.183691 2.0052,-2.413671 1.3828,-1.05019 2.6699,-2.17492 3.8843,-3.35358 0.4515,-0.0143 0.9028,-2.3e-4 1.3148,-0.0217 4.7289,-0.353 15.24,0.58759 19.1409,-2.13107 1.8629,-1.30013 -3.3119,-4.5647 -7.3304,-6.04921 -1.8671,-0.69062 -3.7663,-1.32645 -5.5762,-1.91182 0.5653,-1.09843 1.0517,-2.23806 1.5032,-3.38517 3.73,-0.0439 7.5583,-0.0154 10.1187,0.21925 12.8856,1.18174 24.2144,4.15144 25.7508,4.38798 1.5384,0.23679 1.7905,-2.79516 -7.0797,-10.18616 -6.1545,-5.12771 -13.3481,-6.96083 -26.2523,-8.68192 -0.2936,-14.51143 -8.8824,-30.50586 -28.5391,-43.84763 2.4983,-0.33327 5.5903,-0.61169 9.6175,-0.69064 16.2156,-0.30693 24.5581,-0.73227 37.3735,3.79253 l 0.94,43.50298 c 2.3281,-12.5413 4.1729,-24.06311 5.2005,-40.87006 4.5718,2.61824 8.0419,5.56161 17.0105,21.97085 12.8489,23.50731 2.5144,68.510161 2.381,68.576821 0,0 7.0798,-23.637991 7.0798,-47.765781 0,-24.12757 -18.4202,-46.82521 -18.4202,-46.82521 0,0 34.6832,7.90402 71.8648,50.61794 39.3375,45.190511 36.7653,79.661221 30.2619,103.115921 -3.03,10.92744 -11.7804,13.68116 -6.3595,20.52908 5.6397,7.12397 14.0052,12.07586 18.1699,0.28285 5.7835,-16.37745 4.825,-101.335011 -54.854,-157.055901 -31.347,-29.26823 -76.8074,-42.24362541 -118.2291,-42.40608541 -18.9846,-0.0658 -37.0962,2.54412041 -52.6298,7.52232041 -15.5333,-4.9782 -33.6448,-7.59688041 -52.6297,-7.52232041 z m 2.6314,23.31876541 c 5.8534,0.84847 7.7381,2.06968 7.7381,2.06968 l 0.1315,8.21163 c 0,0 -19.0354,10.64439 -24.3726,33.06622 -1.4421,-0.13155 -4.273,-0.29378 -7.9574,-0.0657 -0.9818,-17.44671 11.722,-32.66763 24.4667,-43.28351 z m 99.9965,0 c 12.7449,10.61587 25.447,25.83681 24.4667,43.28351 -3.6845,-0.2302 -6.5164,-0.0657 -7.9572,0.0657 -5.3375,-22.42185 -24.3725,-33.06623 -24.3725,-33.06623 l 0.1315,-8.21162 c 0,0 1.8846,-1.2212 7.7379,-2.06969 z m -49.9984,17.92773 c 3.8652,1.00196 7.7681,2.23675 11.7479,3.41629 7.8231,2.31875 14.5752,5.64404 20.206,9.52799 0.5785,6.04856 1.3237,13.30976 1.9416,18.52343 0.3134,2.63292 0.6509,10.16379 0.9731,19.6828 -6.775,8.444011 -17.9812,15.095721 -34.8674,17.050061 -16.8859,-1.95347 -28.0921,-8.60605 -34.8672,-17.050061 0.3222,-9.51901 0.6595,-17.04988 0.9729,-19.6828 0.6181,-5.21367 1.3653,-12.47487 1.9416,-18.52343 5.6309,-3.88395 12.3832,-7.20924 20.2064,-9.52799 3.9797,-1.17954 7.8826,-2.41236 11.7474,-3.41629 z m -42.3855,22.19031 c -0.066,4.48841 -0.088,8.46772 -0.1314,12.69368 -0.8262,-3.97274 -1.0213,-7.9446 -0.6573,-11.72198 0.2607,-0.32229 0.5083,-0.65116 0.7844,-0.97345 z m 84.7714,0 c 0.2739,0.32009 0.5216,0.64897 0.7846,0.97126 0.3658,3.77737 0.1754,7.74924 -0.6574,11.72197 -0.044,-4.22594 -0.066,-8.20526 -0.1316,-12.69366 z m -92.7286,15.32638 c 1.3851,6.26869 4.1588,11.39312 7.7379,15.60833 0.011,1.08747 0.01,2.38189 0.022,2.91489 0.021,0.46479 0.1316,1.64434 0.1973,2.5075 -7.1549,-5.3498 -9.589,-13.01356 -7.9573,-21.03072 z m 100.6858,0 c 1.6326,8.01716 -0.8041,15.68092 -7.9572,21.03072 0.066,-0.86162 0.1753,-2.04337 0.1973,-2.5075 0.022,-0.53277 0.02,-1.82633 0.022,-2.91489 3.579,-4.21521 6.3527,-9.33964 7.7375,-15.60833 z m -120.2653,2.72676 c 0.7078,0.022 1.5449,0.0439 2.13,0.0658 0.017,0.31573 0.043,0.62267 0.066,0.94057 -0.4472,0.13155 -0.8482,0.25433 -1.3784,0.4056 -0.2784,-0.47795 -0.5611,-0.93836 -0.8153,-1.40974 z m 139.8447,0 c -0.2541,0.47138 -0.5369,0.93181 -0.8153,1.40976 -0.5302,-0.15348 -0.9313,-0.28283 -1.3782,-0.40561 0.021,-0.31789 0.044,-0.62705 0.066,-0.94056 0.5875,-0.022 1.4222,-0.0439 2.1301,-0.0658 z m -105.0717,19.776861 c 2.8608,2.08939 5.9378,3.85367 9.0537,5.3908 -3.3208,-0.85944 -6.3922,-1.80659 -9.1161,-2.91465 0.022,-0.86163 0.043,-1.62899 0.066,-2.47615 z m 70.2985,0 c 0.022,0.84627 0.044,1.61582 0.066,2.47615 -2.7237,1.10719 -5.7955,2.05653 -9.1161,2.91465 3.1158,-1.53909 6.193,-3.30207 9.0533,-5.3908 z m -35.1493,24.94842 c 12.3387,1.03922 24.7637,2.10036 35.9325,5.51622 0.3615,15.20053 0.6266,28.27066 0.6266,28.27066 0,0 1.304,-13.12186 2.6942,-27.17356 14.319,5.14505 26.1858,14.81796 32.455,34.47642 12.6043,39.5239 15.4566,123.86405 -70.455,125.36895 -0.4228,0.008 -0.8326,-0.005 -1.2534,0 -0.4186,-0.005 -0.8305,0.008 -1.2535,0 -85.9116,-1.50622 -83.0593,-85.84505 -70.4548,-125.36895 6.269,-19.65846 18.1361,-29.33137 32.455,-34.47642 1.3894,14.0517 2.694,27.17356 2.694,27.17356 0,0 0.2652,-13.07013 0.6268,-28.27066 11.169,-3.41629 23.594,-4.47678 35.9322,-5.51622 z m -71.7705,23.44418 c 0,0 -18.1781,52.46903 -6.0149,94.99813 6.7278,23.52399 21.5595,37.06351 36.2769,44.88226 -15.7608,-2.89557 -27.5732,-7.45983 -36.3709,-12.31746 -9.005,-8.55189 -15.5464,-20.23967 -16.9793,-36.26304 -5.6842,-63.55981 23.0882,-91.29989 23.0882,-91.29989 z m 143.5414,0 c 0,0 28.7725,27.74008 23.0883,91.29989 -1.4331,16.02337 -7.9745,27.71115 -16.9796,36.26304 -8.7976,4.85763 -20.6097,9.42189 -36.371,12.31746 14.7179,-7.81875 29.5493,-21.35827 36.2773,-44.88226 12.1631,-42.5291 -6.015,-94.99813 -6.015,-94.99813 z"
     id="path3110-4-6-5-3"
     style="display:inline;fill:#dadcd9;fill-opacity:1;stroke:none;enable-background:new"
     inkscape:connector-curvature="0" />
</svg>
