<?xml version="1.0" encoding="UTF-8" standalone="no"?>
<!-- Created with Inkscape (http://www.inkscape.org/) -->

<svg
   xmlns:dc="http://purl.org/dc/elements/1.1/"
   xmlns:cc="http://creativecommons.org/ns#"
   xmlns:rdf="http://www.w3.org/1999/02/22-rdf-syntax-ns#"
   xmlns:svg="http://www.w3.org/2000/svg"
   xmlns="http://www.w3.org/2000/svg"
   xmlns:sodipodi="http://sodipodi.sourceforge.net/DTD/sodipodi-0.dtd"
   xmlns:inkscape="http://www.inkscape.org/namespaces/inkscape"
   width="16.619036"
   height="19.993254"
   id="svg4268"
   version="1.1"
   inkscape:version="0.48.4 r9939"
   sodipodi:docname="user-icon.svg"
   inkscape:export-filename="/media/dorani/var/www/mediawiki/core/skins/Splash/images/user-icon-only.png"
   inkscape:export-xdpi="90"
   inkscape:export-ydpi="90">
  <defs
     id="defs4270">
    <filter
       color-interpolation-filters="sRGB"
       inkscape:collect="always"
       id="filter4225"
       x="-0.40155271"
       width="1.8031054"
       y="-0.1836151"
       height="1.3672302">
      <feGaussianBlur
         inkscape:collect="always"
         stdDeviation="0.99184754"
         id="feGaussianBlur4227" />
    </filter>
    <filter
       color-interpolation-filters="sRGB"
       inkscape:collect="always"
       id="filter4264-2"
       x="-0.48548034"
       width="1.9709607"
       y="-0.28606248"
       height="1.572125">
      <feGaussianBlur
         inkscape:collect="always"
         stdDeviation="0.98671511"
         id="feGaussianBlur4266-0" />
    </filter>
    <filter
       color-interpolation-filters="sRGB"
       inkscape:collect="always"
       id="filter4256-5"
       x="-0.57364696"
       width="2.147294"
       y="-0.26230726"
       height="1.5246145">
      <feGaussianBlur
         inkscape:collect="always"
         stdDeviation="1.0327863"
         id="feGaussianBlur4258-5" />
    </filter>
  </defs>
  <sodipodi:namedview
     id="base"
     pagecolor="#ffffff"
     bordercolor="#666666"
     borderopacity="1.0"
     inkscape:pageopacity="0.0"
     inkscape:pageshadow="2"
     inkscape:zoom="16"
     inkscape:cx="-10.21962"
     inkscape:cy="5.1804949"
     inkscape:document-units="px"
     inkscape:current-layer="layer1"
     showgrid="false"
     fit-margin-top="0"
     fit-margin-left="0"
     fit-margin-right="0"
     fit-margin-bottom="0"
     inkscape:window-width="1560"
     inkscape:window-height="789"
     inkscape:window-x="1720"
     inkscape:window-y="260"
     inkscape:window-maximized="0" />
  <metadata
     id="metadata4273">
    <rdf:RDF>
      <cc:Work
         rdf:about="">
        <dc:format>image/svg+xml</dc:format>
        <dc:type
           rdf:resource="http://purl.org/dc/dcmitype/StillImage" />
        <dc:title></dc:title>
      </cc:Work>
    </rdf:RDF>
  </metadata>
  <g
     inkscape:label="Layer 1"
     inkscape:groupmode="layer"
     id="layer1"
     transform="translate(-360.63989,-300.85325)">
    <path
       style="fill:#000000;stroke:none;filter:url(#filter4225)"
       d="m 19643.461,27321.128 c -2.272,0.757 -4.953,1.715 -4.638,2.788 0.316,1.074 4.275,10.163 4.275,10.163 -0.101,-3.219 1.58,-9.038 1.626,-10.931 0.06,-2.321 -1.263,-2.02 -1.263,-2.02 z"
       id="path3101-8-2"
       inkscape:connector-curvature="0"
       sodipodi:nodetypes="cscsc"
       inkscape:export-filename="/media/dorani/var/www/mediawiki/core/skins/Splash/images/down-arrow.png"
       inkscape:export-xdpi="90"
       inkscape:export-ydpi="90" />
    <path
       style="fill:#000000;stroke:none"
       d="m 19643.461,27316.128 c -2.272,0.757 -4.953,1.715 -4.638,2.788 0.316,1.074 4.275,10.163 4.275,10.163 -0.101,-3.219 1.58,-9.038 1.626,-10.931 0.06,-2.321 -1.263,-2.02 -1.263,-2.02 z"
       id="path3101-8"
       inkscape:connector-curvature="0"
       sodipodi:nodetypes="cscsc"
       inkscape:export-filename="/media/dorani/var/www/mediawiki/core/skins/Splash/images/down-arrow.png"
       inkscape:export-xdpi="90"
       inkscape:export-ydpi="90" />
    <path
       style="fill:#ffffff;stroke:none"
       d="m 19643.461,27318.128 c -2.272,0.757 -4.953,1.715 -4.638,2.788 0.316,1.074 4.275,10.163 4.275,10.163 -0.101,-3.219 1.58,-9.038 1.626,-10.931 0.06,-2.321 -1.263,-2.02 -1.263,-2.02 z"
       id="path3101"
       inkscape:connector-curvature="0"
       sodipodi:nodetypes="cscsc"
       inkscape:export-filename="/media/dorani/var/www/mediawiki/core/skins/Splash/images/down-arrow.png"
       inkscape:export-xdpi="90"
       inkscape:export-ydpi="90" />
    <path
       style="fill:#dbdbdb;fill-opacity:1;stroke:none"
       d="m 19643.461,27317.128 c -2.272,0.757 -4.953,1.715 -4.638,2.788 0.316,1.074 4.275,10.163 4.275,10.163 -0.101,-3.219 1.58,-9.038 1.626,-10.931 0.06,-2.321 -1.263,-2.02 -1.263,-2.02 z"
       id="path3101-8-5"
       inkscape:connector-curvature="0"
       sodipodi:nodetypes="cscsc"
       inkscape:export-filename="/media/dorani/var/www/mediawiki/core/skins/Splash/images/down-arrow.png"
       inkscape:export-xdpi="90"
       inkscape:export-ydpi="90" />
    <g
       transform="translate(-4.4228665,295.28103)"
       id="g4416"
       style="opacity:0.75"
       inkscape:export-filename="/media/dorani/var/www/mediawiki/core/skins/Splash/images/user-icon-only.png"
       inkscape:export-xdpi="90"
       inkscape:export-ydpi="90">
      <path
         inkscape:export-ydpi="90"
         inkscape:export-xdpi="90"
         inkscape:export-filename="/media/dorani/var/www/mediawiki/core/skins/Splash/images/user-icon.png"
         inkscape:connector-curvature="0"
         id="path3114-5-9"
         d="m 370.64236,7.9415152 c -1.83091,-0.063135 -2.62009,2.4306798 -2.49382,4.3878498 0.12627,1.95717 1.4521,3.756505 2.17814,3.882774 0.72605,0.126269 2.58852,-1.609931 2.68322,-2.746352 0.0947,-1.136422 -1.76777,-0.315673 -1.19956,-1.546797 0.56821,-1.231123 2.52539,-3.9774748 -1.16798,-3.9774748 z"
         style="fill:#000000;stroke:none;filter:url(#filter4264-2)" />
      <path
         inkscape:export-ydpi="90"
         inkscape:export-xdpi="90"
         inkscape:export-filename="/media/dorani/var/www/mediawiki/core/skins/Splash/images/user-icon.png"
         inkscape:connector-curvature="0"
         id="path3114"
         d="m 370.64236,6.9415152 c -1.83091,-0.063135 -2.62009,2.4306795 -2.49382,4.3878498 0.12627,1.95717 1.4521,3.756505 2.17814,3.882774 0.72605,0.126269 2.58852,-1.609931 2.68322,-2.746352 0.0947,-1.136422 -1.76777,-0.315673 -1.19956,-1.546797 0.56821,-1.2311226 2.52539,-3.9774748 -1.16798,-3.9774748 z"
         style="fill:#ffffff;stroke:none" />
      <path
         inkscape:export-ydpi="90"
         inkscape:export-xdpi="90"
         inkscape:export-filename="/media/dorani/var/www/mediawiki/core/skins/Splash/images/user-icon.png"
         inkscape:connector-curvature="0"
         id="path3116"
         d="m 370.29512,16.806398 c 1.16798,0 2.74635,-0.0947 3.53553,0.284105 0.78918,0.378807 -1.67307,4.166879 -2.90419,3.756505 -1.23112,-0.410375 -2.74635,-2.683218 -3.21986,-1.925603 -0.47351,0.757614 -2.52538,2.367545 -2.58852,0.91545 -0.0631,-1.452094 -0.2841,-4.04061 0.97859,-4.766657 1.26269,-0.726047 1.04172,-0.726047 1.76777,-0.410375 0.72604,0.315673 0.88388,1.673066 2.43068,2.146575 z"
         style="fill:#ffffff;stroke:none" />
      <path
         inkscape:export-ydpi="90"
         inkscape:export-xdpi="90"
         inkscape:export-filename="/media/dorani/var/www/mediawiki/core/skins/Splash/images/user-icon.png"
         inkscape:connector-curvature="0"
         id="path3114-5-7"
         d="m 370.64236,5.9415152 c -1.83091,-0.063135 -2.62009,2.4306795 -2.49382,4.3878498 0.12627,1.95717 1.4521,3.756505 2.17814,3.882774 0.72605,0.126269 2.58852,-1.609931 2.68322,-2.746352 0.0947,-1.136422 -1.76777,-0.315673 -1.19956,-1.5467966 0.56821,-1.231123 2.52539,-3.9774752 -1.16798,-3.9774752 z"
         style="fill:#dbdbdb;fill-opacity:1;stroke:none" />
      <path
         inkscape:export-ydpi="90"
         inkscape:export-xdpi="90"
         inkscape:export-filename="/media/dorani/var/www/mediawiki/core/skins/Splash/images/user-icon.png"
         inkscape:connector-curvature="0"
         id="path3116-8-1"
         d="m 370.29512,15.806398 c 1.16798,0 2.74635,-0.0947 3.53553,0.284105 0.78918,0.378807 -1.67307,4.166879 -2.90419,3.756505 -1.23112,-0.410375 -2.74635,-2.683218 -3.21986,-1.925603 -0.47351,0.757614 -2.52538,2.367545 -2.58852,0.91545 -0.0631,-1.452094 -0.2841,-4.04061 0.97859,-4.766657 1.26269,-0.726047 1.04172,-0.726047 1.76777,-0.410375 0.72604,0.315673 0.88388,1.673066 2.43068,2.146575 z"
         style="fill:#dbdbdb;fill-opacity:1;stroke:none" />
    </g>
  </g>
</svg>
