<?xml version="1.0" standalone="no"?>
<!DOCTYPE svg PUBLIC "-//W3C//DTD SVG 1.1//EN" "http://www.w3.org/Graphics/SVG/1.1/DTD/svg11.dtd" >
<svg>
<metadata>
Created by FontForge 20120731 at Tue Sep 24 23:51:27 2013
 By rahah
Created by Elise Tajira, for the Garden of Remembering, with FontForge 2.0 (http://fontforge.sf.net)
</metadata>
<defs>
<font id="Abridahniajirad" horiz-adv-x="647" >
  <font-face 
    font-family="Abridahniajirad"
    font-weight="400"
    font-stretch="normal"
    units-per-em="1024"
    panose-1="2 0 5 3 0 0 0 0 0 0"
    ascent="819"
    descent="-205"
    x-height="655"
    cap-height="1196"
    bbox="-166 -1256 1654 1800"
    underline-thickness="51"
    underline-position="-102"
    unicode-range="U+0020-F8D8"
  />
<missing-glyph horiz-adv-x="745" 
d="M68 0v1364h542v-1364h-542zM135 68h408v1228h-408v-1228z" />
    <glyph glyph-name=".notdef" horiz-adv-x="745" 
d="M68 0v1364h542v-1364h-542zM135 68h408v1228h-408v-1228z" />
    <glyph glyph-name=".null" horiz-adv-x="0" 
 />
    <glyph glyph-name="nonmarkingreturn" horiz-adv-x="681" 
 />
    <glyph glyph-name="space" unicode=" " horiz-adv-x="614" 
 />
    <glyph glyph-name="exclam" unicode="!" horiz-adv-x="233" 
d="M211 10q-18 12 -50 29.5t-53.5 32t-33.5 28.5q-25 43 -25 62q0 20 27 20h12q35 -12 47 -19t17.5 -18.5t6.5 -22.5t13 -42t39 -70zM33 1010h6q14 0 38.5 -6.5t47.5 -6.5q7 -2 7 -13q0 -7 -3 -17q-8 -31 -28.5 -80t-28.5 -82q-2 -6 5 -12.5t7 -10.5q-6 -68 -6 -123
q0 -184 88 -393l-98 39q-18 16 -23 60q-20 223 -20 337z" />
    <glyph glyph-name="quotedbl" unicode="&#x22;" horiz-adv-x="442" 
d="M246 1331q10 20 10 45q0 14 -5 36t-5 28q0 18 20 22q16 2 48 17.5t44 15.5q4 0 8.5 2t7.5 1t7 -7q12 -25 12 -51q0 -43 -47 -164t-47 -193v-20q-4 29 -31.5 118t-27.5 122q0 16 6 28zM31 1485q12 -12 18 -12q8 4 20.5 13t26 14t37.5 7q33 -35 33 -90q0 -41 -23.5 -128
t-23.5 -124q-94 143 -94 250q0 33 6 70z" />
    <glyph glyph-name="numbersign" unicode="#" horiz-adv-x="929" 
d="M487 711l-45 2q-2 -10 -14 -38t-12 -42q0 -27 24 -53q35 8 78 12zM336 999q4 -2 12 -2l105 -57q-45 -25 -45 -66q0 -14 7 -41.5t7 -39.5h55l-18 262l57 47l70 51q14 -6 14 -12q-59 -289 -59 -318v-2l6 -6q10 2 81.5 17.5t102.5 15.5q41 0 53 -21l-32 -51q12 -6 22 -10
q4 -2 2 -4q-4 -4 -6 -8l-197 -17l11 -121q53 -28 104 -28h4q35 0 65.5 12t47.5 25l16 14l2 -2v-2q2 -2 2 -4q4 -2 20.5 -5t24 -9.5t7.5 -18.5q0 -29 -29 -76l-47 -37q-41 -12 -82 -12q-29 0 -70 10.5t-53 12.5v-25q0 -121 68 -223l-70 -12q-6 2 -11 2t-9 -2q-2 -1 -4 -1.5
t-4 1.5q-3 2 -3 8v18q-2 4 -3 5t-3 1t-3 1t-3 5.5t-4 11.5t-4 21.5t-5 36t-7.5 54t-8.5 73.5q-4 2 -13 7t-26 5q-33 0 -63 -6q0 -162 -64 -203l-39 2l-26 25q51 25 51 64l-27 124q-51 23 -102 23q-55 0 -119 -20l-26 16l10 55q2 29 59 29l168 -17l10 5q23 23 23 102l2 6
l-2 2q-49 -12 -96 -12q-109 0 -187 72l-10 28l43 37q74 -29 152.5 -34t97.5 -9q-2 12 -15.5 65.5t-13.5 82.5q0 44 27 79z" />
    <glyph glyph-name="dollar" unicode="$" 
d="M317 1071q-2 10 -8 53q59 20 105 72l2 -18q0 -6 -13 -80l-4 -21q-2 -4 -2 -16l54 -17q53 -14 84 -18l4 -2q0 -4 -7.5 -9t-17.5 -13.5t-14 -12.5q-12 -4 -15.5 -12t-2.5 -14.5t5.5 -18.5t6.5 -16q-29 4 -56.5 18.5t-44.5 20.5v-37v-76l6 -4q25 -25 67 -41t74.5 -46
t61.5 -95q16 -45 16 -84q0 -86 -53 -155t-149 -87q-4 -29 -4 -31l-6 -28q-25 -33 -130 -33q29 35 48 84q-119 6 -244 65q-8 4 -26.5 6.5t-30 5.5t-11.5 9v2q2 4 2 6q0 23 18.5 30t51.5 9t49 8q66 -53 209 -53h4q10 68 10 139q0 57 -6 131l-10 17q4 8 4 41v22q-53 16 -82 39
q-59 51 -65 174q0 27 24 49q43 37 96 37zM395 756l4 -68q0 -82 19 -256q76 29 76 152q0 31 -7 63q-29 82 -92 109zM330 987q-10 7 -16 7q-3 0 -5 -1q-29 -14 -30 -24q-2 -4 -3 -11q0 -63 33 -96l31 -4v2l-2 29q0 37 -8 98z" />
    <glyph glyph-name="percent" unicode="%" horiz-adv-x="923" 
d="M537 399q0 29 43 29q20 0 26 -12q31 -70 31 -109q0 -43 -35 -51q-2 0 -6 -1t-6 -1q-53 0 -53 129v16zM418 1114q0 29 43 29q20 0 26 -13q31 -70 31 -108q0 -43 -35 -51q-2 0 -6 -1t-6 -1q-53 0 -53 129v16zM29 152q72 113 191.5 243.5t214.5 226t188.5 244t136.5 316.5
q14 84 55 84q6 0 14 -4l31 -111q-43 -63 -154.5 -244.5t-222 -336t-290.5 -373.5q-6 8 -17 8q-31 0 -100 -64q-10 0 -19.5 -1t-12.5 -3q-2 -1 -3 -1l-3 1q-3 2 -4 4.5t-5 10.5z" />
    <glyph glyph-name="ampersand" unicode="&#x26;" 
d="M223 723q-47 -27 -73 -100q-6 -33 -7 -64q0 -92 38 -127t114 -35q66 0 135 78q-31 45 -207 248zM172 782q-53 74 -53 131q0 45 35 86q47 47 114 48h45q59 0 103 -37q24 -22 24 -47q0 -120 -65 -177q-25 -20 -74 -36q129 -154 166 -220l6 -8q10 12 25 27q16 -6 49 -8
t51 -9.5t18 -29.5v-6l2 -2q0 -6 -11 -9.5t-29.5 -5.5t-26.5 -6l-31 -31l58 -96q-10 14 -43 17.5t-46 15.5q-2 8 -8 16q-76 -88 -159 -88q-16 0 -27 2q-129 0 -203 74t-74 176q0 39 17 84q20 47 47 78t41 39t49 22zM252 815l76 23q32 32 32 92q0 22 -24 35q-6 2 -8 4
q-2 1 -4 1q-6 0 -18 -8q-16 -10 -19 -10q-70 -12 -70 -49l2 -12q0 -21 33 -76z" />
    <glyph glyph-name="quotesingle" unicode="'" horiz-adv-x="212" 
d="M43 1450q12 -12 18 -12l84 35q33 -35 33 -91q0 -41 -23.5 -128t-23.5 -124q-94 143 -94 250q0 33 6 70z" />
    <glyph glyph-name="parenleft" unicode="(" horiz-adv-x="403" 
d="M119 1004v-21q0 -154 22.5 -378t80 -448.5t134.5 -254.5q-23 -23 -90 -23q-104 0 -135 60q-27 45 -29 61q-12 23 -12 47q0 8 -10 30.5t-10 28.5v3v6q0 4 1 14t1 16q0 57 -12.5 486.5t-12.5 478.5q0 31 -2 41l-4 18v2q0 12 32.5 89t32.5 98l3 18l243 121q18 0 29 -2
q-102 -37 -182 -184t-80 -307z" />
    <glyph glyph-name="parenright" unicode=")" horiz-adv-x="403" 
d="M299 1006q0 160 -80 307t-182 184q10 2 29 2l243 -121l2 -18q0 -20 33 -96t33 -90v-3l-4 -18q-2 -10 -2 -41q0 -49 -18.5 -479t-18.5 -488q0 -6 1 -16t1 -14v-6v-3q0 -6 -10.5 -28.5t-10.5 -30.5q0 -25 -12 -47l-29 -61q-31 -59 -135 -60q-68 0 -90 23q78 31 138.5 255
t86 451.5t25.5 376.5v21z" />
    <glyph glyph-name="asterisk" unicode="*" horiz-adv-x="434" 
d="M166 1290q22 32 22 74q0 37 -16 102q10 -14 35.5 -36.5t42 -42t16.5 -41.5q0 -16 -8 -33q53 84 100 84l50 -13q-10 -16 -64.5 -50t-54.5 -62q0 -16 14 -37q31 -35 41 -59.5t12 -47t6 -34.5l-112 90q-10 -10 -10 -23q0 -6 5 -25.5t7 -31.5q-6 16 -23 16l-45 84
q-4 -41 -27.5 -52t-63.5 -11t-58 -8q10 14 36.5 34.5t44 41t19.5 44.5l-59 58q2 0 22.5 6t30.5 6q29 0 37 -33z" />
    <glyph glyph-name="plus" unicode="+" horiz-adv-x="565" 
d="M446 336q43 -39 97 -45q-35 -10 -54 -10q-20 0 -34.5 2t-65.5 11t-74 11q-14 0 -14 -24l-39 -195q-6 0 -7 111.5t-5 111.5q-14 0 -43 -4q-29 -6 -98.5 -32.5t-81.5 -30.5v14q2 16 14 31.5t12 17.5q12 14 26.5 23.5t18.5 11.5q14 12 0 27q-2 4 -2 14q14 -16 31 -16
q10 0 53 3t51 3q0 2 1 8t1 10q0 47 -25.5 138t-25.5 104q0 2 2 4v4q25 -47 66 -47l55 -2q2 -6 2 -29v-199q110 -16 139 -26z" />
    <glyph glyph-name="comma" unicode="," horiz-adv-x="204" 
d="M176 180q2 -16 2 -47q0 -94 -46 -218t-54 -165q-39 240 -39 262q0 14 2 19q10 20 10 45q0 16 -5 37.5t-5 27.5q0 18 20 23q16 2 48 17.5t45 15.5q14 -1 22 -17z" />
    <glyph glyph-name="hyphen" unicode="-" horiz-adv-x="565" 
d="M446 336q43 -39 97 -45q-35 -10 -54 -10q-20 0 -34 2q-14 0 -86 13t-93 13q-45 0 -69 -4q-29 -6 -98.5 -32.5t-81.5 -30.5v14q2 16 14 31.5t12 17.5q12 14 26.5 23.5t18.5 11.5q14 12 0 27q-2 4 -2 14q14 -16 31 -16q10 0 53 3t51 3q154 -15 215 -35z" />
    <glyph glyph-name="period" unicode="." horiz-adv-x="241" 
d="M45 143q0 29 41 29q4 0 20.5 1t24.5 1q18 0 21 -4q30 -68 30 -107q0 -18 -25.5 -37.5t-45.5 -25.5q-2 0 -6.5 -1t-6.5 -1q-53 0 -53 129v16z" />
    <glyph glyph-name="slash" unicode="/" horiz-adv-x="923" 
d="M57 90q72 113 192 244t215 226t188 243.5t136 316.5q14 84 56 84q6 0 14 -4l31 -110q-43 -63 -154.5 -244.5t-222.5 -336.5t-291 -374q-6 8 -16 8q-31 0 -101 -63q-10 0 -19 -1t-12 -3q-2 -1 -3.5 -1t-3.5 1q-4 2 -4.5 4t-4.5 10z" />
    <glyph glyph-name="zero" unicode="0" horiz-adv-x="892" 
d="M612 461q18 63 19 149q0 27 -22.5 77t-26.5 63q-41 102 -146 249q4 -4 21 -4q6 0 16 1t16 1q10 0 23 -4q137 -137 199 -262q14 -51 14 -117q0 -141 -37 -233q-43 -86 -113 -137q-80 -57 -184 -58q-49 0 -83 12.5t-55.5 41t-32.5 50t-27 68.5q-53 154 -54 297
q0 166 66.5 281t200.5 117q20 -6 39.5 -16.5t29.5 -16.5l10 -8q-10 -2 -26 -2h-15q-47 0 -80.5 -39t-91.5 -162q-18 -55 -18 -68v-18q0 -6 5 -10t14.5 -9.5t13.5 -9.5q-14 -55 -15 -129q6 -117 26.5 -169t92.5 -97h25q47 0 76.5 5t50 25.5t28 30t21.5 49.5t20 52z" />
    <glyph glyph-name="one" unicode="1" horiz-adv-x="366" 
d="M240 268l-11 -53q-20 -29 -151 -29q67 85 67 262v5q0 20 -6 88.5t-6 83.5l-10 16q4 6 4 35q0 63 -4 92v27q0 45 -38 56t-40 30q16 4 54 38.5t82 84t46 51.5v-17q0 -18 -5 -39.5t-5 -27.5l-4 -17q-4 -27 -4 -127v-114l4 -95q0 -43 4 -90t12.5 -105t10.5 -77v-6
q2 -18 2 -45q0 -21 -2 -27z" />
    <glyph glyph-name="two" unicode="2" horiz-adv-x="1056" 
d="M961 195q-53 -10 -277 -11h-160q-23 0 -82 6.5t-73 8.5q-14 -2 -39 -2l-160 -15q25 51 165 160t218 197q248 135 248 243q0 102 -254 168q-166 0 -246 -63q-18 6 -57 9t-60.5 11t-21.5 35l-2 8q0 8 13 12.5t34.5 6.5t30.5 6q168 78 309 78q152 0 238.5 -86t86.5 -209
q0 -39 -18 -99q-35 -80 -67.5 -117.5t-80 -67.5t-71.5 -52h-14q-49 0 -133.5 -74t-139.5 -92l-4 -4q0 -4 4 -4q6 0 33 7t37 7t29.5 23.5t31.5 23.5h6q25 -14 72 -14q86 37 154 37q55 0 103 -20.5t72.5 -43t48.5 -47t26 -26.5z" />
    <glyph glyph-name="three" unicode="3" horiz-adv-x="999" 
d="M150 303q16 43 29.5 58.5t21.5 11.5t23.5 9t35.5 52q127 -121 217 -121q33 0 60.5 11.5t70.5 42t51 34.5q16 0 39 24t23 52v25q0 39 -19 71q-45 76 -167 76q-119 -37 -203 -37q-55 0 -56 21q0 31 86 80q57 -10 103 -11q125 0 127 105v8q0 135 -129 135q-16 0 -82 -12
q-33 -4 -84 -26.5t-51 -39.5l-4 -16v-18q-14 20 -33 20q-8 0 -13.5 -5t-13.5 -15.5t-10 -14.5q-10 -10 -14 -10q-4 4 -4 18l-2 25v41q0 29 4 61q37 47 69.5 66.5t76.5 24t50 6.5l15 2l14 -2h33q119 0 189.5 -63.5t70.5 -133.5q0 -33 -7.5 -66.5t-15.5 -52t-12 -22.5
q170 -51 170 -244q0 -12 -3 -35.5t-3 -34.5q-6 -47 -58.5 -110.5t-101.5 -87.5q-47 -18 -106 -19q-10 -2 -35 -2q-82 0 -212 46t-140 73z" />
    <glyph glyph-name="four" unicode="4" horiz-adv-x="759" 
d="M440 766q2 23 6.5 36t4.5 21v47q0 31 -6.5 56.5t-8.5 42.5q-4 2 -33 2q-102 -53 -163 -266q0 2 49 3t98 1t49 4q0 12 4 53zM621 756q0 -4 1 -24.5t2 -34t4 -33t8 -33t13 -21.5q-10 2 -45 2q-25 0 -29 1t-18 1v-10v-127q0 -129 4 -174q0 -2 6 -20l6 -17v-6
q0 -10 -60 -32.5t-67 -30.5q-10 16 -10 69q0 20 2 65.5t2 69.5q0 8 -2 22.5t-2 20.5q0 14 5 67.5t5 78.5v20h-12q0 2 -5 1t-11 -1t-6 2q-31 0 -77 5.5t-63 5.5q-47 0 -65 -33q-2 20 -46 76.5t-67 74.5h2q33 0 83 82t99.5 163t81.5 81q66 0 101 8q12 4 21.5 10.5t19.5 18.5
t16 16v-14v-29v-6q0 -18 14.5 -81.5t14.5 -80.5q0 -2 -3 -32.5t-3 -53.5q0 -61 16 -102q4 0 32 17.5t32 17.5z" />
    <glyph glyph-name="five" unicode="5" horiz-adv-x="966" 
d="M213 352q80 -63 246 -63q88 0 132 41t44 149q0 49 -6 76q-18 51 -53 84t-83.5 46t-89.5 18.5t-98 7.5t-84 6q6 31 6 47q0 49 -14 150.5t-14 117.5q0 6 8 6q6 0 30.5 -7t36.5 -7h7q29 4 81 16.5t74 12.5q41 0 125 -23.5t123 -30.5l4 -2q0 -4 -8 -11t-20.5 -15t-16.5 -15
q-22 -6 -22 -23q0 -9 7 -27.5t7 -20.5q-41 25 -136.5 43t-185.5 18v-11t1 -8t0 -5t-5 -4q-8 -2 -8 -11q0 -6 9 -20.5t9 -26.5q0 -20 -4 -34.5t-4 -16.5q0 -6 8 -14l205 -2q31 -29 80 -48.5t88 -53.5t72 -111q18 -51 18 -101q0 -121 -86 -207t-237.5 -86t-308.5 78
q-10 4 -31 6t-34 5.5t-13 11.5v10q0 25 21.5 34t60.5 11t59 10z" />
    <glyph glyph-name="six" unicode="6" horiz-adv-x="890" 
d="M162 813q2 12 5 52t9 56.5t22.5 45t52.5 49t91 37.5q147 0 309 -78q10 -4 32 -6t35 -5t13 -12l-2 -4v-6q0 -37 -27.5 -56.5t-77 -34.5t-73.5 -32q-4 2 -40 44t-76 64.5t-93 22.5q-43 -18 -57.5 -38.5t-18.5 -58.5t-12 -60q8 -143 31 -213q14 37 66 62.5t118 25.5
q141 0 225 -117q35 -29 35 -90l-24 -174q0 -33 -29 -58q-51 -43 -121 -43q-43 0 -127 23.5t-121 30.5q-66 18 -107.5 145t-41.5 309q0 33 4 119zM547 559q-18 2 -51 2q-82 0 -123 -30.5t-41 -77.5q0 -49 39 -98.5t104 -73.5q10 4 29 4q14 0 35.5 -5.5t25.5 -5.5q2 0 4 2l2 3
q16 6 21.5 9t11.5 10t6 19q0 20 16.5 81t16.5 77q0 10 -4 14z" />
    <glyph glyph-name="seven" unicode="7" horiz-adv-x="784" 
d="M612 862q-16 0 -85.5 17.5t-94.5 17.5q-53 0 -82 -6q-33 -8 -114.5 -40t-96.5 -36v19q2 16 7.5 25t12.5 17.5t11 14.5q14 16 32.5 28.5t20.5 12.5q8 7 8 15.5t-8 17.5q-4 6 -4 14q6 -6 53 -6q18 0 47 2h29h62q307 -4 311 -4l14 -2v-15q-4 -20 -15 -39.5t-13 -27.5l-9 -15
q-4 -8 -39 -124q-6 -23 -16 -63t-12 -54l-27 -135q-18 -59 -53 -250l4 -33q-2 -6 -17.5 -36t-17.5 -32q-16 -47 -40.5 -127.5t-38 -121.5t-35 -87.5t-44.5 -70.5q-16 -14 -96 -34.5t-108 -20.5q113 113 172 220t129 367q20 72 33 123q2 8 22 111l-4 16q2 2 10 33q2 6 31 139
z" />
    <glyph glyph-name="eight" unicode="8" horiz-adv-x="983" 
d="M281 598q-23 -51 -23 -72q0 -18 15.5 -42.5t17.5 -53.5q8 -51 62.5 -87t121.5 -36q115 0 176 94q16 0 38 24t22 52v25q0 35 -17 71q-47 76 -170 76q-25 -4 -93.5 -5t-105 -10t-44.5 -36zM262 672q-67 58 -67 141q0 33 4 49q0 43 4 58q10 39 21.5 63.5t28.5 37.5t26.5 18
t34 9.5t30.5 6.5l12 2l17 -2h33q119 0 189.5 -63.5t70.5 -133.5q0 -33 -7.5 -66.5t-15.5 -52t-12 -22.5q170 -51 170 -244q0 -12 -3 -35.5t-3 -34.5q-6 -47 -58.5 -110.5t-101.5 -87.5q-47 -18 -107 -19q-18 -2 -57 -2q-129 0 -205 44t-96 114q-33 98 -33 160q0 35 8.5 60.5
t32 48t36.5 30.5t48 31zM354 713q57 -10 103 -11q125 0 127 105v8q0 135 -131 135q-14 0 -80 -12q-33 -6 -57.5 -46t-24.5 -83q0 -69 63 -96z" />
    <glyph glyph-name="nine" unicode="9" horiz-adv-x="868" 
d="M707 422q-2 -12 -5.5 -53t-9.5 -56.5t-22.5 -45t-52 -49t-91.5 -36.5q-147 0 -309 78q-10 4 -30.5 6t-34 5t-13.5 12v4q2 4 2 6q0 37 28 55.5t77 34.5t73 33l37 -43q37 -45 77 -66.5t93 -21.5q43 18 57.5 37.5t18.5 57.5t12 60q-8 145 -30 215q-14 -39 -65.5 -63.5
t-117.5 -24.5q-143 0 -227 117q-33 29 -33 90l23 174q0 33 29 58q51 43 120 43q43 0 127 -24t121 -30q66 -20 108 -147t42 -307q0 -37 -4 -119zM322 676q20 -4 53 -4q82 0 122 30.5t40 77.5q0 49 -39 99.5t-105 74.5q-8 -4 -28 -4q-14 0 -35 4t-27 4h-4l-2 -2
q-2 -2 -11.5 -6t-11.5 -6t-7 -6t-6 -9t-1 -14q0 -20 -17.5 -79.5t-17.5 -75.5q0 -10 4 -15z" />
    <glyph glyph-name="colon" unicode=":" horiz-adv-x="208" 
d="M27 958q0 29 43 29q57 0 59 -6q31 -70 31 -109q0 -16 -22.5 -33.5t-45.5 -23.5q-2 0 -6 -1t-6 -1q-53 0 -53 129v16zM35 451q0 12 28.5 32.5t45.5 20.5q20 0 26 -12q31 -70 31 -109q0 -18 -22.5 -45t-43.5 -31q-2 0 -6 -1t-6 -1q-53 0 -53 129v17z" />
    <glyph glyph-name="semicolon" unicode=";" horiz-adv-x="208" 
d="M37 928q0 12 32.5 34.5t49.5 22.5q20 0 26 -12q31 -70 31 -109q0 -18 -26.5 -47t-47.5 -33q-2 0 -6 -1t-6 -1q-53 0 -53 129v17zM166 193q2 -16 2 -48q0 -94 -46 -218t-54 -165q-39 240 -39 263q0 14 2 18q10 20 10 45q0 16 -5 37.5t-5 28.5q0 18 20 22q16 2 48 17.5
t44 15.5q15 0 23 -16z" />
    <glyph glyph-name="less" unicode="&#x3c;" horiz-adv-x="618" 
d="M512 463q8 -8 -7.5 -27.5t-8.5 -23.5q4 -4 18 -11.5t27 -21.5l12 -17q10 -16 12 -32v-17q-152 59 -180 66q-25 4 -70 4q-39 6 -159 184l-31 39q-12 0 -48 49.5t-40 49.5q27 20 137 67q2 0 22.5 38t58.5 77t85 43q10 0 67.5 48t67.5 48q16 0 33 16q0 -2 3 -2t9 -2t12 -8
q4 -10 5.5 -46t3.5 -46l-9 -20q-6 2 -16 2q-35 0 -81 -47.5t-48 -49.5q-51 -31 -87 -56.5t-43 -32.5t-21.5 -15t-24.5 -11t-49 -14l26 -45q25 -45 66 -87t86 -42q2 0 28.5 -12t30.5 -12q76 0 113 -33z" />
    <glyph glyph-name="equal" unicode="=" horiz-adv-x="616" 
d="M461 846q6 -6 24.5 -29.5t37 -40t36.5 -18.5q-37 -10 -53 -10q-20 0 -35 2q-12 -6 -29 -7q-25 0 -80 16.5t-69 16.5q-45 0 -70 -4q-29 -6 -98.5 -32.5t-81.5 -30.5v14q2 16 14.5 31.5t12.5 17.5q10 12 23 42t20 36q14 12 0 27q-2 4 -2 14q14 -16 30 -17q10 0 53.5 3.5
t51.5 3.5q154 -15 215 -35zM467 614q8 -8 27.5 -35.5t40 -49t38.5 -23.5q-37 -10 -53 -10q-20 0 -35 2q-14 0 -85.5 13t-92.5 13q-45 0 -69 -4q-29 -6 -98.5 -32.5t-82.5 -30.5v14q2 16 14.5 31.5t12.5 17.5q10 12 19.5 52t15.5 46q14 12 0 27q-2 4 -2 14q14 -16 30 -16
q10 0 53.5 3t51.5 3q154 -15 215 -35z" />
    <glyph glyph-name="greater" unicode="&#x3e;" horiz-adv-x="618" 
d="M90 463q37 33 113 33q4 0 30.5 12t28.5 12q45 0 86 42t66 87l26 45q-39 10 -49 13.5t-24.5 11.5t-21.5 15t-43 33t-87 56q-2 2 -48 49.5t-81 47.5q-10 0 -16 -2l-9 20q2 10 3.5 46t5.5 46q6 6 12 8t9 2t3 2q16 -16 33 -16q10 0 67.5 -48t67.5 -48q47 -4 85 -43t58.5 -77
t22.5 -38q111 -47 137 -67q-4 0 -40 -49.5t-48 -49.5q-29 -39 -31 -39q-121 -178 -159 -184q-45 0 -70 -4q-29 -6 -180 -66v17q2 12 6 20t10 15.5t8 13.5q12 14 26.5 21.5t18.5 11.5q6 4 -9 23.5t-7 27.5z" />
    <glyph glyph-name="question" unicode="?" horiz-adv-x="626" 
d="M289 -31q-27 18 -100.5 20.5t-88.5 18.5q-8 16 -8 45q0 14 2 35t2 23q0 20 27 20q2 0 21.5 5t21.5 5q35 -12 47 -19t17.5 -18.5t6.5 -22.5t13 -42t39 -70zM106 1135q-6 -2 -16 -2q-14 0 -29.5 32.5t-31.5 40.5l30 94q45 23 109.5 66t109 65.5t84.5 22.5q59 0 117 -47
l49 -135q2 -14 2 -45v-2l-288 -873v-24q0 -70 30 -115l-166 82l-22 59v11q0 78 46 186t100.5 199.5t99.5 189.5t45 158v8q22 55 22 91v3v8q0 39 -11 53.5t-60 14.5q-14 0 -46 -11.5t-49 -11.5q-10 0 -58.5 -56t-66.5 -62z" />
    <glyph glyph-name="at" unicode="@" horiz-adv-x="626" 
d="M508 528q16 49 16 127q0 25 -18.5 66t-22.5 53q-51 137 -96 137l-10 -2q0 -4 23.5 -116.5t25.5 -112.5q61 -39 61 -59q0 -10 -19 -14.5t-51 -6.5t-46 -6q-147 98 -148 231q0 68 40 114t99 46q61 0 122 -55.5t108 -171.5q12 -45 12 -99q0 -125 -33 -198q-37 -76 -94 -117
q-70 -49 -158 -49q-86 0 -155.5 43t-91.5 104q-47 129 -47 252q0 141 57 238.5t170 99.5q16 -4 33.5 -13t25.5 -15l8 -7q-8 -2 -22 -2h-12q-41 0 -69 -32.5t-77 -137.5q-16 -49 -16 -57v-16q0 -6 5 -9.5t12 -7.5t12 -8q-12 -49 -13 -111q0 -98 47 -161.5t129 -63.5h4h21
q41 0 66.5 4t42 21.5t22.5 26t19.5 42t17.5 43.5z" />
    <glyph glyph-name="A" unicode="A" horiz-adv-x="937" 
d="M451 870q78 -2 156 -3l-37 91l-8 4h-4q-5 0 -10 2.5t-7.5 7.5t-2.5 10v36v3q0 13 -9 33q-45 -35 -52 -93q-2 -13 -26 -91zM349 879q94 243 239 379l158 -448q1 -3 4 -7l26 -32q-9 -2 -13.5 -9t-3.5 -15q51 -258 95 -731q38 -424 42 -578q-54 48 -118 68q-54 17 -75 24
l4 227q0 9 -5 14l-6 5v361q0 75 -23 360q-23 235 -27 282q-1 7 -6 12.5t-12 6.5q-66 8 -133 8q-61 0 -89 -9q-9 -2 -12 -11q-23 -57 -128 -399q-103 -332 -161 -413l-1 -1q-14 5 -33 17q-13 9 -21 14q1 7 -1 16q-3 23 -17 32q-3 2 -7 9l-8 12q-2 4 -7 6l-2 2q4 1 14 4
q22 6 34 10q4 2 7 4q54 54 102 195q46 136 86 295q39 157 50 191q2 8 -2.5 15.5t-12.5 9.5q-6 1 -11 0q-25 -9 -69 -32q-24 -13 -44 -21q3 10 8 17q13 14 17 17l2 2q13 16 28 25q11 6 16 9q3 1 5 1q18 10 21 28q18 0 45 9q21 6 27 6q13 1 18 13z" />
    <glyph glyph-name="B" unicode="B" horiz-adv-x="979" 
d="M313 1062l-8 -15q-2 -2 -3 -5l-3 -20q-16 -69 -16 -225v-64q0 -7 4.5 -13t11.5 -7q77 -15 149 -18q97 0 149 44.5t53 129.5v10q0 26 -7 54q-6 28 -22 67q-19 45 -67 70q-44 24 -114 24h-1q-30 -2 -113 -22q-9 -2 -13 -10zM298 596l-7 -70v-3v-154q0 -12 4 -103
q0 -6 3 -10q93 -134 212 -139q137 0 221 132q26 6 58 37q37 38 37 89v3v35q0 70 -30 113q-65 103 -226 104h-1h-3q-146 0 -160 -10q-16 -10 -102 -12q-4 0 -6 -12zM212 733v41q0 45 -27 228q-2 9 -9 14q-4 3 -10 3q-3 0 -6 -1q-4 -1 -8 -3q-34 -26 -40 -63q-15 7 -30 7
q-19 0 -36 -15q-12 -12 -24 -39q-3 -6 -7 -12q-1 10 -1 25q-2 33 -2 56q0 46 6 79q35 51 80 81q46 32 67 40t68 16q48 7 55 7q6 0 11 3l13 9q6 -12 18 -12h44q161 0 255 -85q93 -83 93 -171q0 -72 -16 -128q-5 -18 -10.5 -34t-9 -23l-4.5 -9q-6 -7 -6 -15q0 -1 -1 -1
q0 -8 7 -13q3 -3 8 -4q112 -35 167 -120t55 -224q0 -18 -4 -52t-4 -49q-11 -66 -80 -149q-70 -84 -137 -114q-64 -26 -145 -26q-125 0 -213 56q-5 3 -10 3q-3 0 -5 -1q-8 -2 -12 -7.5t-24.5 -15t-53.5 -17.5q-42 -10 -74 -15q78 130 80 366q0 50 -10 168q-1 5 -3 9l-6 8
q8 21 9 71q0 16 -4 61t-4 67z" />
    <glyph glyph-name="C" unicode="C" horiz-adv-x="928" 
d="M183 408v-40q0 -19 18 -48t65 -93q88 -121 229 -122h31q83 0 150 29q77 32 98 66q25 31 47 70v-11v-1q1 -6 1.5 -17t1 -15t1.5 -10.5t2.5 -10.5t4.5 -8q10 -22 14 -31v-14q0 -6 -8.5 -18t-31 -32.5t-54.5 -43.5q-114 -78 -257 -78q-144 0 -249 69q-112 71 -148 166
q-78 210 -78 402v19q0 234 114 398q110 161 287 163q20 -9 61 -41q34 -33 60 -70l3 -5h-18q-10 2 -61 16q-46 12 -72 12q-43 0 -105 -65q-52 -54 -95 -157q-32 -75 -33 -100v-1v-28q0 -26 16 -36l1 -1q9 -5 21 -8q-14 -134 -16 -182v-23v-22v-19v-42v-8.5v-8.5z" />
    <glyph glyph-name="D" unicode="D" horiz-adv-x="935" 
d="M140 1181l-1 6q16 4 46 12q56 13 90 27q10 5 20 9v-13q0 -8 6 -14t14 -6h35q111 0 224 -77q114 -78 192 -215q33 -62 68 -231q34 -171 34 -290q0 -118 -34 -227q-26 -66 -100 -124t-153 -58h-7q-21 0 -27 4q-3 2 -7 3q-14 4 -53.5 17t-60.5 23q-3 2 -7 2l-110 10
q-9 1 -15.5 -5.5t-6.5 -14.5v-8q-14 -11 -57.5 -20t-110.5 -10q77 130 82 368v192q0 5 -3 9l-8 16q2 14 3 47q0 44 -4 135l-11 158q0 14 -16 144q-1 10 -9 15t-17 2q-30 -10 -46 -41q-14 -25 -25 -61q-4 -13 -7 -23q-14 17 -28 25q-16 11 -41 11h-14q18 23 43 56
q65 86 115 129q8 8 7 18zM262 1070v-24q0 -16 3 -52q3 -33 3 -55q0 -31 6 -143q5 -95 5 -124v-8v-2l8 -132q3 -50 4 -103q1 -25 1 -49v-16q0 -15 -1 -28q-1 -40 -1 -78t0.5 -64t4 -47.5t11 -32t19.5 -10.5q2 -1 3 -2q5 -2 10 -2h8q18 0 40 6q18 5 24 5q9 0 54 -11
q14 -3 28.5 -7t24.5 -6.5t19 -5t15.5 -4t11.5 -1.5q59 0 96 36q17 17 28 36q10 16 21 34t16 27q6 11 14 34q6 22 7.5 28t4.5 29q4 25 4 34q0 6 4 31q4 28 4 37q0 10 4 38q4 31 4 40q0 153 -45 298q-47 149 -151 214q-2 1 -4 3q-16 6 -30 -2q-13 26 -22 39q-12 18 -45 38
q-34 22 -87 22q-10 0 -30 4q-24 4 -38 4q-32 0 -48 -12q-8 -6 -8 -16z" />
    <glyph glyph-name="E" unicode="E" horiz-adv-x="716" 
d="M183 -15l-2 -28q-24 -23 -103 -31q75 126 80 360q0 144 -25 380q-1 5 -3 9l-9 13q6 16 9 49v2q0 14 -13 23l-3 4q-8 13 -21 8q-33 -9 -72 -36l4 14q4 10 14 22q54 30 55 70q5 -1 10 0.5t8 5.5t5 8q1 3 1 6v45q0 61 -24 206q-1 7 -6.5 11.5t-11.5 5.5q-8 34 -30 63l68 2
q5 0 8 2q22 13 50 37v-19q0 -9 6.5 -14.5t13.5 -5.5q16 0 69 4t73 7q18 3 60 7q43 4 69 7q25 4 56 10q34 6 57 15q8 3 16 7q8 -52 42 -96q-12 -7 -21 -20q-10 -14 -19 -14q-155 0 -369 -34q-13 -2 -16 -16q-10 -36 -10 -68v-8q-2 -13 1 -26v-101q0 -8 5 -13.5t13 -6.5
l261 -32q6 -2 7 -4t1 -7v-5.5v-5.5v-5t0.5 -4.5t1 -4.5t1.5 -5t2.5 -4.5t2.5 -4.5q2 -5 11 -20q-3 -7 -4 -18q0 -6 3 -17q2 -9 1 -14q0 -11 -3 -22q-5 6 -10 14q-16 22 -26 34q-11 14 -30 23q-20 10 -51 10q-52 -2 -156 -13q-8 -1 -13 -7.5t-4 -14.5l23 -330q0 -75 15 -239
v-7q0 -10 -1 -13q-5 -7 -2.5 -16t10.5 -12q4 -2 8 -2h37q38 0 113 -2q50 -1 84 -1h30h41q74 0 113 -26q-39 -30 -74 -98l-180 25h-1q-44 4 -107 4q-41 0 -120 -4q-7 0 -12.5 -5.5t-6.5 -12.5zM2555 -542z" />
    <glyph glyph-name="F" unicode="F" horiz-adv-x="294" 
d="M198 64q-30 -68 -52 -161q-22 -94 -42 -221q-18 -122 -28 -182q-86 -98 -162 -98h-1h-7q-18 0 -32 8q-2 9 -4 12l276 904q1 3 0 5q-2 274 -6 339q-1 6 -5 12l-7 8q5 17 5 49q0 7 -3 18q-1 3 -4 6l-5 7q-8 10 -21 8q-34 -9 -74 -40l4 12q6 11 13 20q56 34 59 74
q3 -1 6.5 0t6.5 3t5 4.5t4 6.5l1 6v45q0 68 -23 206q-1 7 -7 11.5t-12 5.5q-9 34 -32 65h69q6 0 10 3q24 14 50 35v-18q0 -6 3 -10.5t8 -7t10 -2.5q294 14 400 54q8 -49 40 -93q-10 -6 -20 -17l-1 -1q-10 -12 -18 -12q-140 0 -370 -38q-14 -2 -16 -16q-10 -48 -10 -90v-6
v-109q0 -8 5 -13.5t12 -6.5l265 -31q5 -1 8 -2v-1q0 -1 -1 -2v-1q-4 -7 -4 -15q0 -15 12 -29q2 -2 11 -19q-3 -5 -4 -11q-1 -2 0 -5q0 -6 3 -20q2 -8 2 -13q0 -13 -3 -23q-6 7 -11 15q-15 22 -24 33q-11 14 -34 25q-20 9 -44 9h-5q-28 0 -83 -5q-54 -4 -70 -4q-9 0 -14.5 -6
t-5.5 -14l2 -117v-335q0 -13 3 -33q2 -18 2 -35l-14 -57q-1 -2 -1 -5q-1 -10 -15 -84z" />
    <glyph glyph-name="G" unicode="G" horiz-adv-x="953" 
d="M791 273q-24 -86 -24 -110v-41q0 -51 -37 -93q-37 -41 -126 -41h-23h-3q-29 -4 -60 -4q-117 0 -260 53q-137 50 -152 112v1q-22 70 -54 332t-32 351q2 158 93 266q91 110 223 112q11 -2 59 -6h2h85q36 -5 87 -8q29 -5 77 -23q5 -2 10 -3l-22 -5q-59 -10 -68 -11h-4
l-117 -19l-109 -15h-14h-14t-12.5 -0.5t-12.5 -1t-10.5 -1t-10 -2.5t-8 -4t-7.5 -5.5t-5 -7.5q0 -1 -1 -1q-2 -5 -27 -57v-1q-18 -44 -39 -62q-4 -3 -5 -8q-7 -18 -15 -32q-10 -15 -10 -26v-18q0 -16 11 -25l10 -11l2 -2q-2 -15 -11 -59q-12 -62 -12 -90q0 -175 51 -389
q26 -110 64 -169t94 -59h212q78 0 117 55.5t39 156.5v91q0 12 -10 181q-9 167 -9 177q0 42 -25 89q-26 47 -36 78q0 1 -1 1q-14 36 -17 69q0 2 -1 4l-13 44q14 -4 32 -10l64 -21q28 -31 46 -40q2 -2 2 -6q6 -15 15 -35q21 -58 21 -174v-11v-39q0 -36 35 -90q22 -34 28 -45
q0 -70 8 -100q0 -68 19 -251q19 -184 26 -319q8 -164 8 -269q-5 -218 -23 -372q-1 -6 3 -12l8 -16q-2 -13 -10 -40v0q-8 -34 -8 -46q0 -52 -95 -141q-94 -86 -182 -108q-70 -18 -308 -21h-7q-76 0 -208 32q-150 34 -191 58l-59 34q28 44 28 85v3v64q0 26 -20 102
q22 -9 50 -34q10 -10 18 -19.5t12.5 -16.5t6.5 -11.5t2 -7.5v-5l27 -74q1 -3 3 -5q81 -103 272 -103q105 0 247 34q166 34 215 82q70 38 72 149q86 227 87 470v5v38q0 106 -24 291l-32 250q-1 0 -7 -18z" />
    <glyph glyph-name="H" unicode="H" horiz-adv-x="651" 
d="M282 39q-20 -18 -100 -38q-96 -23 -162 -25q77 94 94 142v2q11 45 11 98v64q0 16 -6 118q-5 101 -5 115q0 10 -8 16t-16 3q-17 -5 -57 -24q-10 -5 -19 -8q7 12 18 28q0 1 1 0q9 15 24 26q18 12 27 22q16 10 15 25v5q3 2 5 5q3 5 3 11v38q0 16 -8 85q-7 67 -7 86v36
q0 53 -8 110.5t-22 112.5q-8 36 -11 56q122 48 160 71l32 -14q-2 -14 -5 -31q-6 -27 -7 -44l-7 -20q-1 -2 -1 -4q-5 -39 -8 -182q0 -31 4 -113q4 -81 4 -96v-1l8 -92q0 -4 2 -7t5 -5.5t6 -4t7 -1.5q14 0 34 5q15 3 21 3q101 -8 143 -26q8 -3 16 0.5t11 11.5l1 7q0 66 11 281
q12 217 12 277v26q22 -2 58 -11q40 -10 67 -12v-22q-11 -64 -41 -198q-30 -138 -41 -236q-1 -5 2 -10l8 -23q-7 -52 -7 -139q0 -8 5 -14l5 -4q-10 -6 -10 -18q0 -261 104 -522q-16 1 -34 2q-26 2 -56 5q-21 2 -34 6l-22 58q-27 376 -27 451q0 12 -11 18q-10 5 -53 18
q-42 13 -67 13h-4q-28 0 -65 -8q-24 -1 -35 -17q-4 -5 -4 -11q0 -194 30 -427q0 -2 1 -3l8 -28q3 -11 5 -18z" />
    <glyph glyph-name="I" unicode="I" horiz-adv-x="240" 
d="M58 1196q21 -2 72 -14q66 -14 97 -16q1 -2 1 -3q2 -7 2 -9q-1 -2 -1 -4q-15 -74 -47 -203q-32 -130 -48 -218q-2 -7 3 -14l12 -20q-4 -55 -7 -141q0 -333 96 -573q-12 -1 -20 -1q-93 0 -141 64l-27 66q-23 289 -26 517z" />
    <glyph glyph-name="J" unicode="J" horiz-adv-x="300" 
d="M117 1195q19 -3 55 -14q54 -15 85 -17v-2q2 -10 2 -18q-15 -74 -46 -198q-32 -128 -49 -220q-1 -6 2 -11l10 -24q-4 -56 -4 -142q0 -344 106 -589q-3 -10 -6 -25v-2q0 -12 4 -63q3 -50 3 -79q0 -102 -25 -182q-134 -429 -168 -637q-141 -126 -165 -228q-14 41 -14 91
q0 58 13 131q13 74 24 113q11 42 43 146q16 52 26 85t14 47q106 300 106 529q0 106 -26 220q-23 290 -23 517z" />
    <glyph glyph-name="K" unicode="K" horiz-adv-x="800" 
d="M502 489q-10 10 -26 9h-4q-2 5 -2 9q-7 30 -25 76q-17 44 -37 75q-4 15 -16 27t-36 29q-50 36 -85 36q-6 0 -11 -3q-14 -10 -22 -15q-2 -1 -3 -2h-3q-14 -2 -30 -3q-8 0 -13.5 -6.5t-5.5 -13.5l-3 -197q0 -90 26 -355v-6q0 -3 -8 -51v-2q-2 -25 -8 -58l-5 -29
q-19 -12 -86 -22q-56 -7 -98 -9q83 135 83 368q0 104 -8 164q0 2 -1 4l-6 20v138q0 20 -3 67q-2 46 -3 66v2l-5 35q0 52 -5 118q-6 66 -14 131q-5 42 -9 63q18 6 52 18q53 19 92 38q18 9 31 17q-3 -35 -22 -122l-2 -19q-9 -34 -9 -162v-68q0 -15 14 -19q11 -3 32 -3
q67 0 108 69q37 62 78 177q36 103 63 150q-1 -5 -1 -7q0 -14 6 -23q6 -12 19 -27q10 -12 14 -19q3 -7 10 -9l7 -3q-2 -4 -2 -7q0 -10 2 -44q-54 -79 -157 -231q-4 -6 -8.5 -7.5t1.5 -6.5q95 -87 140 -168q46 -81 65 -144q20 -67 46 -97l251 -457h-3l-158 18q-9 5 -15 5
q-2 0 -3 11q-1 3 -3 6q-18 35 -36 171q-33 191 -140 298z" />
    <glyph glyph-name="L" unicode="L" 
d="M164 -19l-2 -27q-13 -10 -54.5 -19t-103.5 -13q75 130 75 364q0 31 -8 129q-8 96 -8 116q0 6 -4 12l-9 12q4 14 4 39v8q0 73 -7 132v40q0 271 -14 396q95 29 142 56q-2 -21 -5 -44q-6 -29 -6 -36l-6 -20q-1 -2 -1 -3q-27 -194 -27 -307v-161v-1l8 -132q0 -81 15 -226
q14 -142 19 -169v-25q0 -20 5 -20h15h34q267 10 363 14q-2 -2 -3 -5q-17 -27 -37 -77q-10 -25 -17 -36l-180 21q-46 4 -109 4h-21h-7h-5h-14q-6 0 -12 -4q-9 -1 -14 -6t-6 -12z" />
    <glyph glyph-name="M" unicode="M" horiz-adv-x="778" 
d="M522 738l-79 -76q-7 -7 -5 -18q2 -10 8 -14q29 -18 29 -89v-30q-14 -6 -30 -13q-14 -6 -21 -10l-6 2q-2 5 -4 11q-5 19 -16 26q-42 30 -70 89q-49 105 -150 122q-15 2 -16 2t-15 12q-2 2 -2 -9v-17v-2l8 -131q0 -163 30 -485q0 -3 2 -6l9 -24q9 -20 11 -24v-1q0 -1 1 -2
q0 -7 -8 -35l-6 -23l-8 -27q-2 -5 0 -10q29 -142 29 -318v-2q0 -135 -143 -352q-2 -3 -14 -10.5t-39.5 -19t-61.5 -22.5q-62 -20 -101 -29q106 158 169 346q71 215 71 483q0 50 -2 102l-8 172q0 183 -26 292v1l-6 19q6 17 6 54q0 12 -4 60q-4 46 -4 69v40q0 66 -19 169
q-14 73 -17 103q89 29 140 69l-16 -73q-1 -2 0 -5v-18q-8 -53 -8 -151v-5q8 -31 111 -122q93 -82 94 -85q5 -15 19 -12q9 2 10 3q122 72 183.5 188.5t61.5 194.5v15q0 30 -15 61v22q20 -15 51 -53q49 -58 78 -69l2 -8q2 -14 2 -15q-31 -130 -37 -160q-28 -139 -38 -160
q-6 -7 -6 -16q0 -10 9 -23q3 -5 7 -9q-6 -62 -6 -144q0 -298 73 -476l36 -82h-33q-46 0 -86 18l-22 60q-30 384 -30 547v161q-2 5 -3 12l3 22q-18 -11 -22 -14q-13 -6 -14 -7q-14 -17 -36 -41z" />
    <glyph glyph-name="N" unicode="N" horiz-adv-x="666" 
d="M457 390l69 832q11 0 40 -3t55 -4q0 -3 1 -6q0 -1 1 -3q1 -3 -1 -7v-2q-17 -102 -53 -281q-47 -263 -47 -307q0 -9 8 -39q-8 -78 -8 -145q0 -57 4 -112q5 -59 27 -117q11 -33 21 -75v-2q3 -10 37 -88l20 -45q-4 1 -9 2h-2q-72 8 -104 18l-5 20v13q0 62 -79 216
q-106 206 -266 462q-3 6 -4 -21q0 -55 -1 -55q3 -1 3 -43l4 -135q0 -57 8 -119q12 -90 22 -144l15 -99q1 -21 8 -43q-26 -31 -71 -49q-16 -7 -66 -19v19q0 68 17 126q1 3 1 6q-1 25 -3 84v89q0 89 -13 160v2l-6 18q4 16 4 55q0 87 -5 129l-3 38q0 38 -26 249
q-15 141 -18 185q58 21 104 63l2 -3v-79v-3q12 -75 131 -329q187 -399 188 -409z" />
    <glyph glyph-name="O" unicode="O" horiz-adv-x="1023" 
d="M606 1119h36q16 0 23 -1q149 -148 269 -392q21 -73 21 -149v-7q0 -95 -21 -195q-21 -98 -33 -133q-70 -130 -154 -184h-1q-113 -78 -251 -78q-137 0 -249 68t-148 167q-78 217 -78 417q0 235 95 403q90 161 271 162q25 -6 47 -16q-67 -5 -119 -72q-51 -66 -140 -247
q-1 -2 -1 -3q-28 -93 -28 -104v-29q0 -21 16 -33q11 -8 29 -12l1 -1q-18 -91 -19 -180q0 -169 85 -281q86 -114 238 -117h35q58 0 101 8t69 18q30 12 53 44q20 29 28 46q8 16 26 58t27 66q27 88 27 215v7q0 42 -32 115q-29 68 -40 91q-81 199 -183 349z" />
    <glyph glyph-name="P" unicode="P" horiz-adv-x="391" 
d="M193 559l-8 78v219q0 96 -15 203q-2 9 -9 14t-15 2q-5 -1 -9 -4q-37 -30 -45 -65q-15 6 -33 7q-4 2 -8 1q-37 0 -58 -22l11 80q29 26 82 77q34 31 44 37q10 1 55 12q38 9 53 16l17 8q6 -11 19 -11h48q153 0 237 -86q70 -70 82 -180q3 -33 3 -56v-9q-4 -46 -6 -59
q-10 -38 -62 -80h-1q-30 -26 -98 -36q-94 -15 -120 -16h-12h-11h-10t-9.5 -0.5t-8 -1t-7 -1.5t-6 -2.5t-6.5 -3.5q-8 -6 -8 -16v-55q0 -80 16 -266q15 -184 15 -199v-2l-7 -125q-13 -12 -57 -22t-110 -13q57 138 57 554v21v2zM290 1112l-8 -12q-2 -2 -2 -6l-7 -25v-2
q1 -1 1 -23q0 -55 -4 -238q0 -5 2 -9q2 -3 -2 -9q-2 -3 -2 -5t2 -2l48 -7q23 -8 48 -8h5q96 0 147.5 44t51.5 129v11v1q-4 89 -60 135t-156 46q-11 0 -52 -12q-8 -2 -12 -8z" />
    <glyph glyph-name="Q" unicode="Q" horiz-adv-x="1052" 
d="M747 170q22 17 38 40q17 23 23 44q6 18 16 53q10 33 13 43q28 82 28 220v43q0 141 -31 184l-1 1q-50 58 -90 115q-39 57 -84 127q-28 44 -49 74l71 12l1 -1q216 -199 290 -355q18 -56 18 -130v-27q0 -96 -20 -197q-18 -99 -32 -128q-15 -27 -58 -92q-43 -67 -77 -102
q-6 -6 -5.5 -13.5t4.5 -13.5q54 -67 108 -113q-14 6 -56 28h-1q-40 18 -89 64q-6 5 -13.5 5.5t-11.5 -3.5q-98 -68 -236 -68q-137 0 -253 70q-114 69 -144 164q-78 214 -78 418q0 230 103 404q99 168 276 169q27 -7 51 -21v0q1 0 2 -1q-78 -2 -146 -77q-65 -73 -144 -244
q-1 -2 -1 -4l-27 -106q-1 -2 0 -5v-21q0 -19 11 -32q9 -10 26 -16q3 -2 7 -2q-20 -78 -22 -174q0 -176 87 -291q89 -118 240 -121h67q64 0 131 33q7 3 10 11t-1 14q-14 37 -20 71q-2 10 -2 19q20 -34 42 -64q6 -6 15 -7.5t14 3.5z" />
    <glyph glyph-name="R" unicode="R" horiz-adv-x="964" 
d="M549 763q69 -42 133 -191q62 -141 80 -161q47 -80 94 -159q35 -54 42 -66q6 -17 6 -24q0 -18 22 -72q17 -43 46 -114h-15q-37 4 -56 4q-29 0 -38 5q-51 31 -74 45q-21 50 -37 151q-19 104 -59 219q-39 117 -122 229q-3 4 -7 5q-7 3 -14 3q-9 0 -17 -6q-11 25 -23 39.5
t-30 17.5q-2 1 -4 1q-6 0 -27 -4q-18 -3 -29 -3q-13 0 -42 6q-4 1 -8 1q-8 -2 -22.5 -4.5t-21 -3.5t-17.5 -3.5t-16 -4t-12 -4.5t-11 -6.5t-8 -8.5q-2 -2 -2 -5l-8 -27q-1 -3 -1 -5q0 -235 25 -474v-5l-16 -130q-18 -12 -74 -21q-46 -7 -85 -9q81 122 81 339v22
q0 219 -8 280q0 2 -2 6l-4 10q6 17 6 57v2l-8 130q0 2 -1 2l-7 32q0 53 -4 91l-8 78q-4 42 -15 66q-4 9 -13.5 11t-15.5 -3q-34 -24 -40 -67q-16 8 -29 8h-3q-18 0 -31 -13t-29 -39q6 59 14 83q36 52 66 74q38 26 51 33q31 6 42 6h3h15h13t10 0.5t10 2.5q3 1 9 4l12 6
q6 -10 17.5 -9.5t52.5 13.5l36 8q163 -1 228 -64q65 -62 65 -155q0 -85 -11 -127q-9 -38 -52 -71q-7 -6 -8 -16q0 -11 6 -15zM259 1131v-15l-6 -15q-1 -2 -2 -5q-3 -104 -3 -291l-1 -12q0 -3 6 -4q22 -4 38 -11q21 -8 45 -8h6q97 0 148.5 44t51.5 129v4q0 103 -53.5 157.5
t-154.5 54.5q-8 0 -58 -8q-7 -1 -12 -7t-5 -13z" />
    <glyph glyph-name="S" unicode="S" horiz-adv-x="993" 
d="M122 181q112 -87 354 -87q138 0 206 61q70 62 70 230v3q-5 30 -13 104q0 2 -1 4q-32 91 -83 142q-52 52 -102 64q-44 10 -102 28q-55 18 -97 52q-119 98 -124 300q0 42 31 65q1 0 1 1q63 57 152 57h6q57 0 174 -31q94 -26 149 -36q-7 -6 -16 -12q-17 -12 -24 -21
q-35 -16 -40 -50v-2q0 -15 6 -29q2 -4 4 -10q-31 10 -63 28q-55 33 -142 48q-7 3 -25 13q-24 14 -38 16h-2q-10 0 -21 -8q-5 -2 -11 -5q-14 -6 -19 -8q-8 -4 -17 -16q-8 -10 -11 -21q-2 -10 -2 -23v-7q0 -114 61 -169q5 -4 11 -5l144 -20q41 -38 118 -73q75 -34 138 -87
q60 -52 104 -158q21 -71 21 -125v-5v-4q0 -165 -116 -283t-327 -118h-6q-193 0 -427 106q-18 10 -49 16q-28 5 -46 8q-1 0 0 3v1l-2 9q2 17 20 26q28 13 79 16q48 3 77 12z" />
    <glyph glyph-name="T" unicode="T" horiz-adv-x="704" 
d="M486 -35q-5 21 -5 55v12q0 30 4 94q4 66 4 100q0 10 -4 32q-4 18 -4 24q0 121 -8 169q-1 4 -4 9l-7 10q6 17 6 56q0 14 9 108v1q4 95 4 120v116q-13 101 -13 203q0 1 -1 1q0 16 -1 17q-5 5 -16.5 5.5t-16.5 0.5h-17.5h-13.5q-28 0 -136 -9q-88 -7 -133 -8q-9 26 -35 83
q-14 31 -30 53q229 -25 277 -27h1q131 2 145 7l6 2q22 11 52 42q-1 -6 -3 -10q-2 -5 0 -11q2 -9 5 -10q5 -1 10 -4q2 -1 5 -1q300 14 400 53q14 -102 41 -156q-46 3 -73 3h-103q-6 2 -19 2h-6q-18 -1 -60 -2q-126 0 -148 -15q-2 -1 -3 -1l-18 2q-5 -5 -5 -15q0 -11 7 -29
l7 -21q4 -14 4 -44v-410l2 -132q0 -2 1 -5q29 -120 29 -349v-4l8 -32q1 -4 1 -5l3 -5l3 -11q-14 -14 -72 -35q-54 -19 -79 -29z" />
    <glyph glyph-name="U" unicode="U" horiz-adv-x="1021" 
d="M846 160q0 -6 -8.5 -18t-31.5 -34t-54 -45q-112 -78 -253 -79q-137 0 -252 68q-114 67 -146 166q-77 210 -77 406v8q0 195 22 426q14 142 28 196q4 -17 8 -43q1 -6 4 -9q18 -24 48 -34q24 -9 42 -10v-46q0 -92 -12 -180q-23 -84 -26 -166v-27q0 -17 14 -29q10 -9 24 -16
q2 -1 5 -2q-17 -103 -17 -177q0 -175 84 -297q86 -125 236 -128h30q110 0 172 54q58 52 89 126q26 63 38 77q25 22 25 82q0 16 -2 52q-2 35 -2 50q0 50 -41 590v6q0 38 24 49q33 14 79 16q30 2 51 8q12 -134 12 -457v-36q0 -228 -28.5 -362.5t-76.5 -168.5q-8 -6 -8 -16z
" />
    <glyph glyph-name="V" unicode="V" horiz-adv-x="620" 
d="M378 240l16 21q12 13 21 37.5t15 56t11 79.5q14 129 21 152q23 56 84 200q61 146 112 260q45 99 89 159l4 -2q11 -6 15 -9q3 -2 16 -17q1 -22 20 -46q17 -21 40 -43q22 -21 25 -24q6 -8 19 -10q-5 -5 -11 -7q-7 -2 -19 -2q-18 0 -29 -3q-5 -2 -8 -5q-39 -40 -86 -119
t-75 -144q-28 -64 -62 -158q-33 -93 -43 -119q-1 -1 -1 -2q-109 -360 -246 -498l-156 565q-24 126 -52 253q-27 129 -41 183q-13 54 -23 111q-10 56 -10 101q0 3 1 16q59 -52 135 -76q56 -19 78 -27l-7 -164q0 -11 8 -17l12 -8v-42q0 -39 2 -60q1 -20 1 -54v-19q0 -55 5 -93
q5 -30 7 -54q2 -25 8 -58q5 -30 5 -52q0 -2 1 -4l35 -146q2 -6 7.5 -10.5t11.5 -4.5h7v-20q-1 -5 1 -11q3 -8 4 -10l7 -14q22 -42 25 -42z" />
    <glyph glyph-name="W" unicode="W" horiz-adv-x="1408" 
d="M348 295q80 27 94 118q17 104 28 127q1 0 1 1q103 238 271 471l1 1q4 -6 7 -10q0 -16 13 -21t23 -3h40h4q6 -6 12 -7q3 0 6 -1q-1 -5 -2 -9v-4v-38q0 -145 35 -262.5t79 -176.5q42 -57 100 -127q57 -67 75 -97q5 -7 13.5 -9t15.5 3q5 5 7 11q5 16 11 73q4 56 8 74
q5 19 15 65q10 44 25 79q14 36 37 81q31 60 50 108t38 116t26.5 100t24.5 132q14 80 24 122q7 -1 14 -1h186q15 0 20 -4q4 -3 4 -10v-1.5v-1.5v-10v-2q0 -97 -93 -219q-99 -130 -120 -185q-4 -8 -4 -16q0 -9 6 -17t15 -15l4 -4q0 -1 -1 -2q-3 -4 -9 -9q-11 -8 -17 -18
q-53 -62 -83 -128q-31 -68 -41 -111q-10 -42 -20 -140q-10 -97 -21 -151q-2 -14 9 -21q15 -9 15 -28q-1 -23 -15 -43q-21 -19 -88 -45q-43 -16 -64 -29q-50 93 -125 178q-82 92 -141.5 192t-101.5 285q-1 8 -9 12t-16 2q-4 -1 -8 -5q-139 -151 -194 -279q-1 -1 -1 -2
q-26 -79 -108 -200q-71 -105 -153 -189l-140 595q-24 104 -53 255t-39 205q-10 53 -20 122q-6 45 -8 80q57 -47 127 -61q59 -11 83 -19l-7 -78v-1q0 -12 10 -22v-53l-1 -8q-4 -4 -6 -10q-3 -10 -3 -26q0 -31 2 -111q4 -66 14 -121q10 -54 25 -122q14 -67 22 -115q1 0 1 -1
l30 -143q1 -7 6.5 -11.5t12.5 -4.5h8v-24q0 -19 14 -26z" />
    <glyph glyph-name="X" unicode="X" horiz-adv-x="987" 
d="M746 654q-2 -6 -3 -14q-16 -17 -65 -61q-12 -10 -4 -25q51 -90 127 -211q75 -120 109 -179q30 -55 30 -78v-6q0 -5 3 -10q-9 -15 -44 -48q-37 -34 -59 -47q-54 46 -62 62v1q-15 108 -46.5 172t-85.5 121q-50 53 -65 82q-2 4 -6 6q-3 4 -13 18q-18 22 -20 27l-8 21
q-3 0 -21 -26q-42 -63 -116 -150q-75 -89 -117 -155q-39 -63 -67 -160q-25 -2 -59 -7q-42 -7 -67 -7t-44 3q1 7 2 16q2 16 2 25q0 6 -4 12q2 11 21.5 43t53.5 77q78 103 185 230q108 129 150 206q6 11 -2 22q-8 10 -35 54q-31 50 -72 70q-38 19 -129 48q-3 1 -5 0
q-52 0 -112 107q-59 105 -63 143q4 7 4 14q-1 7 -5 12q-5 5 -9.5 26t-4.5 54q0 23 6 32q1 2 3 3q11 20 35 20q6 0 13 5q40 -7 144 -54v-6q0 -65 48 -141q52 -84 100 -127q77 -67 118 -108q77 -74 78 -76q12 -22 16 -17q6 7 13 14q143 128 143 244v2l-5 62v9l32 98
q148 75 208 91q-93 -121 -126 -245q-36 -134 -36 -196q0 -38 -3 -38h-1h-11q-11 0 -17 -9q-28 -45 -32 -51z" />
    <glyph glyph-name="Y" unicode="Y" horiz-adv-x="644" 
d="M522 403q0 -65 4 -102t11 -78q6 -40 9 -80v-5l14 -45q-2 -12 -10 -48q-12 -52 -12 -58q0 -134 -13 -261.5t-32.5 -216.5t-37.5 -147.5t-31 -80.5q-19 -21 -120 -67q-56 -26 -94 -38q107 161 168 359q69 226 69 617q0 110 -2 170q0 75 -7 136q-1 7 -6 12q-14 14 -38 47
q-25 36 -43 57q-20 23 -71 54q-50 30 -117 52q-60 48 -99 151q-40 108 -40 161q0 9 4 30q2 10 -6 17l-1 1q4 7 17 19q5 5 52 45q49 41 101 79q18 13 33 23q-16 -71 -16 -136v-24q0 -122 46 -213q39 -78 116 -161q71 -77 73 -80l20 -14q6 5 11 9q150 162 150 369v6v55l14 142
q38 19 120 38q70 17 109 20q-132 -175 -132 -308q0 -24 8 -117q4 -50 6 -74q-7 3 -14.5 1t-11.5 -8q-22 -34 -36 -49q-12 -14 -17 -16q-12 -5 -52 -36q-54 -43 -92 -85q-6 -7 -5 -17t8 -14q30 -20 76 -53q-11 -6 -30 -12q-13 -4 -21 -8q-6 2 -12 2q-8 0 -14 -6t-6 -14z" />
    <glyph glyph-name="Z" unicode="Z" horiz-adv-x="737" 
d="M522 1090l-264 2h-15q-68 0 -185 -8q1 2 2 3q15 30 32 80q10 29 14 44q106 -14 195 -25q47 -4 114 -4q50 0 121 4q14 1 18 13l12 34q26 12 135 13h68q-97 -119 -307 -512q-125 -235 -186.5 -385.5t-61.5 -226.5v-8q0 -18 5 -20q3 -1 15 0h32q83 0 171 24q82 23 122 31
l99 8q1 -11 3 -30q4 -47 15 -81q5 -16 13 -30q-19 -1 -31 -1q-3 0 -6 -1l-116 -35v16q0 8 -6 14t-14 6q-17 0 -75.5 -4t-77.5 -5q-18 -2 -67 -6q-50 -4 -72 -8t-58 -10q-37 -6 -63 -15q-10 -3 -21 -8q-8 46 -39 87q9 4 11 13q8 31 25 92q17 62 29 107q1 2 1 5q0 9 -7 21
q0 1 5 6.5t13 14t11 11.5q2 2 3 5q87 178 173 347q66 130 123 246q56 114 92 176z" />
    <glyph glyph-name="bracketleft" unicode="[" horiz-adv-x="407" 
d="M217 1446q14 0 35.5 1t34.5 1q27 0 43 -2q-2 -6 -2 -14q0 -16 14 -89q-2 -2 -6 -2q-10 0 -61.5 9.5t-63.5 9.5l-6 -2l-4 -19q-6 -31 -6 -116v-133l8 -488q0 -244 20 -463l-2 -28h4q8 0 58.5 4t81.5 6q8 -8 8 -21q0 -14 -17.5 -43.5t-19.5 -40.5q-12 -4 -25 -4
q-16 0 -50 4t-40 4h-12q-17 -24 -162 -24h-12q80 98 80 311q0 233 -6 305l-11 19q2 4 2 205v215q0 39 -4 108l-2 31q0 55 -14 140t-14 95q8 2 35.5 10.5t45 14.5t38 16.5t30.5 20.5l2 -19v-22z" />
    <glyph glyph-name="backslash" unicode="\" horiz-adv-x="950" 
d="M924 94q-10 -20 -52 -20q-4 0 -16 1t-18 1q-70 63 -101 63q-10 0 -16 -8q-137 166 -255 374t-185.5 368.5t-145.5 333.5t-139 266l70 118q8 4 14 4q41 0 55 -84q43 -170 149.5 -385t200 -362.5t244 -372.5t195.5 -297z" />
    <glyph glyph-name="bracketright" unicode="]" horiz-adv-x="350" 
d="M168 131q-4 45 -4 139q0 72 2 203t2 152v135q0 41 -2 254t-2 291v57q0 6 -66.5 17.5t-66.5 17.5l22 71q12 6 43 7l70 4h6h123h8q4 -29 4 -31q-8 -31 -28.5 -80t-28.5 -84q-2 -4 4 -11t8 -9v-39q0 -68 4 -256.5t4 -194.5q0 -170 20.5 -436t51.5 -338l-143 27l-31 -9
q-20 -6 -47 -6q-10 0 -30.5 1t-31.5 1q-2 6 -13 27.5t-18.5 38t-7.5 25t9 14.5q16 -4 43 -4q23 0 52.5 7t43.5 9z" />
    <glyph glyph-name="asciicircum" unicode="^" horiz-adv-x="946" 
d="M424 1411q68 -59 162 -94t169.5 -72t125.5 -110q4 -6 4 -19q0 -20 -33 -25.5t-84 -7.5t-76 -10v4q0 49 -215 150q-14 6 -20 10q-53 -41 -176 -97.5t-142 -66.5l-82 53q136 117 367 285z" />
    <glyph glyph-name="underscore" unicode="_" horiz-adv-x="575" 
d="M23 -127q0 2 1 6t1 8q0 6 3 30t3 30q0 35 30 45q10 0 49.5 -4t71.5 -4q43 0 70 2h29q31 0 92 -1t94 -1q111 0 195 12q-49 -23 -87 -115l-159 23q-12 2 -45 2q-70 0 -209 -17z" />
    <glyph glyph-name="grave" unicode="`" horiz-adv-x="401" 
d="M365 967q-14 39 -93 98t-151 110.5t-72 77.5q0 20 33 29q133 20 168 21q14 0 19 -2.5t4 -6.5t0 -8t11.5 -7t30.5 -5l-28 -70q14 -45 48 -110.5t34 -100.5q0 -6 -4 -26z" />
    <glyph glyph-name="a" unicode="a" horiz-adv-x="479" 
d="M233 469q74 -6 86 -10l-14 71h-4q-2 0 -4 1t-6 1v19q0 16 -15 39q-12 -12 -25.5 -61.5t-17.5 -59.5zM172 483q53 139 139 211l88 -248l27 -34h-20q27 -135 49 -382t22 -319v-8q-33 37 -75 50.5t-46 15.5l2 125l-6 6v28v56v51v26v31q0 39 -12 187q-12 123 -14 147
q-33 4 -68 4q-29 0 -43 -4q-12 -29 -66.5 -206t-85.5 -220q-6 -6 -8 -4q-10 2 -23.5 11t-17.5 11q2 4 1 11.5t-4 9.5t-7 8l-4 6q-2 2 -8 2q-6 2 -6 4v4q0 4 4 7q8 2 19 5t16 5q27 27 51 97.5t44.5 152.5t26.5 100q-12 -4 -34.5 -15.5t-40.5 -17.5v11q2 12 9 20t9 10
q8 10 17.5 15.5t11.5 5.5q12 6 0 18q-2 4 -4 10q12 -12 20 -12t20.5 4t16.5 4z" />
    <glyph glyph-name="b" unicode="b" horiz-adv-x="532" 
d="M172 569l-4 -8l-2 -10q-8 -35 -8 -115v-33q39 -8 75 -10q94 0 95 80v6q0 12 -3 25.5t-11.5 33t-30 31t-54.5 11.5q-14 -1 -57 -11zM166 330l-4 -37v-49.5v-30.5t2 -53q45 -66 102 -68q68 0 109 68q12 0 28.5 17.5t16.5 39.5v19q0 33 -14 53q-40 65 -119 65h-2
q-37 0 -74 -8t-45 -16zM100 403v21q0 23 -14 117q-18 -14 -18 -33v-12q-12 14 -25 14q-6 0 -11 -5t-11.5 -17.5t-8.5 -14.5l-4 -2l-6 -6q-4 4 -4 14q0 2 -1 19.5t-1 29.5q0 27 4 45q20 29 45 46.5t37 22.5t37.5 9t30.5 4l20 13l2 -13h23q88 0 140 -47t52 -98q0 -37 -9 -68.5
t-16 -38.5q123 -39 123 -190q0 -10 -2 -27.5t-2 -25.5q-6 -37 -44 -83t-75 -63q-35 -14 -79 -14q-68 0 -117 31q-8 -12 -47 -21.5t-62 -9.5q51 66 52 203q0 25 -5 86l-6 10q6 6 6 37q0 8 -2 31.5t-2 35.5z" />
    <glyph glyph-name="c" unicode="c" horiz-adv-x="497" 
d="M106 233v-18q0 -12 41 -70q43 -59 111 -59h16q41 0 74 14q37 16 47 31q14 18 26.5 41t24.5 27q-8 -15 -8 -35v-8q2 -25 4 -27q8 -16 9 -20v-5v-4q0 -20 -54 -57q-63 -43 -139 -43q-78 0 -135 37q-61 39 -82 92q-41 111 -41 213v10q0 125 61 213q61 90 160 90
q12 -4 37 -24q20 -18 33 -39l12 -17q-8 -2 -16 -2h-13q-4 0 -34 9q-23 6 -35 6q-18 0 -47 -31q-25 -27 -47 -78q-16 -37 -17 -49v-14q0 -8 4 -10.5t11 -4.5q6 -4 6 -6q-8 -72 -9 -98v-12v-11v-10v-8v-6v-6v-2v-4.5v-4.5z" />
    <glyph glyph-name="d" unicode="d" horiz-adv-x="509" 
d="M63 635l-2 12q4 2 33 8.5t45.5 13.5t24.5 15v-12v-15h18q61 0 123 -42t103 -115q18 -33 36.5 -123t18.5 -153.5t-19 -121.5q-14 -37 -55 -69.5t-86 -32.5h-4q-14 0 -20 4q-8 2 -29 9t-33 12l-57 6v-8q-16 -23 -117 -23q49 66 51 203v35.5v40.5v24l-6 12q2 4 2 25
q0 23 -2 70l-6 82q0 6 -8 75q-12 -4 -18.5 -16t-11.5 -30.5t-11 -26.5q-4 2 -10.5 10t-12.5 12t-16 4q-18 0 -35 -8q8 8 42.5 54t61.5 69zM147 578v-13q0 -8 1.5 -25.5t1.5 -29.5q0 -16 3 -74.5t3 -68.5l4 -70q0 -213 10 -213q2 0 6 -2h4q8 0 18.5 3t15.5 3t30 -6
q41 -12 49 -12q27 0 43 16q8 8 13 16.5t10.5 17.5t8.5 14t6 15.5t4 13.5t3 15t2 15.5t2 17.5t2 18q0 6 2 21.5t2 19.5q0 78 -23.5 152t-74.5 106q-6 2 -9 -2t-5 -4l-5 6q-8 16 -13 23.5t-20.5 17t-39.5 9.5q-6 0 -17.5 2t-17.5 2q-13 0 -19 -4z" />
    <glyph glyph-name="e" unicode="e" horiz-adv-x="407" 
d="M106 12l-2 -18q-16 -20 -84 -23q49 63 52 199q0 74 -13 197l-8 12q4 4 6 27q0 2 -4 4l-2 4q-16 -4 -35.5 -17.5t-21.5 -13.5q2 2 4 13.5t5 19.5t11 16q25 13 25 29q0 12 -4 16l16 -6v4v19q0 31 -12 106h-8q-4 31 -31 53l59 2q18 10 41 35v-12v-23q8 0 35 2t37 3.5
t32.5 3.5t35 4t29 5t27.5 7t21 10q0 -41 33 -72h-4q-10 0 -18.5 -11t-18.5 -11q-80 0 -190 -18q-5 -20 -5 -38q0 -6 1 -12v-53l137 -18q12 -4 12 -15.5t2 -13.5t10 -20q-4 0 -4 -5q0 -2 1 -8t1 -10q0 -16 -10 -29q-8 8 -16 19.5t-12.5 16.5t-12.5 9.5t-22 4.5q-27 0 -80 -7
l12 -172q0 -39 8 -125v-4q0 -8 -2 -12h19q20 0 59 -1t59 -1h21q55 0 76 -25q-27 -12 -49 -61l-101 14q-23 2 -55 2q-21 0 -62 -2z" />
    <glyph glyph-name="f" unicode="f" horiz-adv-x="309" 
d="M113 51q-16 -35 -27.5 -83t-21 -114.5t-15.5 -97.5q-49 -57 -94 -57h-4q-14 0 -25 8q-4 12 -4 14l144 472q0 143 -3 176l-8 10q4 4 4 27q0 2 -2 6l-2 4q-16 -4 -35.5 -18.5t-21.5 -14.5q2 2 3 13.5t5 19.5t10 14q27 16 27 33q0 8 -4 14l16 -6v2v21q0 35 -12 106h-8
q-4 31 -33 55h61q20 12 41 33v-10v-23q172 8 218 33q0 -39 32 -72q-2 2 -4 2q-10 0 -19 -10t-18 -10q-72 0 -190 -20q-6 -25 -6 -48v-57l139 -16q10 -2 12 -7.5t-1 -10.5t3 -11q2 -2 11 -20q-4 0 -5 -5q0 -2 1.5 -8t1.5 -10q0 -18 -11 -29q-8 8 -16 19.5t-12 16.5t-13.5 9.5
t-21.5 4.5q-14 0 -42 -2.5t-38 -2.5l2 -61v-91.5v-70.5v-12t1 -16.5t1 -20.5l-8 -31q0 -4 -8 -47z" />
    <glyph glyph-name="g" unicode="g" horiz-adv-x="509" 
d="M-82 -424q0 14 -14 64l-2 12q2 -4 6 -8q4 -2 10 -4q14 -4 33 -21q24 -22 24 -36v-1l13 -37q39 -49 133 -49q53 0 127 17q86 18 108 41q33 16 33 71q45 119 45 246v20q0 55 -12 150q0 92 -16 127q4 -45 4 -62v-12v-10q0 -31 -22.5 -55.5t-72.5 -24.5h-12q-16 -2 -33 -2
q-63 0 -139 28.5t-86 65.5q-12 37 -28.5 174.5t-16.5 184.5q2 86 51 145q51 61 125 62q4 0 31 -3h45q18 -2 45 -4q16 -2 43 -12q16 -6 25 -18l-33 -7q-33 -6 -37 -6l-62 -10l-57 -8q-37 0 -41 -6q-2 -2 -14 -29q-10 -25 -23 -37q-4 -10 -8 -18q-4 -6 -4 -8v-9q0 -4 2 -6
l6 -6q4 -2 4 -6t-6 -35t-6 -45q0 -90 26.5 -200.5t71.5 -110.5h111q70 0 70 100v27v16v4q0 6 -4.5 94.5t-4.5 92.5q0 18 -12 41q-14 25 -20 43q-8 20 -9 39l-12 40q4 0 35 -10l35 -12q16 -18 24 -21q2 0 5.5 -8t7.5 -18q12 -33 12 -100v-21q0 -16 16.5 -41t16.5 -27v0
q0 -39 4 -53q0 -35 10 -131t14 -166q4 -86 4 -141q-2 -113 -12 -195l4 -8q1 -1 1 -3q0 -7 -5 -26q-4 -18 -4 -22q0 -31 -53 -80q-51 -47 -99 -59q-37 -10 -163 -11q-41 0 -115 17q-80 18 -102 31l-41 24l2 2q18 25 18 47v33z" />
    <glyph glyph-name="h" unicode="h" horiz-adv-x="372" 
d="M158 39q-6 -14 -60.5 -27.5t-91.5 -13.5q-12 0 -16 2q49 59 59 86q6 22 6 48v13v21q0 8 -3 60.5t-3 60.5q-8 -2 -27.5 -11.5t-29.5 -13.5v10q2 8 16 29q6 10 15.5 16.5t13.5 10.5q4 2 4 4v2v4l-4 4q-2 6 -2 10l10 -8v19q0 8 -4 43.5t-4 46.5v18q0 27 -4 56.5t-10.5 58
t-6.5 37.5q78 31 93 43l28 -13q0 -10 -3 -24.5t-3 -22.5l-4 -12q-2 -20 -4 -94q0 -16 2 -58.5t2 -50.5l4 -47q6 0 15.5 2t13.5 2q55 -4 78 -14q0 35 6 147.5t6 143.5v24h2q12 0 41 -7t43 -7v-21q-6 -33 -21.5 -104.5t-21.5 -122.5l6 -14q-4 -27 -4 -74l12 -12l-12 -6
q0 -141 59 -283h-8q-12 0 -25.5 1t-30 3t-24.5 4l-14 37q-14 197 -14 238q-4 2 -26 8t-34 6q-14 0 -33 -4q-8 0 -10 -4q0 -100 15 -221l4 -15q4 -12 4 -14z" />
    <glyph glyph-name="i" unicode="i" horiz-adv-x="167" 
d="M20 655h5q8 0 44.5 -8t51.5 -8h6q0 -2 2 -9t0 -12q-8 -39 -24.5 -106.5t-24.5 -112.5l8 -14q-2 -29 -4 -76q0 -180 55 -307q-16 -2 -26 -2q-55 0 -82 39l-15 37q-12 152 -14 272z" />
    <glyph glyph-name="j" unicode="j" horiz-adv-x="182" 
d="M51 655h4q8 0 38 -9t44 -9h6q0 -2 1 -9t1 -12q-8 -39 -24.5 -105.5t-24.5 -113.5l6 -14q-2 -29 -2 -76q0 -180 56 -307q-2 -2 -4 -14q0 -6 2 -32t2 -42q0 -55 -13 -98q-70 -227 -88 -334q-88 -78 -88 -135q0 -4 1 -6.5t1 -6.5v-2l-4 2q-24 32 -24 82q0 31 7 70t13 60.5
t22.5 75.5t20.5 69q55 154 55 272q0 55 -14 113q-12 152 -12 272z" />
    <glyph glyph-name="k" unicode="k" horiz-adv-x="417" 
d="M254 268q-2 2 -6 2q-2 0 -4 -1t-4 -1t-5.5 14.5t-12.5 38t-19 39.5q0 8 -23.5 24.5t-38.5 16.5q-8 -6 -12 -8q-2 -2 -6 -2q-8 -2 -17 -2l-2 -102q0 -47 13 -185v-4q0 -2 -4 -28q-2 -16 -4 -31l-3 -19q-8 -10 -53 -16t-73 -6q53 68 53 203q0 53 -4 84l-4 12v6v16.5v16.5
v35q0 10 -1 34.5t-1 34.5l-3 19q0 27 -3 61.5t-7 67.5t-6 41q8 2 35 12t47 19.5t29 17.5l2 -12q0 -16 -11 -72l-2 -10q-4 -16 -4 -82v-35q4 -2 13 -2q29 0 48 31.5t39.5 90t35.5 83.5q4 6 6 6h2q2 -2 10 -12q-2 -8 1 -13.5t9 -12.5t8 -11l11 -4q2 -2 0 -7l-2 -4q0 -6 2 -26
q-70 -88 -90 -117q51 -47 75.5 -90t34.5 -77t23 -48l141 -256q-8 2 -21 2l-86 10q-2 2 -4 2t-4 -1t-4 2t-4 14q-10 20 -20 92q-17 96 -70 149z" />
    <glyph glyph-name="l" unicode="l" horiz-adv-x="366" 
d="M96 10l-2 -18q-16 -20 -112 -23q49 66 49 201q0 16 -4 66.5t-4 60.5l-9 12q4 2 4 25q0 39 -4 69v21q0 150 -8 213q78 23 96 43v-12q0 -16 -3 -33t-3 -19l-4 -12q-14 -100 -14 -158v-84l4 -69q0 -41 8 -117t10 -88v-4v-10h17q213 8 215 8q-10 -6 -18.5 -19.5t-18.5 -38
t-12 -26.5l-101 12q-23 2 -55 2h-11h-4h-3h-3h-4q-2 -2 -6 -2z" />
    <glyph glyph-name="m" unicode="m" horiz-adv-x="432" 
d="M352 301q0 -154 37 -244l25 -57h-19h-14q-29 0 -53 12l-13 37q-16 201 -16 287v84q-16 -20 -16 -19l-45 -43q20 -12 20 -55v-12v-4q0 -6 -4 -8q-8 -4 -18.5 -8.5t-14.5 -6.5q-8 2 -12 6q-2 2 -4 9q-2 8 -4 8q-20 16 -39 50t-76 71v-9l4 -69q0 -84 16 -252l5 -12
q4 -12 6 -14.5t-4 -24.5q-6 -25 -7 -27q14 -59 15 -168q0 -74 -76 -190q-8 -12 -65.5 -31t-77.5 -19q63 86 100 197q37 113 37 248q0 29 -2 53l-4 90q0 94 -13 150l-4 14q4 4 4 27q0 6 -2 30.5t-2 36.5v21q0 33 -10 86t-10 63q66 20 94 51l4 -10l-12 -53v-10q-4 -27 -4 -78
q8 -31 53 -57.5t53 -49.5q63 37 92 95q31 59 31 96v8q0 14 -8 29v28h4q12 0 41 -34.5t41 -34.5q0 -2 2 -10.5t2 -10.5q-18 -76 -20 -84q-16 -84 -21 -88q-2 -2 2 -8t6 -6q-4 -33 -4 -80z" />
    <glyph glyph-name="n" unicode="n" horiz-adv-x="385" 
d="M127 49q-14 -20 -45 -33q-10 -4 -43 -12h-2q-6 0 -4 12v9q0 37 10 69q0 12 -2 43v47q0 45 -6 82l-4 13q2 4 2 28q0 45 -2 66l-2 20q0 18 -13 129q-10 92 -10 105q37 12 66 41l10 -13v-24v-21q6 -37 67.5 -168t86.5 -209q2 4 0 9l28 426h8q6 0 24.5 -2t35.5 -2q0 -4 2 -11
q2 -4 0 -10q-8 -53 -27 -147q-24 -136 -24 -158q0 -3 4 -19q-4 -41 -4 -77q0 -29 2 -57.5t12 -57.5q6 -18 12 -41q2 -8 19 -45l16 -37q0 -1 -5.5 -1t-16.5 1q-45 4 -62 12l-4 17v8q0 37 -164 344q0 -20 2 -28.5t2 -24.5l2 -70q0 -29 4 -61q4 -39 11 -74l8 -53q0 -13 6 -25z
" />
    <glyph glyph-name="o" unicode="o" horiz-adv-x="542" 
d="M424 203q14 45 14 112q0 20 -16 55.5t-21 47.5q-47 115 -106 198q2 -2 16 -2h23q14 0 18 -2q80 -78 144 -209q12 -41 12 -86q0 -51 -11.5 -103t-17.5 -71q-37 -70 -84 -100q-61 -43 -137 -43q-74 0 -135.5 37t-81.5 92q-41 115 -41 221q0 125 51 215t152 90
q16 -4 29.5 -11t21.5 -13l8 -4q-8 -2 -20 -2h-11q-33 0 -59.5 -33t-71.5 -127q-14 -47 -14 -51v-15q0 -6 4 -9t12 -5q6 -2 9 -6q-10 -49 -11 -98q0 -84 42 -139.5t116 -57.5h18q29 0 50.5 4t34 9t22.5 19.5t14 22.5t13.5 30t13.5 34z" />
    <glyph glyph-name="p" unicode="p" horiz-adv-x="370" 
d="M90 311l-4 41v25v33v39v18q0 49 -8 104q-20 -16 -21 -32v-15q-9 14 -29 14q-1 0 -1 1q-19 0 -27 -13q-4 -8 -8 -8q-8 2 -8 10l8 56q14 14 45 43q24 22 29 22q3 0 28 6q20 4 25 7l24 12v-12h25q84 0 131 -48q39 -39 45 -100q2 -20 2 -35q-2 -25 -4 -33q-6 -23 -35 -47
q-18 -16 -57 -22q-49 -8 -64 -8q-27 0 -30 -2v-29q0 -41 8 -137.5t8 -104.5v-2l-4 -69q-16 -23 -115 -25q37 59 37 311zM160 594l-4 -6l-4 -13q-8 -37 -9 -137l25 -4q12 -4 25 -4q94 0 94 80v6q-4 84 -103 84q-4 0 -24 -6z" />
    <glyph glyph-name="q" unicode="q" horiz-adv-x="561" 
d="M383 117q10 8 17.5 19t10.5 20.5t8 27t7 23.5q14 41 14 110v23q0 70 -14 90q-27 31 -47.5 60.5t-44 66.5t-37.5 55q2 -2 8 -2l53 8l4 -4q115 -106 154 -188q10 -31 10 -72v-14q0 -51 -10 -104.5t-18 -69.5q-8 -14 -31 -49t-41 -54q49 -61 98 -88q-4 2 -24.5 5.5
t-28.5 6.5t-31 15q-23 10 -49 35q-53 -37 -129 -37q-74 0 -136.5 38t-80.5 91q-41 113 -41 221q0 123 55.5 216t153.5 93q16 -4 30.5 -12t20.5 -12l8 -6q-6 -2 -18 -2h-12q-37 0 -70 -37t-74 -125l-14 -55v-11q0 -6 3 -9t10 -6t12 -5q-12 -43 -13 -96q0 -88 43 -145.5
t117 -59.5h16h19q31 0 63 16q-8 20 -11 39t-3 36t-2 30q18 -47 45 -82z" />
    <glyph glyph-name="r" unicode="r" horiz-adv-x="479" 
d="M293 426q29 -29 61.5 -102.5t40.5 -81.5q4 -6 60 -84q20 -31 22 -37q4 -12 4 -17q0 -6 10.5 -32.5t30.5 -73.5h-24q-20 2 -29 2q-18 0 -25 4q-31 18 -41 25q-12 27 -22 84q-10 53 -30.5 112.5t-61.5 116.5q-4 2 -6 -2t-4.5 -6t-6.5 2q-12 31 -24 33q-2 0 -12.5 -2
t-16.5 -2q-8 0 -24 4q-45 -8 -50 -13l-4 -14q0 -123 13 -246v-4l-9 -72q-8 -10 -47 -16t-67 -6q53 61 53 188v11q0 113 -4 145l-4 10q4 4 4 29l-4 68l-4 18q0 25 -2 47l-4 41q-2 20 -7 31q-16 -12 -16 -33v-14q-16 14 -26.5 14t-26.5 -27q-4 0 -4 -4q0 -2 -9 -4q-5 2 -5 9
q0 2 1 5q4 39 9 52q20 29 38 43q23 16 29 18q20 4 27 4q23 0 24 2l21 11v-11q4 0 24 6l21 5q90 0 127 -36t37 -89q0 -45 -6 -68t-31 -43zM145 610v-10l-4 -10q-8 -53 -8 -148q12 -2 22.5 -6t22.5 -4q94 0 94 80v2q0 100 -98 100q-4 0 -29 -4z" />
    <glyph glyph-name="s" unicode="s" horiz-adv-x="530" 
d="M66 127q55 -47 182 -47q68 0 100.5 29.5t32.5 111.5q-2 16 -6 55q-16 45 -41 70t-48.5 30t-54 15t-53.5 29q-66 55 -69 164q0 27 20 43q36 32 87 32h3q31 0 93.5 -17t90.5 -21l5 -3q0 -2 -6.5 -7t-16.5 -12t-12 -11q-16 -6 -17 -19q0 -6 2 -11t5.5 -12t3.5 -11
q-27 4 -54.5 20t-70.5 23q-2 0 -16.5 9t-18.5 5q-2 -2 -9.5 -5t-9.5 -4t-5 -4.5t-4 -7.5t-1 -10q0 -57 29 -84l78 -10q20 -20 61 -38.5t74 -47.5t57 -86q12 -41 12 -74q0 -90 -63.5 -154.5t-177.5 -64.5q-104 0 -230 57q-8 4 -23 6.5t-24.5 4.5t-9.5 8v2q2 2 0 4
q0 18 16.5 25.5t45.5 9.5t43 8z" />
    <glyph glyph-name="t" unicode="t" horiz-adv-x="483" 
d="M208 -12q-8 12 -8 49q0 16 2 50t2 52q0 4 -2 14.5t-2 14.5q0 57 -4 86l-9 12q6 0 6 29q0 8 5 57q2 49 2 62v32v29q0 70 -7 103q-2 4 -24 4q-14 0 -69.5 -4.5t-78.5 -4.5q-2 10 -20 50q-16 33 -31 45q143 -16 170 -17q59 2 74 4q16 8 41 37l2 -12q0 -12 -2 -21
q178 8 217 33q10 -86 35 -110q-20 4 -70 4h-47q0 1 -10 1t-31 -1q-45 -2 -76 -8q-3 0 -3 -3q0 -1 1 -3q2 -6 4 -14.5t2 -25.5v-213l2 -69q14 -57 15 -184l4 -17l2 -4l2 -8v-2q0 -10 -45 -27q-45 -16 -49 -20z" />
    <glyph glyph-name="u" unicode="u" horiz-adv-x="565" 
d="M451 104q0 -20 -54 -59q-61 -43 -137 -43q-74 0 -136.5 37t-80.5 92q-41 113 -41 219q0 102 11.5 223t25.5 121q8 0 14 -41q8 -10 20.5 -14t20.5 -5t8 -5v-29q0 -49 -6 -96q-12 -43 -14 -84v-14q0 -4 4 -7.5t10 -6.5l10 -5q-10 -57 -10 -98q0 -88 42 -148.5t114 -62.5h16
q53 0 82 25.5t44.5 62.5t21.5 43q10 8 10 35q0 8 -1 26.5t-1 26.5q0 25 -21 307v4q0 27 18.5 35t44.5 9t36 10q8 -66 8 -254v-19q0 -244 -59 -285z" />
    <glyph glyph-name="v" unicode="v" horiz-adv-x="483" 
d="M231 330q12 29 44 104.5t58.5 135t53.5 92.5q2 -2 9 -5.5t9.5 -5.5t12.5 -14v-2q0 -8 8 -18.5t19.5 -21.5t13.5 -13t6 -2q8 -2 10 -7q0 -4 -6 -10q-4 -4 -10 -6t-13.5 -2t-11.5 -2q-20 -20 -43.5 -60t-38 -73t-32 -82t-23.5 -62q-63 -207 -143 -276l-86 311
q-12 66 -26.5 132.5t-22 95t-12.5 58.5t-5 54q0 2 1 15.5t1 15.5q35 -37 83 -52.5t48 -17.5l-4 -92l10 -8v-27q0 -20 1 -30.5t1 -28.5q0 -39 2 -57q2 -16 3.5 -28.5t4.5 -29t3 -28.5l18 -76h4q2 0 5 -1t5 -1v-19q0 -2 9 -22q14 14 22 84t12 82z" />
    <glyph glyph-name="w" unicode="w" horiz-adv-x="890" 
d="M451 520v-20q0 -74 18 -133.5t39.5 -89t51.5 -65.5t40 -52q2 8 5 36.5t5 39t7.5 34t13.5 43t20 43.5q16 31 25.5 55.5t19 59.5t13.5 51.5t13 68.5t15 73q6 -2 15 -2h92h5q24 0 23 -19v-6q0 -55 -51 -121.5t-61 -93.5q-2 -4 0 -7t6 -6t6 -6q0 -6 -2 -10t-7 -8t-7 -8
q-27 -31 -42.5 -64.5t-20.5 -55t-10 -72t-11 -79.5q12 -8 12 -24t-10 -29q-12 -12 -50 -26.5t-40 -22.5q-27 55 -70 103.5t-74.5 101.5t-54.5 151q-70 -78 -98 -143q-14 -43 -57.5 -106.5t-94.5 -112.5l-78 328q-12 55 -27.5 133t-20.5 106.5t-10 64.5t-5 60v8
q33 -37 79 -46t52 -15l-4 -47q0 -2 3 -4t3 -6v-29l-2 -14q-2 0 -2 2q-2 -4 -2 -11q0 -16 2 -57q2 -33 7 -61.5t12.5 -63.5t11.5 -61l16 -74h6l8 -4v-19q0 -4 2 -4q6 -4 13 -16q12 14 21 69.5t16 69.5q55 125 143 248l4 4t3 2h5q2 -2 5 -7t5 -7q-2 -8 7 -6h11h11q8 0 10 -4
q12 -2 12.5 -4.5t-1.5 -12.5z" />
    <glyph glyph-name="x" unicode="x" horiz-adv-x="552" 
d="M14 33q-2 2 -2 6q0 16 41 69.5t96.5 120t77.5 105.5q-4 6 -19 29.5t-33.5 33t-65.5 23.5q-33 0 -67 60.5t-34 82.5q0 4 2 4q-10 10 -10 49q0 16 6 23q8 16 27 16l2 2q20 0 90 -32v-9q0 -31 23.5 -68.5t51 -64t61.5 -56.5t42 -40q70 61 70 119l-2 33v6l18 57
q102 53 129 53q8 0 6 -4q-2 -2 -2 -6q-53 -66 -71.5 -133.5t-18.5 -99t-8 -31.5l-4 2h-6q-16 -25 -16.5 -26t-0.5 -3l2 -2q0 -2 -39 -37q27 -47 66 -109.5t56.5 -94t17.5 -45.5v-3q2 0 2 -6q0 -8 -26.5 -32.5t-39.5 -28.5q-41 35 -41 43q-8 55 -23.5 87t-42 60.5t-36.5 44.5
q-6 4 -10 12.5t-7 10.5q-23 -33 -61.5 -79t-60 -80t-35.5 -87q-14 0 -37 -4t-37 -4q-16 0 -27 2q-6 2 -6 7t1 12.5t1 11.5z" />
    <glyph glyph-name="y" unicode="y" horiz-adv-x="464" 
d="M283 231q0 -33 2 -52t5 -40.5t5 -42.5l8 -26q0 -2 -6 -28t-6 -28q-25 -313 -62 -374q-10 -12 -66.5 -38t-76.5 -26q66 90 101.5 206t35.5 318q0 57 -2 88q0 39 -4 70q-8 8 -20.5 26.5t-21.5 29t-34.5 25.5t-60.5 26q-35 27 -56.5 85t-21.5 87q0 6 2 18q-4 4 -4 8
q0 6 12 17q2 2 28 23.5t53.5 42t39.5 26.5q-14 -49 -14 -94v-13q0 -61 22.5 -106t58.5 -81t40 -44q75 69 75 185v3v21v2v6l7 80q20 12 70 23.5t71 11.5q8 0 8 -4q0 -2 -4 -5q-74 -94 -74 -163q0 -12 4 -59.5t4 -49.5q0 -6 -4 -6t-12 6q-12 -18 -19.5 -26.5t-12.5 -10.5
t-24.5 -17.5t-47.5 -43.5q18 -12 47 -33v-4q0 -4 -6.5 -8t-18.5 -7.5t-16 -7.5q0 4 -4 4z" />
    <glyph glyph-name="z" unicode="z" horiz-adv-x="423" 
d="M18 53q4 16 12.5 47t14.5 54q0 2 -2 6t-2 8q2 2 18 20q45 90 88 176.5t62.5 125t36.5 75.5h-19h-96q-49 0 -129 -6q12 4 19.5 18.5t15.5 39t10 30.5q59 -8 107 -14q23 -2 57 -2q25 0 61 2l7 20q8 10 77 11h58q-45 -41 -170 -275.5t-125 -306.5v-4h16q41 0 84 12t64 16
l61 5q0 -2 2 -25t7 -39t16 -27q-23 -2 -35 -2l-72 -22v22q-8 0 -37.5 -2t-39 -3t-34 -3t-36 -4t-29.5 -5t-30.5 -7t-22.5 -10q0 37 -33 69h18z" />
    <glyph glyph-name="braceleft" unicode="{" horiz-adv-x="684" 
d="M180 676l45 -129v-6q0 -23 20.5 -57.5t20.5 -53.5q-20 -117 -20 -231q0 -219 75.5 -370t241.5 -151q23 0 35 3q-23 -23 -90 -23q-47 0 -173 39t-142 67q-25 45 -27 62q-14 27 -14 47q0 8 2 19.5t2 17.5v6q6 92 6 201q0 383 -76 473q0 2 -1 20.5t-3 24.5t-8 20.5
t-17.5 22.5t-27.5 14q76 16 101.5 143.5t27.5 339t14 289.5q0 27 -4 47l-4 19v2q0 10 45 44t45 54v2l4 19q4 -4 8 -4q156 -25 242 -25h2q-262 -78 -262 -481q0 -125 31 -301q-6 -29 -49.5 -89.5t-49.5 -74.5z" />
    <glyph glyph-name="bar" unicode="|" horiz-adv-x="288" 
d="M250 -291l-6 -28q-12 -16 -89 -39t-112 -23q35 41 52.5 253t17.5 378q0 57 -7 131l-10 16l2 6v18.5v27.5q0 53 2 256.5t5.5 387t3.5 185.5q0 37 -5 111l-2 28q0 57 -14 166t-14 111q33 10 85 46t74 60l3 -18q0 -6 -13 -80l-4 -21q-6 -29 -6 -188v-133l12 -954
q0 -76 13.5 -304.5t19.5 -302.5v-6q0 -2 -4 -41t-4 -43z" />
    <glyph glyph-name="braceright" unicode="}" horiz-adv-x="684" 
d="M446 676q-6 14 -49 74.5t-49 89.5q31 176 31 301q0 403 -262 481h2q39 0 99.5 6t100.5 12l41 7q4 0 9 4l4 -19v-2q0 -20 45 -54t45 -44v-2l-4 -19q-4 -20 -4 -47q12 -78 14 -289.5t27.5 -338.5t101.5 -144q-16 -6 -27.5 -14t-17.5 -22.5t-8 -20.5t-3 -24.5t-1 -20.5
q-76 -90 -76 -471q0 -111 6 -203v-6q0 -6 2 -17.5t2 -19.5q0 -20 -14 -47l-27 -62q-16 -29 -142 -67.5t-173 -38.5q-68 0 -90 23q12 -2 32 -3q88 0 153 44.5t99.5 122t51 164.5t16.5 190q0 115 -21 231q0 18 20.5 53t20.5 58v6z" />
    <glyph glyph-name="asciitilde" unicode="~" horiz-adv-x="671" 
d="M598 709q6 12 12 12t9.5 -27.5t7.5 -58.5t8 -35l-8 -18q-20 -25 -66 -25q-63 0 -268 82q-10 0 -41 9t-45 9h-6q-25 -6 -78 -41.5t-80 -44.5v15q2 16 14.5 31.5t12.5 17.5q10 12 27.5 48t23.5 42q14 12 0 27q-2 4 -2 14q14 -16 31 -16q10 0 32.5 4t38.5 4q20 0 33 -2
q205 -80 283 -80q51 0 61 33z" />
    <glyph glyph-name="uni00A0" unicode="&#xa0;" horiz-adv-x="0" 
 />
    <glyph glyph-name="exclamdown" unicode="&#xa1;" horiz-adv-x="290" 
d="M229 1286q-31 -45 -46 -81t-18 -45t-18.5 -19.5t-58.5 -26.5h-12q-27 0 -27 21q0 2 -1 13t-1 21q0 41 12 62q14 16 78.5 27.5t91.5 27.5zM39 10l-8 307q0 459 14 615l23 59l153 49q-31 -74 -56.5 -298t-25.5 -371q0 -55 6 -123q0 -2 -7 -9.5t-5 -13.5q8 -35 28.5 -83
t28.5 -79q0 -2 -4 -30q-23 0 -75 -11.5t-66 -11.5h-6z" />
    <glyph glyph-name="cent" unicode="&#xa2;" horiz-adv-x="659" 
d="M530 793q-2 0 -34 34l-33 35h-23h-14q-61 23 -113 23q-94 0 -129 -86q-18 -45 -18 -115q0 -31 4 -78t4 -61q0 -12 34 -54t66 -49q6 -2 19 -2q63 0 160 92q88 80 112 80q43 0 43 -153q0 -47 -80 -78q-111 -47 -192 -62q2 -2 5 -20t6 -50t3 -59q0 -81 -30 -81h-1h-2
q-41 -4 -57 -7q-4 0 -14 55.5t-21 110.5l-8 56q-35 0 -61.5 9t-39 19t-34.5 33q-70 72 -70 231v142q4 8 4 24q0 18 -13 32.5t-13 16.5q0 6 53 17q45 63 131 119q41 25 43 26q14 6 20.5 58.5t8.5 100.5t4 48t52 10.5t52 10.5q4 2 11 2q14 0 14 -21q-41 -172 -41 -174l8 -16
l47 -4h47q18 0 43 -13.5t37 -15.5l-2 -16q4 -25 42 -70t42 -53l-35 -82h-4z" />
    <glyph glyph-name="sterling" unicode="&#xa3;" horiz-adv-x="720" 
d="M215 47l-4 -37q-16 -23 -94 -34t-137 -11q102 131 102 410q0 25 -4 75t-8 108t-7 79q-27 14 -67 14q-18 0 -38.5 -2t-47.5 -5t-41 -5l-6 18q-4 6 -10.5 17.5t-8.5 15.5q-4 8 -4 12q0 14 90 15q16 -2 60.5 -3t66.5 -1q0 55 -8 145v39q-6 31 -6 70q0 125 55.5 231.5
t161.5 106.5q41 0 96 -23q41 -14 78 -14q76 0 113 47v-27q0 -23 -2 -41t-6 -35.5t-7 -25.5l-47 -49q-129 39 -178 39q-63 0 -95 -51.5t-34 -178.5l-6 -227q72 -27 125 -27h12q31 2 67 20.5t50 22.5q0 -6 1 -18t1 -17q0 -6 1 -18t1 -16q0 -35 -11 -50.5t-46 -15.5
q-2 0 -10.5 1t-14.5 1q-49 2 -168 25q45 -422 45 -426v-23h35q438 16 442 17q-23 -10 -40 -38t-36.5 -77t-23.5 -60q-119 14 -207 27q-47 6 -114 6h-17.5h-10.5t-6 -1t-4 -1t-3 -1t-5.5 -1t-7.5 -1t-12 -1z" />
    <glyph glyph-name="currency" unicode="&#xa4;" horiz-adv-x="2048" 
 />
    <glyph glyph-name="yen" unicode="&#xa5;" horiz-adv-x="774" 
d="M567 408v-37q39 18 90 18q39 0 81 -9t65.5 -19.5t25.5 -16.5q0 -12 9.5 -53t9.5 -45q-12 -45 -72 -45q-25 0 -77 11t-72 11q-43 0 -43 -41q0 -27 10 -55l18 -55q0 -2 -13 -53.5t-13 -57.5q-45 -635 -129 -770q-18 -25 -134 -77t-157 -52q135 184 207.5 421.5t72.5 655.5
v82q-158 -16 -182 -16q-123 0 -192 74l6 110q0 4 26 4q37 0 164 -12t156 -12q18 0 18 4q0 29 -6 90q-6 6 -49 66.5t-91 91t-144 59.5q-174 133 -175 211q0 12 9 33q-6 8 -6 18q0 17 20 37q6 4 59.5 48t109.5 86t83 50q45 -197 85 -300t87 -165.5t55 -79.5q156 145 156 388
v41v6v12l14 166q43 27 146.5 48t144.5 21q14 0 14 -8q0 -4 -6 -10q-151 -194 -151 -334q0 -25 9 -123t9 -100q0 -10 -10 -10q-12 0 -23 6q-27 -39 -42 -53.5t-25 -18.5t-49 -35.5t-101 -91.5q66 -37 99 -69v-9q0 -10 -13.5 -17t-39 -14t-36.5 -12q0 7 -8 7z" />
    <glyph glyph-name="brokenbar" unicode="&#xa6;" horiz-adv-x="288" 
d="M150 791l-56 -29q-2 61 -2 110q0 37 -4 111l-2 29q0 57 -14.5 165.5t-14.5 110.5q33 10 85.5 46t74.5 61l2 -19q0 -6 -12 -80l-4 -20q-6 -29 -6 -189v-133l12 -225zM168 508l49 45l8 -147q0 -74 31 -398v-6q0 -2 -4 -41t-4 -43l-6 -29q-12 -16 -89 -38.5t-112 -22.5
q72 82 72 422q0 57 -7 131l-10 16l2 6v18.5v27.5v98q2 0 23.5 -15.5t46.5 -23.5z" />
    <glyph glyph-name="section" unicode="&#xa7;" horiz-adv-x="819" 
d="M537 367l-203 61q-35 33 -93.5 74t-90 88t-84.5 172q-29 80 -29 149q0 27 -1 72t-1 64q0 68 8 109.5t37 79.5t87 54.5t152 16.5h19q23 0 41 -3.5t32.5 -5.5t30 -11t24.5 -12t22.5 -17.5t17.5 -18.5t17.5 -24.5t16.5 -24.5t18 -30.5t17 -31.5q37 -14 37 -73v-15l-2 -4
q-2 -6 -2 -10q0 -31 -47 -31q-6 0 -23.5 1t-25.5 1q-12 0 -33 -4q-23 94 -81 147.5t-124 53.5q-51 0 -85.5 -37t-34.5 -104q0 -55 18 -109l199 -35q39 -37 80 -61.5t63.5 -36.5t56 -62.5t74.5 -144.5q12 -37 12 -92v-59q0 -98 -14 -171t-53 -141.5t-118 -104.5t-196 -36
q-49 27 -78.5 34t-49 16t-64.5 50q-29 12 -45 39t-16 49l2 5q2 6 2 10q0 28 30 28h2l101 -8q31 -35 95 -66.5t122 -31.5q160 0 160 237v5zM545 518q-14 41 -31.5 75t-32 58.5t-35 46t-34 34.5t-39 25.5t-37.5 18.5t-42 13.5t-40 9.5t-44 7t-42 7q35 -96 87 -151.5t98 -69.5
l103.5 -31.5t88.5 -42.5z" />
    <glyph glyph-name="dieresis" unicode="&#xa8;" horiz-adv-x="487" 
d="M283 969q0 28 40 28h3q55 0 59 -6q31 -70 31 -108q0 -16 -22.5 -34t-45.5 -24q-2 0 -6 -1t-6 -1q-53 0 -53 129v17zM27 958q0 29 43 29q57 0 59 -6q31 -70 31 -109q0 -16 -22.5 -33.5t-45.5 -23.5q-2 0 -6 -1t-6 -1q-53 0 -53 129v16z" />
    <glyph glyph-name="copyright" unicode="&#xa9;" horiz-adv-x="706" 
d="M590 348q-14 143 -66 215q-6 12 -32 39q-8 0 -19.5 8t-21.5 19l-9 10h-12q-51 18 -123 18q-104 0 -141 -47q-76 -102 -80 -143q0 -4 -2 -53t-2 -54q0 -31 17.5 -72.5t17.5 -54.5q0 -4 16.5 -23.5t43 -39.5t48.5 -25q41 -10 107 -10q117 0 186 45q35 23 55.5 76t20.5 84
q0 8 -4 8zM608 582q16 -10 36 -79t20 -145q0 -106 -43 -178q-25 -63 -80 -86q-68 -31 -242 -31h-59q-102 6 -158 62q-61 63 -70 215v33q0 25 1 65.5t1 59.5q4 16 4 22q0 20 -13 34.5t-13 16.5q0 6 51 17q51 70 158 135q57 35 78 39q63 0 114 -19h47q18 -2 43 -12t37 -12
l-2 -17q4 -25 44 -67.5t46 -52.5zM418 311q-27 -61 -99 -61q-53 0 -95 37t-42 96v10q0 14 8.5 33.5t8.5 32.5q2 6 2 16t-8 21l-9 8q0 2 33 10q8 12 13.5 14t13.5 3t18 10q14 8 33.5 12t36 5t18.5 1q8 0 45 -8l-2 -8q4 -14 21.5 -21.5t23.5 -15.5l-20 -49h-4l-29 30
q-43 14 -74 15q-23 0 -37 -7.5t-21 -19.5t-10 -22.5t-4 -25.5t-1 -17q2 -84 57 -84q8 0 20.5 1t18.5 1q12 0 15 1t2 4t2 10t14 15q6 6 12 6.5t12 -10t13.5 -24t13.5 -19.5z" />
    <glyph glyph-name="ordfeminine" unicode="&#xaa;" horiz-adv-x="307" 
d="M160 1018l-41 -12q-49 0 -70 32q-22 30 -22 92v5v45v10q0 6 -4.5 12t-4.5 8l21 7q10 14 20.5 32.5t15.5 27.5t9 9h4q27 0 41 -6h18q8 0 16.5 -6t14.5 -6h8q0 2 -6 13t-6 15h14h2q6 0 15 -4l8 -4q4 0 8 -2q4 -4 10 -2q6 0 7 -6v-14q0 -31 6 -92.5t6 -84.5v-4l14 -65
q-10 -12 -106 -12h-8q8 8 10 12zM193 1114q0 8 2 26.5t2 28.5q0 2 -2 11.5t-2 15.5h-7l4 23l-8 8h-2h-8h-6q-10 4 -19 4q-37 -12 -51 -32.5t-14 -49.5q0 -23 10 -53q0 -6 13.5 -22.5t25.5 -18.5q4 -2 8 -2q6 -2 21 -2q8 0 9 1t1 5q-2 8 6 14q16 20 17 39v4z" />
    <glyph glyph-name="guillemotleft" unicode="&#xab;" horiz-adv-x="1007" 
d="M907 475q8 -8 -8 -27.5t-10 -23.5q4 -4 18.5 -11t26.5 -22l12 -16q10 -16 12 -33v-16q-152 59 -180 65q-25 4 -69 4q-35 6 -150 168q-6 12 -10 17l-17 20l-12 18q-12 0 -49 49.5t-41 49.5q27 20 139 67q2 0 21.5 38t58.5 77t86 43q8 0 65.5 48t67.5 48q16 0 33 17
q0 -2 3 -2t9.5 -2t12.5 -9q4 -10 5 -45.5t3 -46.5l-8 -20q-6 2 -15 2q-35 0 -81 -47t-48 -49q-51 -31 -87 -56.5t-44 -33t-22.5 -15.5t-24.5 -11t-49 -13l27 -45q25 -45 65.5 -87.5t85.5 -42.5q2 0 30 -12t32 -12q75 0 112 -33zM512 463q8 -8 -7.5 -27.5t-8.5 -23.5
q4 -4 18 -11.5t27 -21.5l12 -17q10 -16 12 -32v-17q-152 59 -180 66q-25 4 -70 4q-39 6 -159 184l-31 39q-12 0 -48 49.5t-40 49.5q27 20 137 67q2 0 22.5 38t58.5 77t85 43q10 0 67.5 48t67.5 48q16 0 33 16q0 -2 3 -2t9 -2t12 -8q4 -10 5.5 -46t3.5 -46l-9 -20q-6 2 -16 2
q-35 0 -81 -47.5t-48 -49.5q-51 -31 -87 -56.5t-43 -32.5t-21.5 -15t-24.5 -11t-49 -14l26 -45q25 -45 66 -87t86 -42q2 0 28.5 -12t30.5 -12q76 0 113 -33z" />
    <glyph glyph-name="logicalnot" unicode="&#xac;" horiz-adv-x="669" 
d="M541 1010q6 -6 19 -20.5t23.5 -24t26 -18.5t29.5 -11q-6 0 -6 -10q0 -8 6 -33t6 -33v-4t-1 -2h-3l-4 -6q-2 0 -2 -41v-55q0 -96 -8 -97l-9 -6q-4 0 -22 3t-38.5 8.5t-25.5 5.5q-2 0 -14 99t-18 101q-20 2 -71.5 8.5t-89.5 10.5t-52 4q-45 0 -70 -4q-29 -6 -98.5 -33
t-81.5 -31v15q2 16 14 31.5t12 17.5q10 12 11 43v18q0 20 6 25q14 12 0 26q-2 4 -2 15q14 -16 31 -17q10 0 66 -8t65 -8q10 -2 34 -2q61 0 162 16.5t103 16.5h2z" />
    <glyph glyph-name="uni00AD" unicode="&#xad;" horiz-adv-x="655" 
d="M621 664q6 -6 19 -20.5t23.5 -24t26 -18.5t29.5 -11q-35 -10 -53 -10q-20 0 -35 2q-12 0 -166 19.5t-174 19.5q-45 0 -70 -5q-29 -6 -98.5 -32.5t-81.5 -30.5v14q2 16 14.5 31.5t12.5 17.5q10 12 22 35t21 29q14 12 0 27q-2 4 -2 14q14 -16 30 -16q10 0 53.5 3t51.5 3
q328 -31 377 -47z" />
    <glyph glyph-name="registered" unicode="&#xae;" horiz-adv-x="706" 
d="M590 348q-14 143 -66 215q-6 12 -32 39q-8 0 -19.5 8t-21.5 19l-9 10h-12q-51 18 -123 18q-104 0 -141 -47q-76 -102 -80 -143q0 -4 -2 -53t-2 -54q0 -31 17.5 -72.5t17.5 -54.5q0 -4 16.5 -23.5t43 -39.5t48.5 -25q41 -10 107 -10q117 0 186 45q35 23 55.5 76t20.5 84
q0 8 -4 8zM608 582q16 -10 36 -79t20 -145q0 -106 -43 -178q-25 -63 -80 -86q-68 -31 -242 -31h-59q-102 6 -158 62q-61 63 -70 215v33q0 25 1 65.5t1 59.5q4 16 4 22q0 20 -13 34.5t-13 16.5q0 6 51 17q51 70 158 135q57 35 78 39q63 0 114 -19h47q18 -2 43 -12t37 -12
l-2 -17q4 -25 44 -67.5t46 -52.5zM190 229l-8 164q0 14 8.5 33.5t8.5 32.5q2 6 2 16t-8 21l-9 8q0 2 4.5 10t13.5 18.5t19 12.5q4 2 6 -5.5t3 -14.5t9.5 -5t22.5 21q14 8 33.5 12t36 5t18.5 1q8 -8 20.5 -8h24.5l-2 -8q2 -12 8 -15q16 -12 25 -24l-8 -47q-4 -59 -90 -66
q37 -18 58.5 -45t34.5 -60.5t19 -43.5q-6 -14 -17 -22q-10 -7 -18 -6h-3q-10 1 -11 7q-10 29 -20.5 59.5t-15.5 45t-11 20.5q-6 12 -46 18.5t-50 32.5q16 6 71 21q68 14 68 49q0 8 -2 12q-29 29 -59 29l-15 -2q-31 -6 -52 -33t-21 -57v-6q10 -66 10 -80q0 -10 -4 -39
q-4 -12 -4 -35t2 -33z" />
    <glyph glyph-name="macron" unicode="&#xaf;" horiz-adv-x="430" 
d="M403 1255q6 -6 19.5 -20t24 -23.5t25.5 -18.5t30 -11q-37 -10 -53 -11q-20 0 -35 3q-14 0 -86 13t-92 13q-45 0 -70 -4q-29 -6 -98.5 -32.5t-81.5 -30.5v14q2 16 14 31.5t12 17.5q10 12 22.5 34.5t20.5 29.5q14 12 0 26q-2 4 -2 14q14 -16 31 -16q10 0 53 3t51 3
q154 -15 215 -35z" />
    <glyph glyph-name="degree" unicode="&#xb0;" horiz-adv-x="516" 
d="M369 1303q-33 86 -111 86q-43 0 -86 -25q-23 8 -33 8t-19 -17.5t-9 -47.5q-16 -37 -17 -64q0 -68 62.5 -117t126.5 -49q37 0 53 17q8 8 25.5 10t31 19.5t23.5 70.5q-16 47 -30.5 72t-16.5 37zM301 1462q68 -14 124 -103t56 -179q0 -131 -125 -160q-25 0 -33 -8t-12 -8
h-65h-2q-41 0 -135.5 67.5t-94.5 145.5q0 20 11 45v32q0 27 8 41q2 6 3 20.5t1 16.5q8 49 44 76t81 27q10 0 35 -5h4q4 -2 6 -2t9 1t11 1q27 0 74 -8z" />
    <glyph glyph-name="plusminus" unicode="&#xb1;" horiz-adv-x="610" 
d="M459 401q6 -6 19.5 -20t23.5 -23.5t25.5 -18.5t29.5 -11q-37 -10 -53 -11q-20 0 -35 2q-14 0 -86 13.5t-92 13.5q-45 0 -70 -4q-29 -6 -98.5 -32.5t-81.5 -30.5v14q2 16 14.5 31.5t12.5 17.5q10 12 22 34.5t21 29.5q14 12 0 26q-2 4 -2 14q14 -16 30 -16q10 0 53.5 3
t51.5 3q154 -15 215 -35zM535 811q2 -2 2 -16q0 -8 -1 -24.5t-1 -22.5q0 -27 18 -29q-37 -10 -53 -10q-20 0 -34.5 2t-66 11t-73.5 11q-2 -2 -2 -4q0 -14 19 -93t19 -83q-4 -23 -27.5 -38t-37.5 -15l-23 -4l-26 2q-6 0 -9 121.5t-8 121.5q-14 0 -43 -4q-27 -6 -77 -32.5
t-74 -34.5v14v12q-2 37 -2 41l2 23q12 14 26.5 23.5t18.5 11.5q14 12 0 26q-2 4 -2 15q14 -16 31 -17q10 0 67.5 2t65.5 2q0 4 1 10.5t1 8.5q0 47 -25.5 138t-25.5 103q0 2 2 7v2q25 -47 65 -48l80 3q2 -6 2 -29l-25 -203q14 -2 50 -2l159 8z" />
    <glyph glyph-name="uni00B2" unicode="&#xb2;" horiz-adv-x="561" 
d="M500 1014q-33 -6 -160 -6h-90q-12 0 -46 4t-44 4q-8 -2 -21 -2l-92 -8q14 29 94 91t125 113q141 78 142 140q0 57 -146 94q-96 0 -139 -35q-12 4 -34.5 5t-35 6t-12.5 20v6q0 4 8 5t19.5 3t17.5 4q92 45 176 45q86 0 136.5 -49t50.5 -119q0 -23 -11 -57
q-18 -45 -37.5 -66.5t-47 -38t-42.5 -30.5h-8q-27 0 -75 -42t-81 -52v-5h3q4 0 18 4.5t20.5 4.5t17.5 13t17 13l4 -2q12 -6 41 -6q47 20 88 21q31 0 58.5 -11.5t42 -25t28 -26.5t15.5 -15z" />
    <glyph glyph-name="uni00B3" unicode="&#xb3;" horiz-adv-x="471" 
d="M10 1075q8 25 16.5 34t13.5 7t14 5t20 30q72 -70 123 -70q18 0 34.5 7.5t41 23.5t30.5 21q8 0 20.5 13t12.5 30v14q0 25 -8 41q-27 43 -99 43q-61 -20 -114 -21q-31 0 -31 13q0 14 49 45q29 -6 57 -6q72 0 74 59v4q0 78 -76 78q-8 0 -45 -8q-16 0 -46.5 -13.5
t-30.5 -23.5l-3 -8v-11q-8 10 -18 11q-8 0 -20 -21q-2 0 -3.5 -2t-5.5 -2t-4 10v37q0 27 2 35q16 20 34 32.5t29 14.5t27.5 4t22.5 4l8 2l8 -2h19q68 0 108.5 -36.5t40.5 -75.5q0 -59 -20 -80q96 -31 96 -139q0 -8 -1 -21.5t-1 -19.5q-4 -27 -33.5 -64t-58.5 -49
q-25 -10 -62 -10q-6 -2 -18 -2q-47 0 -123 26.5t-80 40.5z" />
    <glyph glyph-name="acute" unicode="&#xb4;" horiz-adv-x="382" 
d="M29 973q-8 23 -9 47q0 45 30 124t30 101q0 20 33 29q133 20 168 20q14 0 19 -2t4 -6t0 -8t11.5 -7t30.5 -5l-29 -70q-66 -20 -120 -92t-76 -82q-92 -45 -92 -49z" />
    <glyph glyph-name="uni00B5" unicode="&#xb5;" horiz-adv-x="829" 
d="M168 78q10 -66 10 -113q0 -125 -67 -379q-82 121 -82 248q0 37 9 108.5t9 110.5q0 25 -2 37l8 221q-20 106 -20 185q0 139 17.5 292.5t39.5 153.5q10 0 19 -57q12 -14 30.5 -20.5t29.5 -7.5t11 -9q0 -49 -14 -133q-18 -61 -19 -119v-21q0 -6 5.5 -10t14.5 -8t13 -8
q-14 -82 -14 -139q0 -125 60.5 -212t162.5 -92h23q76 0 117.5 37t63 89.5t32.5 62.5q14 12 14 49q0 12 -2 39t-2 39q0 35 -29 436v6q0 39 25.5 51.5t63.5 13.5t53 11q10 -102 10 -389q0 -348 -86 -406q0 -31 -74 -84q-88 -61 -197 -61q-135 0 -233 78z" />
    <glyph glyph-name="paragraph" unicode="&#xb6;" horiz-adv-x="743" 
d="M367 668q-20 -2 -62 -2q-129 0 -223 75q-80 127 -80 238v14q0 109 110.5 208t268.5 99q74 0 151 -26q12 0 30 -16.5t24 -16.5v29l45 -29q16 -31 31.5 -41t32 -11t56.5 -17.5t91 -49.5q14 -80 14 -110q0 -20 -8 -29q-6 2 -10 5t-5.5 5t-3.5 5l-4 6q-17 24 -58 24h-3
q-31 0 -51 -29q-4 4 -4 7.5t2 9.5t2 12q0 33 -45 66q-14 -115 -15 -213l-4 -41q0 -25 -2 -74t-2 -70q0 -45 4 -53l-10 -25q-18 -139 -18 -237q0 -281 106 -410q-143 0 -178 45q-16 106 -17 148v8q2 37 11.5 127t14.5 170t5 145v62h-2l-4 2q-6 0 -19.5 -2t-37 -4t-49.5 -4
l-9 -13q0 -12 -9 -121.5t-9 -140.5q0 -283 102 -409q-160 0 -184 32q0 31 -4 56q0 4 -5 69.5t-5 67.5v8q4 37 14 119t17.5 157.5t7.5 141.5v33zM375 784v170q0 152 -8 193l-5 31q-18 4 -51 4q-88 0 -138 -54.5t-50 -132.5v-12v-12q0 -6 -1 -14.5t-1 -12.5q0 -86 52 -126
t134 -40q33 0 68 6zM459 797q33 6 35 6q25 0 38 5t37 9q0 39 4.5 106.5t4.5 96.5q0 49 -9 82l-6 24l-8 17q-43 12 -55 12q-16 6 -39 12q-6 -49 -6 -106q0 -16 1 -65.5t1 -82.5z" />
    <glyph glyph-name="periodcentered" unicode="&#xb7;" horiz-adv-x="241" 
d="M37 748q0 28 38 28h3q4 0 20.5 1t24.5 1q18 0 20 -4q31 -70 31 -108q0 -16 -25.5 -36t-46.5 -26q-2 0 -6 -1t-6 -1q-53 0 -53 129v17z" />
    <glyph glyph-name="cedilla" unicode="&#xb8;" horiz-adv-x="659" 
d="M369 -18q2 -25 21.5 -79.5t19.5 -86.5q0 -86 -119 -168q-39 12 -76 12q-2 0 -108.5 66.5t-106.5 68.5q0 6 6 12q2 4 2 9.5v7.5q10 12 21.5 35.5t21.5 36t27 14.5h2q6 0 7 -12.5t12.5 -35t39.5 -42.5q66 -55 107 -56q35 0 35 39q0 37 -31 86.5t-80 81.5l12 2q4 2 18.5 33
t49.5 33l24 2h7h8l4 2q27 -2 39 -12.5t20.5 -26.5t16.5 -22z" />
    <glyph glyph-name="uni00B9" unicode="&#xb9;" horiz-adv-x="180" 
d="M119 1055l-6 -31q-10 -16 -86 -16q39 49 39 151q0 12 -3.5 49t-3.5 49l-6 11q2 2 2 18q0 37 -2 53v17q0 25 -22.5 32t-22.5 17q10 2 31.5 22.5t45.5 46t28 29.5v-8q0 -8 -7 -39l-2 -10q-4 -14 -4 -72v-65l4 -54q0 -25 2.5 -52t6.5 -59t6 -46v-2q2 -10 2 -27q0 -10 -2 -14
z" />
    <glyph glyph-name="ordmasculine" unicode="&#xba;" horiz-adv-x="342" 
d="M244 1122q-4 59 -23 84q-2 2 -7 8.5t-7 8.5h-8h-6q-31 10 -46 10q-29 0 -45 -21q-10 -14 -14 -51v-12q0 -29 4 -53q0 -6 13.5 -22.5t25.5 -18.5h10q31 0 68 22.5t37 40.5q0 4 -2 4zM264 1214q6 -4 14.5 -30.5t8.5 -57.5q0 -45 -17 -71q-14 -29 -32 -35q-29 -12 -97 -12
h-24q-43 4 -62 24q-25 25 -28 86v12v52q2 2 2 8q0 10 -9 18l-2 2q0 4 21 7q20 29 63 55q25 14 31 14q29 0 45 -6h21q6 -2 15 -6t15 -4v-6q2 -10 17.5 -27t17.5 -23z" />
    <glyph glyph-name="guillemotright" unicode="&#xbb;" horiz-adv-x="1007" 
d="M90 475q37 33 113 33q4 0 30.5 12t28.5 12q45 0 86 42t66 88l26 45q-39 10 -49 13t-24.5 11t-21.5 15.5t-43 33t-87 56.5q-2 2 -48 49t-81 47q-10 0 -16 -2l-9 20q2 10 3.5 46t5.5 46q6 6 12 8.5t9 2.5t3 2q16 -16 33 -17q10 0 67.5 -48t67.5 -48q47 -4 85 -43t58.5 -77
t22.5 -38q111 -47 137 -67q-4 0 -40 -49.5t-48 -49.5q-28 -38 -31 -38v0q-121 -178 -159 -185q-45 0 -70 -4q-29 -6 -180 -65v16q2 12 6 20.5t10 15.5t8 13q12 14 26.5 21.5t18.5 11.5q2 1 2 4q0 6 -11 20q-10 13 -10 20q0 4 3 7zM483 463q39 33 115 33q2 0 28.5 12t30.5 12
q45 0 86 42t68 87l25 45q-39 10 -49.5 13.5t-24.5 11.5t-21.5 15t-43 33t-87.5 56q-2 0 -49 48.5t-82 48.5q-10 0 -16 -2l-8 20q2 10 3 31.5t2 37t5 23.5q6 6 12 8t9 2t3 2q16 -16 33 -16q10 0 67.5 -48t65.5 -48q47 -4 86 -43t59.5 -77t22.5 -38q111 -49 135 -67
q-2 0 -37.5 -49.5t-48.5 -49.5q-29 -39 -32 -39q-121 -178 -160 -184q-45 0 -70 -4q-29 -6 -180 -66v17q2 12 6 20t10.5 15.5t8.5 13.5q12 14 26.5 21.5t18.5 11.5q2 1 2 3q-1 7 -12 21q-10 13 -10 20q0 4 3 7z" />
    <glyph glyph-name="onequarter" unicode="&#xbc;" horiz-adv-x="1062" 
d="M883 352q2 14 4 21.5t2 11.5v27q0 16 -4 30.5t-4 24.5q-4 2 -21 2q-51 -27 -94 -154q0 2 28.5 2t57.5 1t29 4q0 18 2 30zM985 346q8 -76 16 -84q-8 2 -26 2q-14 0 -16.5 1t-10.5 1v-8v-72q0 -74 2 -100q8 -18 8 -20v-3q0 -6 -34.5 -19t-38.5 -17q-4 10 -4 39q0 12 1 37.5
t1 39.5q0 4 -1 12.5t-1 12.5q0 8 2 39t2 45v10h-6q2 0 -7 0q-6 0 -6 2q-18 0 -44.5 3t-35.5 3q-29 0 -36 -18q-2 10 -28 42t-38 44h2q20 0 73.5 93t76.5 93q39 0 57 4q10 4 33 27v-8v-17v-4q0 -10 8 -46t8 -46l-2 -18q-2 -18 -2 -31q0 -29 10 -59q4 0 19.5 10t17.5 10z
M37 156q72 113 191.5 243.5t215 226t188.5 244t136 316.5q14 84 55 84q6 0 15 -4l30 -111q-43 -63 -154.5 -244.5t-222 -336t-290.5 -373.5q-6 8 -17 8q-31 0 -100 -64q-10 0 -19.5 -1t-12.5 -3q-2 -1 -3 -1l-3 1q-3 2 -4 4.5t-5 10.5zM313 776l-6 -31q-10 -16 -86 -16
q39 49 39 152q0 12 -3 49t-3 49l-6 10q2 2 2 19q0 37 -2 53v16q0 25 -22.5 32t-22.5 17q10 2 31.5 22.5t45 46.5t27.5 30v-8q0 -8 -6 -39l-2 -11q-4 -14 -4 -71v-66l4 -53l14 -158v-2q2 -10 2 -26q0 -11 -2 -15z" />
    <glyph glyph-name="onehalf" unicode="&#xbd;" horiz-adv-x="1130" 
d="M37 156q72 113 191.5 243.5t215 226t188.5 244t136 316.5q14 84 55 84q6 0 15 -4l30 -111q-43 -63 -154.5 -244.5t-222 -336t-290.5 -373.5q-6 8 -17 8q-31 0 -100 -64q-10 0 -19.5 -1t-12.5 -3t-6 0t-4 4.5t-5 10.5zM1040 76q-31 -6 -157 -6h-92q-12 0 -45 4t-44 4
q-8 -2 -22 -2l-92 -8q14 29 94 91t125 113q141 76 141 140q0 57 -145 94q-92 0 -139 -35q-12 4 -34 5t-34 6t-12 20q0 2 -2 6q0 4 8 5t19.5 3t17.5 4q92 45 176 45q86 0 136 -49t50 -119q0 -23 -10 -57q-18 -45 -37.5 -66.5t-46.5 -38t-41 -30.5h-8q-29 0 -77 -42t-79 -52
l-2 -5h2q4 0 11.5 2.5t15.5 4.5t12 2q8 0 18.5 13t16.5 13l4 -2q12 -6 41 -6q47 20 88 21q31 0 58.5 -11.5t42 -25t27.5 -26.5zM313 776l-6 -31q-10 -16 -86 -16q39 49 39 152q0 12 -3 49t-3 49l-6 10q2 2 2 19q0 37 -2 53v16q0 25 -22.5 32t-22.5 17q10 2 31.5 22.5
t45 46.5t27.5 30v-8q0 -8 -6 -39l-2 -11q-4 -14 -4 -71v-66l4 -53l14 -158v-2q2 -10 2 -26q0 -11 -2 -15z" />
    <glyph glyph-name="threequarters" unicode="&#xbe;" horiz-adv-x="1062" 
d="M61 823q8 25 16.5 34t12.5 7t13.5 5.5t21.5 29.5q68 -68 123 -68q14 0 29.5 5.5t24.5 11.5t26.5 17.5t23.5 15.5q10 0 22.5 13t12.5 30v14q0 27 -10 41q-27 43 -96 43q-74 -20 -115 -21q-31 0 -31 13q0 14 49 45q29 -6 58 -6q72 0 73 59v4q0 78 -75 78q-18 0 -45 -6
q-18 -2 -48 -15.5t-30 -21.5l-2 -10v-11q-8 12 -19 13q-4 0 -8 -3t-8 -9.5t-6 -8.5q-6 -6 -8 -6q-2 4 -3 10l-2 13v24q0 18 5 35q16 20 33.5 32.5t28.5 14.5t27.5 4t22.5 4l6 2l11 -2h18q68 0 107.5 -35.5t39.5 -74.5q0 -63 -18 -82q96 -31 96 -139q0 -8 -2 -21.5t-2 -19.5
q-2 -27 -31.5 -63t-58.5 -50q-25 -10 -61 -10q-6 -2 -21 -2q-45 0 -121 26.5t-80 40.5zM883 352q2 14 4 21.5t2 11.5v27q0 16 -4 30.5t-4 24.5q-4 2 -21 2q-51 -27 -94 -154q0 2 28.5 2t57.5 1t29 4q0 18 2 30zM985 346q8 -76 16 -84q-8 2 -26 2q-14 0 -16.5 1t-10.5 1v-8
v-72q0 -74 2 -100q8 -18 8 -20v-3q0 -6 -34.5 -19t-38.5 -17q-4 10 -4 39q0 12 1 37.5t1 39.5q0 4 -1 12.5t-1 12.5q0 8 2 39t2 45v10h-6q2 0 -7 0q-6 0 -6 2q-18 0 -44.5 3t-35.5 3q-29 0 -36 -18q-2 10 -28 42t-38 44h2q20 0 73.5 93t76.5 93q39 0 57 4q10 4 33 27v-8v-17
v-4q0 -10 8 -46t8 -46l-2 -18q-2 -18 -2 -31q0 -29 10 -59q4 0 19.5 10t17.5 10zM37 156q72 113 191.5 243.5t215 226t188.5 244t136 316.5q14 84 55 84q6 0 15 -4l30 -111q-43 -63 -154.5 -244.5t-222 -336t-290.5 -373.5q-6 8 -17 8q-31 0 -100 -64q-10 0 -19.5 -1
t-12.5 -3q-2 -1 -3 -1l-3 1q-3 2 -4 4.5t-5 10.5z" />
    <glyph glyph-name="questiondown" unicode="&#xbf;" horiz-adv-x="626" 
d="M270 1407q27 -18 100.5 -20.5t88.5 -18.5q8 -16 8 -45q0 -14 -2 -34.5t-2 -22.5q0 -20 -27 -21q-2 0 -21.5 -5t-21.5 -5q-35 12 -47 19.5t-17 18.5t-6 22.5t-13.5 42t-39.5 69.5zM453 242q6 2 16 2q14 0 29.5 -33t31.5 -41l-30 -94q-45 -23 -109.5 -66t-108.5 -65.5
t-85 -22.5q-59 0 -117 47l-49 135q-2 14 -2 46v2l288 872v25q0 70 -30 114l166 -82l22 -59v-10q0 -78 -46 -186.5t-100.5 -199.5t-99.5 -189.5t-45 -157.5v-9q-22 -55 -22 -91v-3v-8q0 -39 11 -53.5t60 -14.5q14 0 46 11.5t49 11.5q10 0 58.5 56.5t66.5 62.5z" />
    <glyph glyph-name="multiply" unicode="&#xd7;" horiz-adv-x="1017" 
d="M426 606l-197 -237q-102 -39 -153 -39q-37 0 -37 24q0 33 135 162t145 162v4l7 25l-56 77q-10 23 -89 122.5t-79 144.5q0 4 1 12t1 12q0 6 7 6q76 -6 77 -8q8 -8 25 -8q10 0 16.5 4t7.5 6t5 -2l6 -8q0 -4 -1 -10t-1 -11q0 -31 33.5 -72.5t84 -94t72.5 -89.5q37 43 87 73
t67 65v8q0 18 30.5 45t59.5 43l31 16q20 25 97 36t138 11q-16 -66 -110.5 -142.5t-199 -147t-130.5 -113.5l29 -53q35 -47 91 -106.5t90 -97.5t34 -52q0 -10 -9 -19q-8 -2 -31.5 -9t-34.5 -11t-23.5 -14.5t-14.5 -24.5l-14 33z" />
    <glyph glyph-name="divide" unicode="&#xf7;" horiz-adv-x="614" 
d="M229 457q0 28 38 28h3q4 0 20.5 1t24.5 1q18 0 21 -4q31 -70 31 -108q0 -16 -26 -36t-46 -26q-2 0 -6 -1t-6 -1q-53 0 -54 129v17zM213 965q0 28 38 28h3q4 0 20.5 1t24.5 1q18 0 20 -4q31 -70 31 -108q0 -16 -25.5 -36t-45.5 -26q-2 0 -6.5 -1t-6.5 -1q-53 0 -53 129v17
zM459 676q6 -6 19.5 -20.5t23.5 -23.5t25.5 -18.5t29.5 -11.5q-35 -10 -53 -10q-20 0 -35 2q-14 0 -86 13.5t-92 13.5q-45 0 -70 -5q-29 -6 -98.5 -32.5t-81.5 -30.5v14q2 16 14.5 31.5t12.5 17.5q10 12 22 35t21 29q14 12 0 27q-2 4 -2 14q14 -16 30 -16q10 0 53.5 3
t51.5 3q154 -15 215 -35z" />
    <glyph glyph-name="uni29EB" unicode="&#x29eb;" horiz-adv-x="532" 
d="M228 667l111 -158l-99 -576l-132 573z" />
  </font>
</defs>
</svg>
